<svg width="1282" height="138" viewBox="0 0 1282 138" fill="none" xmlns="http://www.w3.org/2000/svg">
<g clip-path="url(#clip0)">
<path d="M52.0526 1.60693V136.395H39.8254V12.8978H12.2271V136.395H0V1.60693H52.0526Z" fill="#F6F4F2"/>
<path d="M115.731 117.777C103.504 104.479 97.4157 88.4204 97.6153 69.6022C97.4157 48.9775 103.904 32.1164 117.129 19.2698C130.304 6.32291 146.474 0 165.588 0C186.299 0 202.868 6.72436 215.095 20.0225C227.323 33.5215 233.411 49.5796 233.411 68.3978C233.411 89.0226 226.923 105.683 213.698 118.529C200.473 131.426 184.503 137.95 165.388 137.95C144.528 138 127.959 131.225 115.731 117.777ZM220.585 68.5985C220.585 34.5251 197.728 11.4916 165.588 11.4916C132.65 11.4916 110.192 34.4749 110.391 69.4015C110.192 103.475 132.849 126.508 165.588 126.508C198.127 126.458 220.585 103.475 220.585 68.5985Z" fill="#F6F4F2"/>
<path d="M291.553 1.60693V82.9015L333.724 1.60693H347.149L303.78 84.4571L348.347 136.395H332.776L291.553 89.2244V136.395H279.126V1.60693H291.553Z" fill="#F6F4F2"/>
<path d="M380.489 136.394L421.312 0.200684H422.71L463.733 136.394H450.657L426.203 51.9381C425.205 48.576 424.257 44.6116 423.458 41.4501C422.66 38.2887 421.861 35.88 421.861 35.1272C421.861 35.7294 421.063 38.088 420.264 41.2494C419.466 44.4109 418.467 48.576 417.519 51.9381L392.865 136.394H380.489Z" fill="#F6F4F2"/>
<path d="M517.679 117.778C505.452 104.48 499.363 88.4215 499.563 69.6033C499.363 48.9785 505.851 32.1175 519.077 19.2709C532.302 6.37418 548.472 0.0512695 567.586 0.0512695C588.297 0.0512695 604.866 6.77563 617.093 20.0738C629.32 33.5727 635.409 49.6309 635.409 68.4491C635.409 89.0738 628.921 105.734 615.696 118.581C602.47 131.477 586.5 138.001 567.386 138.001C546.475 138.001 529.906 131.227 517.679 117.778ZM622.583 68.5996C622.583 34.5262 599.726 11.4927 567.586 11.4927C534.647 11.4927 512.189 34.476 512.389 69.4025C512.189 103.476 534.847 126.509 567.586 126.509C600.125 126.459 622.583 103.476 622.583 68.5996Z" fill="#F6F4F2"/>
<path d="M693.154 1.60693V79.74H720.752V1.60693H732.979V136.395H720.752V90.9808H693.154V136.395H680.927V1.60693H693.154Z" fill="#F6F4F2"/>
<path d="M797.607 1.60693V79.74H825.206V1.60693H837.433V136.395H825.206V90.9808H797.607V136.395H785.38V1.60693H797.607Z" fill="#F6F4F2"/>
<path d="M972.479 114.966H900.913L892.03 136.394H879.603L936.247 0.200684H937.645L994.438 136.394H981.413L972.479 114.966ZM967.988 104.278L936.646 28.9549L905.505 104.278H967.988Z" fill="#F6F4F2"/>
<path d="M1044.04 136.395H1030.42L1052.88 95.5473C1038.9 87.0164 1031.17 72.1626 1031.17 53.1437V50.9858C1031.17 21.228 1049.68 1.60693 1080.28 1.60693H1097.84V136.395H1085.42V102.322H1079.33C1073.79 102.322 1068.5 101.72 1063.76 100.315L1044.04 136.395ZM1085.47 12.8978H1080.53C1055.67 12.8978 1043.84 27.9524 1043.84 51.1364V52.9429C1043.84 75.7255 1056.27 91.3822 1079.53 91.3822H1085.47V12.8978Z" fill="#F6F4F2"/>
<path d="M1253.6 91.382C1255.05 88.3209 1256.4 85.9121 1257.64 84.0554C1258.89 82.1987 1259.64 81.1449 1259.94 80.894C1255.35 84.4569 1250.16 86.2634 1244.37 86.2634C1239.38 86.2634 1234.79 85.1594 1230.59 83.0016C1226.4 80.8438 1222.76 77.8329 1219.76 74.0692C1216.72 70.3056 1214.42 65.8394 1212.78 60.6707C1211.13 55.502 1210.33 50.0321 1210.33 44.2111V42.2038C1210.33 36.1318 1211.18 30.5114 1212.88 25.3427C1214.57 20.174 1216.97 15.7078 1220.06 11.9441C1223.16 8.1805 1226.9 5.21977 1231.29 3.11214C1235.68 1.0045 1240.68 -0.0493164 1246.17 -0.0493164C1251.65 -0.0493164 1256.65 1.0045 1261.04 3.11214C1265.43 5.21977 1269.17 8.1805 1272.27 11.9441C1275.36 15.7078 1277.76 20.2241 1279.45 25.4431C1281.15 30.662 1282 36.3325 1282 42.4045V44.2111C1282 51.7383 1281 58.6634 1279.05 64.9361C1277.11 71.2089 1274.41 77.6321 1270.97 84.2561L1243.97 136.395H1230.74L1253.6 91.382ZM1246.12 75.1231C1253.45 75.1231 1259.24 72.2627 1263.38 66.4918C1267.53 60.7209 1269.62 53.294 1269.62 44.2111V42.4547C1269.62 37.9383 1269.07 33.8234 1268.02 29.9594C1266.98 26.1456 1265.43 22.8336 1263.38 20.0234C1261.34 17.2634 1258.89 15.1056 1256 13.6001C1253.1 12.0947 1249.81 11.342 1246.12 11.342C1242.57 11.342 1239.33 12.0947 1236.43 13.6001C1233.54 15.1056 1231.09 17.2634 1229.15 20.0234C1227.2 22.7834 1225.65 26.0954 1224.51 29.9594C1223.41 33.7732 1222.81 37.9383 1222.81 42.4547V44.2612C1222.81 48.7776 1223.31 52.8925 1224.41 56.6561C1225.45 60.4198 1226.95 63.6816 1228.95 66.4918C1230.89 69.2518 1233.34 71.4096 1236.23 72.9151C1239.13 74.3703 1242.42 75.1231 1246.12 75.1231Z" fill="#F6F4F2"/>
</g>
<defs>
<clipPath id="clip0">
<rect width="1282" height="138" fill="white"/>
</clipPath>
</defs>
</svg>
