<?xml version="1.0" standalone="no"?>
<!DOCTYPE svg PUBLIC "-//W3C//DTD SVG 1.1//EN" "http://www.w3.org/Graphics/SVG/1.1/DTD/svg11.dtd" >
<svg xmlns="http://www.w3.org/2000/svg" xmlns:xlink="http://www.w3.org/1999/xlink" version="1.1">
<metadata>
Created by FontForge 20170731 at Fri Apr  9 14:26:04 2021
 By Aleksey,,,
(C)2004 House Industries/Brand Design Co., Inc. All Rights Reserved.
</metadata>
<defs>
<font id="NeutrafaceCondensed-Bold" horiz-adv-x="675" >
  <font-face 
    font-family="Neutraface Condensed Bold"
    font-weight="700"
    font-stretch="condensed"
    units-per-em="2048"
    panose-1="2 0 0 0 0 0 0 0 0 0"
    ascent="1638"
    descent="-410"
    x-height="727"
    cap-height="1393"
    bbox="-297 -686 2808 2183"
    underline-thickness="102"
    underline-position="-307"
    unicode-range="U+000D-FFFD"
  />
<missing-glyph horiz-adv-x="1024" 
 />
    <glyph glyph-name="ff" unicode="ff" horiz-adv-x="821" 
d="M453 1343q20 21 63 64q63 63 168 63q98 0 145 -40l-67 -148q-23 18 -53 18q-58 0 -58 -92v-481h142v-162h-142v-565h-198v565h-158v-565h-199v565h-69v162h69v479q0 132 62 198t170 66q87 0 127 -34l-62 -146q-17 10 -41 10q-57 0 -57 -92v-481h158v479v137z" />
    <glyph glyph-name="fi" unicode="fi" horiz-adv-x="712" 
d="M651 727v-727h-198v565h-158v-565h-199v565h-69v162h69v479q0 132 62 198t170 66q98 0 145 -40l-67 -148q-23 18 -54 18q-57 0 -57 -92v-481h356zM436 1051q12 9 35 32q36 31 80 31q48 0 81.5 -32.5t33.5 -82.5q0 -49 -33.5 -81.5t-81.5 -32.5q-46 0 -80.5 33t-34.5 81
v52z" />
    <glyph glyph-name="fl" unicode="fl" horiz-adv-x="712" 
d="M420 1303h-45q-48 0 -62 -33q-18 -34 -18 -88v-455h102v-162h-102v-565h-199v565h-69v162h69v461q0 138 77 210t204 72q131 0 202.5 -70.5t71.5 -213.5v-1186h-198v1182q0 59 -33 121z" />
    <glyph glyph-name="ffi" unicode="ffi" horiz-adv-x="1069" 
d="M809 0v565h-158v-565h-198v565h-158v-565h-199v565h-69v162h69v479q0 132 62 198t170 66q87 0 127 -34l-62 -146q-17 10 -41 10q-57 0 -57 -92v-481h158v479q0 132 61.5 198t169.5 66q98 0 145 -40l-67 -148q-23 18 -53 18q-58 0 -58 -92v-481h357v-727h-199zM862 885
q-12 10 -35 33q-34 34 -34 81q0 50 34 84q36 31 80 31q48 0 81.5 -32.5t33.5 -82.5q0 -49 -33.5 -81.5t-81.5 -32.5h-45z" />
    <glyph glyph-name="ffl" unicode="ffl" horiz-adv-x="1069" 
d="M686 1303q-6 -10 -16 -33q-19 -36 -19 -88v-455h103v-162h-103v-565h-198v565h-158v-565h-199v565h-69v162h69v479q0 132 62 198t170 66q87 0 127 -34l-62 -146q-17 10 -41 10q-57 0 -57 -92v-481h158v461q0 138 76.5 210t203.5 72q131 0 203 -70.5t72 -213.5v-1186h-199
v1182q0 121 -78 121h-45z" />
    <glyph glyph-name="L_A" unicode="LA" horiz-adv-x="1798" 
d="M1284 1405h27l465 -1405h-226l-53 174h-412l-53 -174h-213zM768 188l-63 -188h-594v1393h215v-1205h442zM1294 866v6q-3 -3 -6 -24q-5 -19 -21.5 -83t-25.5 -95l-100 -318h301l-96 318q-35 119 -52 196z" />
    <glyph glyph-name="fff" unicode="fff" horiz-adv-x="1177" 
d="M651 1208v-481h158v479q0 132 61.5 198t169.5 66q99 0 146 -40l-68 -148q-22 18 -53 18q-57 0 -57 -92v-481h141v-162h-141v-565h-199v565h-158v-565h-198v565h-158v-565h-199v565h-69v162h69v479q0 132 62 198t170 66q87 0 127 -34l-62 -146q-17 10 -41 10
q-57 0 -57 -92v-481h158v479q0 132 61.5 198t169.5 66q87 0 127 -34l-61 -146q-17 10 -41 10q-58 0 -58 -92z" />
    <glyph glyph-name="f_b" unicode="fb" horiz-adv-x="1116" 
d="M965 25q-16 -7 -47 -21q-49 -22 -97 -22q-111 0 -170 92v-74h-198v1182q0 121 -78 121q-80 0 -80 -121v-455h102v-162h-102v-565h-199v565h-69v162h69v461q0 138 77 210t204 72q131 0 202.5 -70.5t71.5 -213.5v-531q53 90 172 90q108 0 182 -94t74 -276v-23
q0 -99 -20 -166q-20 -69 -94 -161zM647 258q11 -16 31 -51q27 -53 82 -53t84.5 51.5t29.5 148.5v19q0 97 -29.5 148.5t-84.5 51.5q-56 0 -82 -51q-31 -54 -31 -149v-19v-96z" />
    <glyph glyph-name="f_h" unicode="fh" horiz-adv-x="1083" 
d="M705 561l-27 -24q-27 -27 -27 -80v-457h-198v1182q0 121 -78 121q-80 0 -80 -121v-455h102v-162h-102v-565h-199v565h-69v162h69v461q0 138 77 210t204 72q131 0 202.5 -70.5t71.5 -213.5v-541q57 100 178 100q90 0 145.5 -64t55.5 -187v-494h-199v471q0 43 -22.5 66.5
t-58.5 23.5h-45z" />
    <glyph glyph-name="f_j" unicode="fj" horiz-adv-x="712" 
d="M453 -225v35v755h-158v-565h-199v565h-69v162h69v479q0 132 62 198t170 66q98 0 145 -40l-67 -148q-23 18 -54 18q-57 0 -57 -92v-481h356v-922q0 -117 -57.5 -179t-167.5 -62q-84 0 -127 26l49 162q20 -12 47 -12q23 0 58 35zM506 885q-12 10 -35 33q-35 35 -35 81
q0 49 35 84q36 31 80 31q48 0 81.5 -32.5t33.5 -82.5q0 -49 -33.5 -81.5t-81.5 -32.5h-45z" />
    <glyph glyph-name="f_k" unicode="fk" horiz-adv-x="1050" 
d="M827 0l-131 258l-45 -65v-193h-198v1182q0 121 -78 121q-80 0 -80 -121v-455h102v-162h-102v-565h-199v565h-69v162h69v461q0 138 77 210t204 72q131 0 202.5 -70.5t71.5 -213.5v-713l162 254h217l-205 -289l226 -438h-224z" />
    <glyph glyph-name="f_f_b" unicode="ffb" horiz-adv-x="1472" 
d="M686 1303q-6 -10 -16 -33q-19 -36 -19 -88v-455h103v-162h-103v-565h-198v565h-158v-565h-199v565h-69v162h69v479q0 132 62 198t170 66q87 0 127 -34l-62 -146q-17 10 -41 10q-57 0 -57 -92v-481h158v461q0 138 76.5 210t203.5 72q131 0 203 -70.5t72 -213.5v-531
q53 90 172 90q108 0 182 -94t74 -276v-23q0 -182 -74.5 -276t-183.5 -94q-111 0 -170 92v-74h-199v1182q0 121 -78 121h-45zM1004 373v-19q0 -97 29 -148.5t83 -51.5q56 0 85.5 51.5t29.5 148.5v19q0 97 -29.5 148.5t-85.5 51.5q-54 0 -83 -51.5t-29 -148.5z" />
    <glyph glyph-name="f_f_h" unicode="ffh" horiz-adv-x="1439" 
d="M754 565h-103v-565h-198v565h-158v-565h-199v565h-69v162h69v479q0 132 62 198t170 66q87 0 127 -34l-62 -146q-17 10 -41 10q-57 0 -57 -92v-481h158v461q0 138 76.5 210t203.5 72q131 0 203 -70.5t72 -213.5v-541q57 100 178 100q90 0 145 -64t55 -187v-494h-198v471
q0 43 -22.5 66.5t-59.5 23.5q-46 0 -72 -26t-26 -78v-457h-199v1182q0 121 -78 121q-80 0 -80 -121v-455h103v-162z" />
    <glyph glyph-name="f_f_k" unicode="ffk" horiz-adv-x="1406" 
d="M651 1237v-55v-455h103v-162h-103v-565h-198v565h-158v-565h-199v565h-69v162h69v479q0 132 62 198t170 66q87 0 127 -34l-62 -146q-17 10 -41 10q-57 0 -57 -92v-481h158v461q0 138 76.5 210t203.5 72q131 0 203 -70.5t72 -213.5v-713l161 254h217l-204 -289l225 -438
h-223l-131 258l-45 -65v-193h-199v1182q0 121 -78 121q-45 0 -80 -66z" />
    <glyph glyph-name="f_f_j" unicode="ffj" horiz-adv-x="1069" 
d="M651 1260v-52v-481h357v-924q0 -117 -58 -179t-168 -62q-84 0 -127 26l50 162q20 -12 47 -12q26 0 41.5 17.5t15.5 51.5v758h-158v-565h-198v565h-158v-565h-199v565h-69v162h69v479q0 132 62 198t170 66q87 0 127 -34l-62 -146q-17 10 -41 10q-57 0 -57 -92v-481h158
v479q0 132 61.5 198t169.5 66q98 0 145 -40l-67 -148q-23 18 -53 18q-24 0 -58 -40zM793 950v49q0 50 34 84q36 31 80 31q48 0 81.5 -32.5t33.5 -82.5q0 -49 -33.5 -81.5t-81.5 -32.5q-43 0 -114 65z" />
    <glyph glyph-name=".notdef" horiz-adv-x="1024" 
 />
    <glyph glyph-name=".null" horiz-adv-x="0" 
 />
    <glyph glyph-name="nonmarkingreturn" horiz-adv-x="682" 
 />
    <glyph glyph-name="NULL" horiz-adv-x="0" 
 />
    <glyph glyph-name="NULL" horiz-adv-x="0" 
 />
    <glyph glyph-name="CR" unicode="&#xd;" horiz-adv-x="512" 
 />
    <glyph glyph-name="space" unicode=" " horiz-adv-x="372" 
 />
    <glyph glyph-name="exclam" unicode="!" horiz-adv-x="444" 
d="M131 410l-20 983h221l-21 -983h-180zM276 256q14 -12 41 -37q39 -36 39 -96t-39 -96q-40 -37 -94 -37q-56 0 -95.5 37.5t-39.5 95.5t39.5 95.5t95.5 37.5h53z" />
    <glyph glyph-name="quotedbl" unicode="&#x22;" horiz-adv-x="628" 
d="M375 979l-19 414h209l-18 -414h-172zM272 1393l-18 -414h-172l-19 414h209z" />
    <glyph glyph-name="numbersign" unicode="#" horiz-adv-x="845" 
d="M739 483h-139l-35 -196h-159l34 196h-125l-34 -196h-160l35 196h-107v160h137l25 137h-105v160h134l39 209h159l-39 -209h125l39 209h160l-39 -209h113v-160h-142l-24 -137h108v-160zM371 780l-25 -137h125l25 137h-125z" />
    <glyph glyph-name="dollar" unicode="$" horiz-adv-x="720" 
d="M254 1335h190v-176q59 -10 99 -26q33 -16 84 -50l-99 -149q-67 53 -151 53q-48 0 -81.5 -29t-33.5 -73v-8q0 -48 28.5 -83.5t100.5 -91.5l86 -67q99 -78 146 -151.5t47 -168.5v-18q0 -107 -59.5 -186t-166.5 -109v-219h-190v209q-147 20 -240 119l119 141q86 -86 184 -86
q70 0 110 36t40 93v12q0 46 -28.5 83.5t-106.5 101.5l-84 67q-94 74 -138 142.5t-44 166.5v13q0 96 50 165.5t138 98.5v190z" />
    <glyph glyph-name="percent" unicode="%" horiz-adv-x="1314" 
d="M590 887v-21q0 -122 -79 -200t-196 -78t-195.5 78t-78.5 200v21q0 122 78.5 200t195.5 78t196 -78t79 -200zM768 98q-6 17 -20 52q-23 58 -23 112v21q0 55 23 112q31 76 98.5 121t152.5 45q117 0 196 -78t79 -200v-21q0 -122 -79 -200t-196 -78q-62 0 -112 22.5
t-119 91.5zM270 0l592 1149h182l-591 -1149h-183zM272 1010q-8 -11 -26 -31q-29 -37 -29 -94v-17q0 -60 29 -92q26 -33 69 -33q44 0 71.5 32.5t27.5 92.5v17q0 60 -27.5 92.5t-71.5 32.5h-43zM901 342v-61v-17q0 -60 29 -92q26 -33 69 -33q44 0 71.5 32.5t27.5 92.5v17
q0 60 -27.5 92.5t-71.5 32.5q-43 0 -98 -64z" />
    <glyph glyph-name="ampersand" unicode="&#x26;" horiz-adv-x="1062" 
d="M791 987q-19 -27 -58 -80q-57 -80 -170 -149l203 -326q25 98 25 225v70h194v-74q0 -252 -92 -422l145 -231h-233l-47 76q-124 -92 -297 -92q-183 0 -297.5 104t-114.5 281v20q0 136 64 231.5t194 172.5q-106 165 -106 286v19q0 145 83.5 228t215.5 83t211.5 -80.5
t79.5 -210.5v-16v-115zM268 395v-18q0 -100 60 -154q59 -53 145 -53q115 0 184 63l-262 418q-64 -52 -95.5 -112.5t-31.5 -143.5zM594 1092v12q0 55 -25 94q-24 35 -67 35q-47 0 -74 -35.5t-27 -95.5v-12q0 -49 18 -94.5t60 -106.5q115 83 115 203z" />
    <glyph glyph-name="quotesingle" unicode="'" horiz-adv-x="335" 
d="M82 979l-19 414h209l-18 -414h-172z" />
    <glyph glyph-name="parenleft" unicode="(" horiz-adv-x="538" 
d="M311 948q-4 -34 -14 -106q-16 -115 -16 -236v-20q0 -119 16 -234q39 -288 209 -534l-129 -92q-66 77 -117.5 158t-97 185.5t-70 235t-24.5 277.5v28q0 147 24.5 277.5t70 235t97 185.5t117.5 158l129 -92q-54 -79 -94 -157q-47 -95 -101 -269z" />
    <glyph glyph-name="parenright" unicode=")" horiz-adv-x="538" 
d="M258 586v20q0 135 -14 236q-41 273 -211 532l129 92q66 -77 117.5 -158t97 -185.5t70 -235t24.5 -277.5v-28q0 -147 -24.5 -277.5t-70 -235t-97 -185.5t-117.5 -158l-129 92q111 164 168 345.5t57 422.5z" />
    <glyph glyph-name="asterisk" unicode="*" horiz-adv-x="595" 
d="M123 1319l121 -100l-23 174h152l-23 -174l121 100l76 -127l-148 -62l148 -59l-76 -129l-121 100l23 -174h-152l23 174l-121 -100l-74 129l148 59l-148 62z" />
    <glyph glyph-name="plus" unicode="+" horiz-adv-x="665" 
d="M240 864h186v-198h172v-179h-172v-198h-186v198h-172v179h172v198z" />
    <glyph glyph-name="comma" unicode="," horiz-adv-x="382" 
d="M246 256q14 -12 41 -37q39 -36 39 -96q0 -32 -10.5 -59.5t-34.5 -71.5l-101 -189h-104l59 199q-78 42 -78 121q0 58 40 95.5t96 37.5h53z" />
    <glyph glyph-name="hyphen" unicode="-" horiz-adv-x="448" 
d="M389 528v-180h-330v180h330z" />
    <glyph glyph-name="period" unicode="." horiz-adv-x="382" 
d="M246 256q14 -12 41 -37q39 -36 39 -96t-39 -96q-40 -37 -94 -37q-56 0 -96 37.5t-40 95.5t40 95.5t96 37.5h53z" />
    <glyph glyph-name="slash" unicode="/" horiz-adv-x="692" 
d="M195 -262h-199l444 1716h199z" />
    <glyph glyph-name="zero" unicode="0" horiz-adv-x="923" 
d="M553 1165q27 -12 78 -37q116 -59 183 -195t67 -337v-41q0 -268 -116.5 -419.5t-301.5 -151.5q-189 0 -304.5 151t-115.5 420v41q0 269 115.5 419t304.5 150h90zM559 170q18 31 53 94q54 97 54 297v29q0 200 -54 297q-53 92 -149 92q-205 0 -205 -389v-29q0 -391 205 -391
h96z" />
    <glyph glyph-name="one" unicode="1" horiz-adv-x="487" 
d="M168 0v971h-131v178h340v-1149h-209z" />
    <glyph glyph-name="two" unicode="2" horiz-adv-x="751" 
d="M233 1165h119q148 0 238 -84q88 -85 88 -229v-23q0 -94 -41.5 -190.5t-138.5 -241.5l-148 -221h338v-176h-676v14l322 488q70 106 100.5 176.5t30.5 140.5v19q0 71 -34 107t-91 36q-51 0 -81.5 -26.5t-65.5 -82.5l-154 111q48 88 194 182z" />
    <glyph glyph-name="three" unicode="3" horiz-adv-x="745" 
d="M492 381v8q0 106 -52 158q-51 51 -129 51q-60 0 -116 -29l-13 19l215 383h-313v178h614v-14l-239 -400q109 -18 177.5 -108t68.5 -238v-12q0 -182 -98.5 -287.5t-276.5 -105.5q-194 0 -303 118l116 140q78 -78 179 -78q79 0 124.5 57t45.5 160z" />
    <glyph glyph-name="four" unicode="4" horiz-adv-x="825" 
d="M674 176v-176h-201v176h-436v150l616 843h21v-825h112v-168h-112zM256 344h217v229q0 27 2 41q0 31 2 45q-13 -18 -26 -41q-8 -11 -26 -36t-26 -37z" />
    <glyph glyph-name="five" unicode="5" horiz-adv-x="733" 
d="M479 369v10q0 100 -51 151q-52 52 -131 52q-122 0 -195 -80l-14 8v639h539v-178h-363v-238q38 17 103 17q66 0 124.5 -24t104 -69t72 -117.5t26.5 -162.5v-12q0 -173 -104 -277t-277 -104q-180 0 -301 127l125 131q40 -40 78 -59t90 -19q77 0 125.5 52.5t48.5 152.5z" />
    <glyph glyph-name="six" unicode="6" horiz-adv-x="790" 
d="M694 133q-14 -16 -45 -47q-97 -102 -254 -102q-154 0 -253 103t-99 267v21q0 158 115 348l258 426h227l-186 -305q-33 -55 -56 -82l-20 -25q18 6 49 6q140 0 229 -100t89 -262v-27q0 -79 -54 -221zM465 158q12 18 37 57q37 55 37 141v25q0 85 -37 143q-38 56 -107 56
q-71 0 -108 -53t-37 -146v-25q0 -88 38.5 -143t106.5 -55h70z" />
    <glyph glyph-name="seven" unicode="7" horiz-adv-x="733" 
d="M104 0l345 971h-406v178h670v-12l-396 -1137h-213z" />
    <glyph glyph-name="eight" unicode="8" horiz-adv-x="808" 
d="M338 1165h65q131 0 217.5 -81t86.5 -199v-19q0 -128 -107 -213q176 -83 176 -293v-28q0 -151 -101.5 -249.5t-271.5 -98.5q-167 0 -268.5 100.5t-101.5 247.5v28q0 211 174 293q-107 85 -107 213v19q0 118 86 198q37 37 152 82zM563 350v23q0 90 -43.5 142t-116.5 52
q-70 0 -114.5 -52.5t-44.5 -141.5v-23q0 -92 43 -143t116 -51q72 0 117 51q43 52 43 143zM516 852v16q0 59 -31.5 95t-81.5 36q-48 0 -79 -36t-31 -95v-16q0 -60 31.5 -99.5t78.5 -39.5q49 0 81 39.5t32 99.5z" />
    <glyph glyph-name="nine" unicode="9" horiz-adv-x="790" 
d="M700 524l-49 -98l-215 -426h-227l153 303q56 103 66 113q-19 -8 -63 -8q-142 0 -232 97.5t-90 258.5v27q0 167 98.5 270.5t253.5 103.5q154 0 253.5 -103t99.5 -267v-21q0 -81 -48 -250zM467 569q12 19 37 56q37 52 37 143v25q0 85 -37 143q-40 55 -109 55
q-67 0 -105 -54.5t-38 -143.5v-25q0 -89 38 -144t105 -55h72z" />
    <glyph glyph-name="colon" unicode=":" horiz-adv-x="401" 
d="M254 670q14 -12 41 -37q39 -36 39 -96q0 -59 -39 -96.5t-94 -37.5t-94 37.5t-39 96.5t39 96t94 37h53zM147 256h54q55 0 94 -37t39 -96t-39 -96t-94 -37t-94 37t-39 96q0 60 79 133z" />
    <glyph glyph-name="semicolon" unicode=";" horiz-adv-x="401" 
d="M309 29q-6 -12 -20 -37l-101 -189h-104l59 199q-75 40 -75 121q0 59 39 96t94 37t94 -37t39 -96q0 -33 -25 -94zM147 670h54q55 0 94 -37t39 -96t-39 -96.5t-94 -37.5t-94 37.5t-39 96.5q0 60 79 133z" />
    <glyph glyph-name="less" unicode="&#x3c;" horiz-adv-x="571" 
d="M502 215l-451 307v21l451 303v-195l-187 -121l187 -120v-195z" />
    <glyph glyph-name="equal" unicode="=" horiz-adv-x="612" 
d="M68 600v178h477v-178h-477zM68 313v179h477v-179h-477z" />
    <glyph glyph-name="greater" unicode="&#x3e;" horiz-adv-x="571" 
d="M520 518l-450 -303v195l186 120l-186 121v195l450 -307v-21z" />
    <glyph glyph-name="question" unicode="?" horiz-adv-x="716" 
d="M666 868q-23 -31 -66 -92q-70 -94 -197 -121v-245h-188v403h45q83 0 137 51t54 146v20q0 90 -41.5 141.5t-124.5 51.5q-89 0 -160 -68l-113 152q117 102 291 102q164 0 263.5 -99.5t99.5 -275.5v-24v-142zM360 256q14 -12 41 -37q39 -36 39 -96q0 -59 -39 -96t-94 -37
q-56 0 -95.5 37.5t-39.5 95.5t39.5 95.5t95.5 37.5h53z" />
    <glyph glyph-name="at" unicode="@" horiz-adv-x="1224" 
d="M1178 410v-25q0 -199 -64 -297q-63 -100 -184 -100q-76 0 -120.5 29.5t-68.5 91.5q-59 -125 -182 -125q-95 0 -162 84t-67 245v27q0 163 63.5 247.5t153.5 84.5q86 0 137 -80v61h197v-442q0 -43 13 -61.5t40 -18.5q43 0 67.5 65t24.5 191v21q0 229 -109 342.5t-290 113.5
q-88 0 -165 -32.5t-135.5 -94t-92 -159t-33.5 -220.5v-20q0 -247 110 -379.5t297 -132.5q110 0 219 53l64 -127q-72 -34 -133 -49.5t-142 -15.5q-120 0 -223.5 42.5t-180.5 122.5t-121 203.5t-44 276.5v24q0 152 46.5 276.5t126.5 205t184 123.5t221 43q115 0 214.5 -38
t175.5 -110.5t119.5 -187t43.5 -258.5zM530 229q7 -12 19 -39q18 -40 63 -40q41 0 58.5 39t17.5 126v25q0 86 -17.5 125t-58.5 39q-44 0 -63 -39t-19 -125v-25v-86z" />
    <glyph glyph-name="A" unicode="A" horiz-adv-x="1001" 
d="M487 1405h27l465 -1405h-225l-54 174h-411l-53 -174h-213zM498 866v6q-3 -3 -6 -24q-5 -19 -22 -83t-26 -95l-100 -318h301l-96 318q-31 106 -51 196z" />
    <glyph glyph-name="B" unicode="B" horiz-adv-x="962" 
d="M745 805q-26 -12 -77 -35q110 -32 177.5 -120.5t67.5 -219.5v-27q0 -187 -117.5 -295t-334.5 -108h-350v1393h331q179 0 284 -93.5t105 -248.5v-19q0 -97 -86 -227zM698 307v109v18q0 111 -62.5 174.5t-182.5 63.5h-134v-488h136q123 0 243 123zM319 1208v-364h123
q181 0 181 176v12q0 87 -48 131.5t-139 44.5h-117z" />
    <glyph glyph-name="C" unicode="C" horiz-adv-x="919" 
d="M481 1409h129q83 0 144 -20q42 -14 108 -52l-88 -172q-43 25 -78 37t-84 12q-159 0 -246 -132.5t-87 -372.5v-25q0 -244 85.5 -377t249.5 -133q84 0 179 57l88 -168q-117 -81 -287 -81q-250 0 -392.5 185t-142.5 511v37q0 323 148 510q73 92 274 184z" />
    <glyph glyph-name="D" unicode="D" horiz-adv-x="1044" 
d="M907 274q-25 -29 -76 -88q-80 -92 -184 -137q-107 -49 -244 -49h-292v1393h292q269 0 426.5 -183t157.5 -497v-33q0 -155 -80 -406zM569 188q33 43 99 131q98 131 98 367v21q0 497 -375 497h-65v-1016h65h178z" />
    <glyph glyph-name="E" unicode="E" horiz-adv-x="860" 
d="M111 1393h665v-189h-452v-567h381v-188h-381v-261h469v-188h-682v1393z" />
    <glyph glyph-name="F" unicode="F" horiz-adv-x="813" 
d="M326 637h374v-188h-374v-449h-215v1393h647v-189h-432v-567z" />
    <glyph glyph-name="G" unicode="G" horiz-adv-x="1032" 
d="M653 170q14 4 41 10q29 6 70 27v242h-221v188h413v-551q-54 -39 -144.5 -71.5t-186.5 -32.5q-277 0 -421.5 182.5t-144.5 507.5v49q0 313 143 500.5t404 187.5q182 0 299 -80l-94 -174q-97 59 -199 59q-163 0 -248 -131.5t-85 -367.5v-37q0 -241 82 -374.5t249 -133.5h43
z" />
    <glyph glyph-name="H" unicode="H" horiz-adv-x="1062" 
d="M737 637v756h215v-1393h-215v449h-411v-449h-215v1393h215v-756h411z" />
    <glyph glyph-name="I" unicode="I" horiz-adv-x="448" 
d="M332 1393v-1393h-215v1393h215z" />
    <glyph glyph-name="J" unicode="J" horiz-adv-x="765" 
d="M657 1393v-1047q0 -180 -90 -270q-92 -92 -252 -92q-195 0 -303 131l138 139q34 -38 68 -58t81 -20q143 0 143 178v1039h215z" />
    <glyph glyph-name="K" unicode="K" horiz-adv-x="972" 
d="M324 662l376 731h224l-357 -697l389 -696h-241l-287 508l-104 -166v-342h-213v1393h213v-731z" />
    <glyph glyph-name="L" unicode="L" horiz-adv-x="813" 
d="M111 0v1393h215v-1205h434v-188h-649z" />
    <glyph glyph-name="M" unicode="M" horiz-adv-x="1181" 
d="M868 823v17q0 -4 -8 -15q-10 -14 -39 -58.5t-43 -64.5l-180 -249h-18l-179 249q-17 22 -38 54.5t-35 55.5t-15 24l2 -17v-41q0 -16 1 -53t1 -53v-672h-206v1405h26l457 -653l450 653h27v-1405h-207v672q0 118 4 151z" />
    <glyph glyph-name="N" unicode="N" horiz-adv-x="1030" 
d="M700 586q5 -7 11 -17q10 -20 12 -22q0 1 -0.5 15t-1.5 35.5t-2 47t-1.5 53.5t-0.5 50v645h203v-1405h-27l-485 690q-15 18 -33.5 45.5t-31.5 48.5t-25 40l-11 19l2 -20q0 -17 2 -82t2 -94v-635h-202v1405h26l486 -698q22 -37 77 -121z" />
    <glyph glyph-name="O" unicode="O" horiz-adv-x="1126" 
d="M676 1409q31 -14 92 -45q93 -47 160 -135q139 -191 139 -514v-37q0 -327 -138 -511.5t-366 -184.5t-366 184.5t-138 511.5v37q0 326 138 510t366 184h113zM846 684v25q0 247 -75.5 377.5t-207.5 130.5t-208 -130.5t-76 -377.5v-25q0 -247 76 -377.5t208 -130.5
t207.5 130.5t75.5 377.5z" />
    <glyph glyph-name="P" unicode="P" horiz-adv-x="933" 
d="M811 541q-23 -23 -66 -68q-67 -67 -159 -102q-93 -37 -209 -37h-51v-334h-215v1393h266q229 0 367.5 -137.5t138.5 -378.5v-21q0 -117 -72 -315zM668 856v16q0 160 -72 246t-221 86h-49v-682h49q147 0 220 89.5t73 244.5z" />
    <glyph glyph-name="Q" unicode="Q" horiz-adv-x="1126" 
d="M1010 295q-19 -29 -54 -86q-52 -87 -127 -141q-80 -55 -167 -72v-234h-197v234q-189 37 -297.5 214t-108.5 468v37q0 326 138 510t366 184t366 -184t138 -510v-37q0 -152 -57 -383zM846 684v25q0 253 -76 381q-77 127 -207 127q-132 0 -208 -130.5t-76 -377.5v-25
q0 -205 48.5 -330.5t137.5 -167.5v211h197v-211q88 42 136 167.5t48 330.5z" />
    <glyph glyph-name="R" unicode="R" horiz-adv-x="950" 
d="M678 420l229 -420h-231l-187 348q-44 -8 -98 -8h-65v-340h-215v1393h280q228 0 365 -137.5t137 -378.5v-21q0 -148 -57 -259.5t-158 -176.5zM539 518q22 31 69 94q70 94 70 244v16q0 159 -71.5 245.5t-217.5 86.5h-63v-686h63h150z" />
    <glyph glyph-name="S" unicode="S" horiz-adv-x="819" 
d="M713 1321l-103 -164q-38 27 -78 45q-46 19 -104 19q-63 0 -106 -37.5t-43 -96.5v-10q0 -63 31 -109t108 -110l139 -117q108 -90 157.5 -175.5t49.5 -196.5v-21q0 -162 -106 -264t-293 -102q-219 0 -355 139l127 151q50 -47 101.5 -73.5t119.5 -26.5q88 0 140.5 47
t52.5 125v16q0 61 -31.5 111.5t-109.5 116.5l-136 114q-105 92 -153.5 172.5t-48.5 194.5v14q0 145 97.5 235.5t252.5 90.5q94 0 160 -21.5t131 -66.5z" />
    <glyph glyph-name="T" unicode="T" horiz-adv-x="866" 
d="M41 1204v189h784v-189h-284v-1204h-215v1204h-285z" />
    <glyph glyph-name="U" unicode="U" horiz-adv-x="1032" 
d="M758 35q-25 -9 -76 -27q-74 -26 -166 -26q-187 0 -299.5 109.5t-112.5 318.5v983h215v-979q0 -116 50 -176t147 -60t147 60t50 176v979h215v-983q0 -107 -31 -189q-28 -75 -139 -186z" />
    <glyph glyph-name="V" unicode="V" horiz-adv-x="995" 
d="M492 580q4 -14 12 -45q4 19 22 90q33 120 47 163l197 605h209l-463 -1403h-29l-471 1403h220l198 -605q18 -57 47 -163z" />
    <glyph glyph-name="W" unicode="W" horiz-adv-x="1374" 
d="M967 -10l-207 651q-2 9 -10 33t-11 39q-45 137 -45 157q0 -3 -10.5 -40.5t-26.5 -92t-30 -96.5l-219 -651h-27l-358 1403h215l141 -557q8 -38 22.5 -101.5t23.5 -104.5t9 -46q0 4 10 45t27.5 104t32.5 109l180 565h23l180 -565q7 -23 47 -168q4 -19 22 -90q3 13 5.5 27.5
t6 32t5.5 28.5q23 114 37 164l137 557h205l-359 -1403h-26z" />
    <glyph glyph-name="X" unicode="X" horiz-adv-x="1003" 
d="M518 932q4 11 10 31q3 9 11 30.5t12 32.5q11 31 24 64l117 303h219l-278 -645l338 -748h-230l-166 383q-17 39 -35 87.5t-29 81t-13 36.5q0 -2 -11.5 -33.5t-30.5 -81t-36 -88.5l-168 -385h-219l338 745l-283 648h227l117 -303q14 -35 31 -83.5t28 -80t13 -35.5
q0 3 14 41z" />
    <glyph glyph-name="Y" unicode="Y" horiz-adv-x="968" 
d="M506 700q4 12 10 35q7 26 21 74q5 24 22 72l182 512h211l-358 -963v-430h-215v428l-363 965h220l186 -512q9 -24 19.5 -54.5t18.5 -60t15 -53.5t12 -43t5 -21q0 5 14 51z" />
    <glyph glyph-name="Z" unicode="Z" horiz-adv-x="874" 
d="M326 188h489v-188h-795v16l510 1188h-428v189h734v-17z" />
    <glyph glyph-name="bracketleft" unicode="[" horiz-adv-x="532" 
d="M117 -262v1716h360v-174h-158v-1368h158v-174h-360z" />
    <glyph glyph-name="backslash" unicode="\" horiz-adv-x="692" 
d="M498 -262l-445 1716h199l444 -1716h-198z" />
    <glyph glyph-name="bracketright" unicode="]" horiz-adv-x="532" 
d="M55 1280v174h361v-1716h-361v174h158v1368h-158z" />
    <glyph glyph-name="asciicircum" unicode="^" horiz-adv-x="661" 
d="M330 1114l-94 -176h-179l265 481h18l264 -481h-180z" />
    <glyph glyph-name="underscore" unicode="_" horiz-adv-x="466" 
d="M473 -84v-178h-479v178h479z" />
    <glyph glyph-name="grave" unicode="`" 
d="M264 834l-131 290h223l64 -290h-156z" />
    <glyph glyph-name="a" unicode="a" horiz-adv-x="622" 
d="M219 745h84q262 0 262 -266v-479h-198v59q-53 -77 -142 -77t-142.5 58.5t-53.5 170.5v10q0 105 68 162t190 57h80v37q0 98 -95 98q-78 0 -133 -49l-94 138q46 40 174 81zM324 137q8 9 22 25q21 21 21 71v68h-70q-74 0 -74 -78v-8q0 -78 66 -78h35z" />
    <glyph glyph-name="b" unicode="b" horiz-adv-x="724" 
d="M645 115q-12 -14 -35 -45q-36 -44 -84 -66q-49 -22 -96 -22q-111 0 -170 92v-74h-199v1436h199v-781q53 90 172 90q108 0 182 -94t74 -276v-23q0 -98 -43 -237zM483 354v19q0 95 -28 149q-29 51 -86 51q-54 0 -83.5 -52t-29.5 -148v-19q0 -96 29.5 -148t83.5 -52
q55 0 84.5 51.5t29.5 148.5z" />
    <glyph glyph-name="c" unicode="c" horiz-adv-x="559" 
d="M514 8q-14 -4 -43 -14q-47 -12 -104 -12q-158 0 -244 97.5t-86 272.5v23q0 171 89 270.5t232 99.5q107 0 181 -49l-78 -153q-43 24 -84 24q-59 0 -97 -49.5t-38 -142.5v-21q0 -95 37 -144.5t104 -49.5q45 0 88 26l68 -159z" />
    <glyph glyph-name="d" unicode="d" horiz-adv-x="724" 
d="M465 0v74q-57 -92 -170 -92q-109 0 -183.5 94t-74.5 276v23q0 182 74 276t182 94q120 0 172 -88v779h199v-1436h-199zM410 154q10 18 30 53q29 56 29 147v19q0 93 -29 149q-29 51 -84 51t-84.5 -51.5t-29.5 -148.5v-19q0 -97 29.5 -148.5t84.5 -51.5h54z" />
    <glyph glyph-name="e" unicode="e" 
d="M207 745h141q148 0 221 -102q72 -107 72 -272v-78h-397q15 -137 141 -137q71 0 145 43l78 -156q-92 -61 -225 -61q-170 0 -258 97.5t-88 274.5v19q0 172 170 372zM242 436h198q-9 146 -92 146q-91 0 -106 -146z" />
    <glyph glyph-name="f" unicode="f" horiz-adv-x="464" 
d="M295 1208v-481h141v-162h-141v-565h-199v565h-69v162h69v479q0 132 62 198t170 66q98 0 145 -40l-67 -148q-23 18 -54 18q-57 0 -57 -92z" />
    <glyph glyph-name="g" unicode="g" horiz-adv-x="653" 
d="M272 745h47q57 0 107 -18h195v-139h-66q33 -57 33 -113v-12q0 -88 -42 -151.5t-101.5 -91t-125.5 -27.5q-42 0 -69 8q-25 -16 -25 -39q0 -25 24.5 -38.5t92.5 -23.5q149 -20 219 -84t70 -184v-8q0 -122 -82 -194t-223 -72q-135 0 -220.5 66t-85.5 171v8q0 127 121 179
q-40 19 -60 56t-20 81q0 89 89 133q-97 82 -97 211v12q0 132 86 205q34 29 133 65zM438 -129q-9 9 -32 27q-33 26 -93 26q-50 0 -81 -26.5t-31 -73.5v-6q0 -47 34 -75t89 -28q51 0 82.5 28t31.5 75v6v47zM238 399l26 -26q26 -29 58 -29q34 0 57.5 29.5t23.5 91.5v8
q0 62 -23.5 91.5t-57.5 29.5q-36 0 -60 -29.5t-24 -91.5v-8v-66z" />
    <glyph glyph-name="h" unicode="h" horiz-adv-x="690" 
d="M438 0v471q0 46 -22 68q-25 22 -60 22q-46 0 -72 -26t-26 -78v-457h-199v1436h199v-791q57 100 178 100q90 0 145.5 -64t55.5 -187v-494h-199z" />
    <glyph glyph-name="i" unicode="i" horiz-adv-x="321" 
d="M61 727h199v-727h-199v727zM274 1051v-52q0 -49 -32 -81q-33 -33 -82 -33q-46 0 -80.5 33t-34.5 81q0 49 34.5 82t80.5 33q48 0 114 -63z" />
    <glyph glyph-name="j" unicode="j" horiz-adv-x="321" 
d="M61 -227v34v920h199v-924q0 -117 -57.5 -179t-167.5 -62q-84 0 -127 26l49 162q20 -12 47 -12q22 0 57 35zM207 885h-47q-46 0 -80.5 33t-34.5 81q0 49 34.5 82t80.5 33q48 0 81 -32.5t33 -82.5t-67 -114z" />
    <glyph glyph-name="k" unicode="k" horiz-adv-x="657" 
d="M420 727h217l-205 -289l225 -438h-223l-131 258l-45 -65v-193h-199v1436h199v-963z" />
    <glyph glyph-name="l" unicode="l" horiz-adv-x="321" 
d="M260 1436v-1436h-199v1436h199z" />
    <glyph glyph-name="m" unicode="m" horiz-adv-x="1028" 
d="M616 561v-100v-461h-198v475q0 86 -74 86q-86 0 -86 -100v-461h-199v727h199v-80q58 98 168 98q108 0 154 -104q68 104 194 104q90 0 145.5 -63.5t55.5 -183.5v-498h-199v475q0 86 -71 86h-89z" />
    <glyph glyph-name="n" unicode="n" horiz-adv-x="688" 
d="M438 0v471q0 46 -22 68q-25 22 -60 22q-46 0 -72 -26t-26 -78v-457h-199v727h199v-82q57 100 178 100q90 0 145.5 -64t55.5 -187v-494h-199z" />
    <glyph glyph-name="o" unicode="o" horiz-adv-x="710" 
d="M213 745h143q145 0 232 -96q86 -100 86 -272v-27q0 -172 -85.5 -270t-232.5 -98q-144 0 -231.5 98.5t-87.5 269.5v27q0 174 176 368zM467 477q-11 16 -29 49q-30 49 -84 49q-112 0 -112 -198v-25q0 -200 112 -200q55 0 84 51q29 53 29 149v25v100z" />
    <glyph glyph-name="p" unicode="p" horiz-adv-x="724" 
d="M645 115q-12 -14 -35 -45q-36 -44 -84 -66q-49 -22 -96 -22q-111 0 -170 92v-494h-199v1147h199v-72q53 90 172 90q108 0 182 -94t74 -276v-23q0 -98 -43 -237zM424 154q11 18 31 53q28 54 28 147v19q0 97 -29.5 148.5t-84.5 51.5q-54 0 -83.5 -52t-29.5 -148v-19
q0 -96 29.5 -148t83.5 -52h55z" />
    <glyph glyph-name="q" unicode="q" horiz-adv-x="724" 
d="M465 -420v494q-57 -92 -170 -92q-109 0 -183.5 94t-74.5 276v23q0 182 74 276t182 94q120 0 172 -88v70h199v-1147h-199zM410 154q10 18 30 53q29 56 29 147v19q0 93 -29 149q-29 51 -84 51t-84.5 -51.5t-29.5 -148.5v-19q0 -97 29.5 -148.5t84.5 -51.5h54z" />
    <glyph glyph-name="r" unicode="r" horiz-adv-x="489" 
d="M283 690q12 9 39 27q40 24 84 24q42 0 75 -20l-47 -178q-46 12 -59 12q-55 0 -86 -36t-31 -126v-393h-199v727h199v-90z" />
    <glyph glyph-name="s" unicode="s" horiz-adv-x="534" 
d="M285 141q6 7 18 17q16 16 16 37v6q0 21 -20 38t-80 55l-24 15q-73 45 -110.5 96.5t-37.5 124.5v9q0 94 64 150t170 56q113 0 198 -63l-92 -129q-47 37 -100 37q-29 0 -45.5 -12.5t-16.5 -32.5v-4q0 -6 1 -12t4.5 -11.5t6.5 -9.5t10 -10t12 -9.5t16 -10.5t18 -11
t22.5 -12.5t24.5 -14.5q81 -48 124.5 -104t43.5 -131v-10q0 -95 -67.5 -154t-184.5 -59q-158 0 -242 96l105 125q58 -62 125 -62h41z" />
    <glyph glyph-name="t" unicode="t" horiz-adv-x="456" 
d="M424 565h-129v-346q0 -37 11.5 -52t35.5 -15q20 0 47 16l62 -143q-55 -41 -146 -41q-209 0 -209 235v346h-69v162h69v326h199v-326h129v-162z" />
    <glyph glyph-name="u" unicode="u" horiz-adv-x="690" 
d="M379 166l27 27q26 26 26 79v455h199v-727h-199v84q-58 -102 -178 -102q-90 0 -145.5 65t-55.5 189v491h199v-471q0 -42 23 -66t59 -24h45z" />
    <glyph glyph-name="v" unicode="v" horiz-adv-x="616" 
d="M326 406l6 -27q8 34 14 49q19 65 27 86l78 213h188l-303 -739h-23l-309 739h207l80 -213q4 -14 13 -43t13 -43z" />
    <glyph glyph-name="w" unicode="w" horiz-adv-x="876" 
d="M555 500q2 -7 8 -21q9 -32 12 -39q6 -14 15 -41q5 31 8 41q10 42 23 82l65 205h178l-235 -739h-21l-123 291q-26 57 -39 108l-4 -10q-24 -69 -36 -98l-125 -291h-21l-248 739h203l64 -205q3 -13 11 -40.5t11 -41.5q10 -35 12 -41q9 27 15 41q25 72 28 80l86 217h21
l84 -217z" />
    <glyph glyph-name="x" unicode="x" horiz-adv-x="677" 
d="M430 727h207l-184 -336l211 -391h-213l-119 240l-111 -240h-207l207 377l-184 350h213l92 -201z" />
    <glyph glyph-name="y" unicode="y" horiz-adv-x="649" 
d="M338 311v-2q0 1 0.5 3.5t1.5 7t2 8.5q4 12 15.5 57.5t17.5 67.5l86 274h184l-375 -1147h-186l162 494l-242 653h205l90 -274q8 -26 20.5 -74t18.5 -68z" />
    <glyph glyph-name="z" unicode="z" horiz-adv-x="567" 
d="M285 160h239v-160h-506v12l263 557h-220v158h484v-12z" />
    <glyph glyph-name="braceleft" unicode="{" horiz-adv-x="591" 
d="M393 1241v-47v-469q0 -148 -125 -174q125 -26 125 -174v-379q0 -86 76 -86h68v-174h-76q-42 0 -79.5 7.5t-73 26.5t-61.5 48t-41.5 74.5t-15.5 103.5v356q0 58 -24.5 83.5t-73.5 25.5h-57v174h57q49 0 73.5 25t24.5 83v449q0 58 15.5 103.5t41.5 74.5t61.5 48t73 26.5
t79.5 7.5h76v-174h-68q-37 0 -76 -39z" />
    <glyph glyph-name="bar" unicode="|" horiz-adv-x="438" 
d="M315 1454v-1716h-192v1716h192z" />
    <glyph glyph-name="braceright" unicode="}" horiz-adv-x="591" 
d="M401 354v-356q0 -70 -22 -125q-69 -135 -248 -135h-76v174h68q76 0 76 86v379q0 148 125 174q-125 26 -125 174v469q0 86 -76 86h-68v174h76q53 0 99 -13t85.5 -41.5t62.5 -81t23 -124.5v-449q0 -58 25 -83t74 -25h57v-174h-57q-49 0 -74 -25.5t-25 -83.5z" />
    <glyph glyph-name="asciitilde" unicode="~" horiz-adv-x="679" 
d="M406 406q-9 4 -25 10q-21 7 -61 27t-58 20q-14 0 -22 -2t-16 -13.5t-11 -33.5l-154 8q6 101 58.5 162t126.5 61q47 0 102.5 -28.5t71.5 -28.5q15 0 23 2t16 13.5t12 33.5l149 -8q-6 -100 -57.5 -161.5t-122.5 -61.5h-32z" />
    <glyph glyph-name="nbspace" unicode="&#xa0;" horiz-adv-x="372" 
 />
    <glyph glyph-name="exclamdown" unicode="&#xa1;" horiz-adv-x="444" 
d="M334 0h-221l20 983h180zM274 1403q14 -12 41 -37q41 -38 41 -96t-39.5 -95.5t-95.5 -37.5q-55 0 -94 37t-39 96t39 96t94 37h53z" />
    <glyph glyph-name="cent" unicode="&#xa2;" horiz-adv-x="559" 
d="M539 696l-78 -149q-6 3 -18.5 9t-18.5 9q-18 6 -47 6q-58 0 -96.5 -51.5t-38.5 -144.5v-21q0 -96 37 -147t104 -51q45 0 88 26l68 -155q-45 -30 -111 -41v-183h-188v199q-98 35 -150.5 125t-52.5 225v23q0 132 54.5 223t148.5 127v180h188v-166q60 -8 111 -43z" />
    <glyph glyph-name="sterling" unicode="&#xa3;" horiz-adv-x="864" 
d="M391 766q13 -72 29 -129h231v-164h-180q29 -107 29 -184v-6q0 -45 -8 -72q75 -47 145 -47q33 0 61 9t38 15.5t34 24.5l86 -156q-87 -73 -209 -73q-121 0 -225 86q-73 -86 -195 -86q-94 0 -151.5 46.5t-57.5 129.5q0 85 53.5 133.5t145.5 48.5q40 0 96 -18q-8 51 -43 149
h-153v164h94q-35 96 -35 188v17q0 144 91.5 231.5t252.5 87.5q95 0 160.5 -25t126.5 -83l-117 -146q-40 36 -74 53t-81 17q-66 0 -105 -41t-39 -113v-12v-45zM246 207h-23q-55 0 -55 -47q0 -20 15 -33.5t40 -13.5q62 0 86 57q-22 16 -63 37z" />
    <glyph glyph-name="currency" unicode="&#xa4;" horiz-adv-x="970" 
d="M598 934q20 -10 59 -33l154 182l154 -139l-177 -209q19 -62 19 -135q0 -60 -12 -113l170 -202l-154 -140l-137 162q-65 -41 -156 -41q-96 0 -160 43l-139 -164l-153 140l174 204q-13 57 -13 111q0 65 17 131l-178 213l153 139l154 -182q59 33 143 33h82zM571 434
q7 16 19 51q18 53 18 115q0 166 -90 166t-90 -166t90 -166h53z" />
    <glyph glyph-name="yen" unicode="&#xa5;" horiz-adv-x="876" 
d="M819 403v-143h-274v-260h-213v260h-275v143h271l-35 91h-236v143h179l-207 512h235l121 -356q7 -22 21 -70t20 -68q3 -11 10 -35.5t10 -39.5q3 14 10.5 39t10.5 36q6 20 20 68t21 70l123 356h217l-207 -512h178v-143h-235l-37 -91h272z" />
    <glyph glyph-name="brokenbar" unicode="&#xa6;" horiz-adv-x="438" 
d="M123 -262v725h192v-725h-192zM123 791v663h192v-663h-192z" />
    <glyph glyph-name="section" unicode="&#xa7;" horiz-adv-x="849" 
d="M520 977h-55q-63 0 -95 -28t-32 -75v-6q0 -43 24 -69.5t80 -63.5l172 -110q99 -64 146 -127.5t47 -149.5v-14q0 -74 -40.5 -133t-119.5 -90q82 -88 82 -195v-12q0 -131 -90.5 -212t-251.5 -81q-197 0 -326 123l119 153q49 -41 93.5 -64.5t99.5 -23.5q61 0 98 27t37 76v8
q0 14 -3 26.5t-12 24.5t-16 20t-24 20.5t-26.5 19t-32.5 21t-34 21.5l-137 91q-97 62 -138.5 125.5t-41.5 146.5v10q0 75 41 132t119 83q-84 84 -84 205v12q0 135 91 215t243 80q177 0 292 -100l-108 -158q-40 32 -117 72zM604 352q-8 11 -24 31q-28 28 -86 68l-164 104
q-84 -20 -84 -94v-6q0 -37 23.5 -66t82.5 -67l164 -107q88 21 88 92v6v39z" />
    <glyph glyph-name="dieresis" unicode="&#xa8;" 
d="M373 1006q12 9 35 32q36 31 75 31q44 0 77.5 -32.5t33.5 -78.5t-33.5 -78t-77.5 -32t-77 32t-33 78v48zM150 848l-33 33q-35 30 -35 77q0 46 33.5 78.5t77.5 32.5t77 -32.5t33 -78.5t-33 -78t-77 -32h-43z" />
    <glyph glyph-name="copyright" unicode="&#xa9;" horiz-adv-x="942" 
d="M383 995h88q87 0 164 -30q117 -48 188.5 -154.5t71.5 -243.5q0 -182 -124.5 -305t-299.5 -123q-115 0 -212.5 55t-154.5 154t-57 219q0 182 125 307q55 55 211 121zM399 223h72q141 0 238.5 98t97.5 246q0 149 -97.5 246.5t-238.5 97.5q-142 0 -239 -97.5t-97 -246.5
q0 -147 98 -245q47 -47 166 -99zM647 365q-16 -9 -51 -27q-52 -27 -123 -27q-106 0 -178 71t-72 183q0 115 72.5 186.5t179.5 71.5q124 0 189 -92l-103 -88q-37 43 -86 43q-45 0 -74.5 -34t-29.5 -87q0 -49 30 -82.5t74 -33.5q63 0 90 47l111 -84z" />
    <glyph glyph-name="ordfeminine" unicode="&#xaa;" horiz-adv-x="559" 
d="M197 1165h75q111 0 174 -57q62 -59 62 -182v-432h-178v55q-47 -72 -127 -72q-81 0 -129.5 53.5t-48.5 153.5v10q0 96 61.5 146.5t171.5 50.5h72v33q0 44 -22 62t-62 18q-68 0 -121 -43l-84 131q40 32 156 73zM291 618q6 7 20 21q19 22 19 66v61h-64q-65 0 -65 -70v-8
q0 -34 16 -52t43 -18h31z" />
    <glyph glyph-name="guillemotleft" unicode="&#xab;" horiz-adv-x="659" 
d="M141 106l-102 273v8l102 268h187l-103 -272l103 -277h-187zM434 106l-102 273v8l102 268h187l-103 -272l103 -277h-187z" />
    <glyph glyph-name="logicalnot" unicode="&#xac;" horiz-adv-x="733" 
d="M481 348h-422v180h615v-319h-193v139z" />
    <glyph glyph-name="uni00AD" unicode="&#xad;" horiz-adv-x="448" 
d="M59 528h330v-180h-330v180z" />
    <glyph glyph-name="registered" unicode="&#xae;" horiz-adv-x="595" 
d="M350 1411q16 -6 47 -18q50 -22 84 -54q76 -76 76 -184q0 -109 -76.5 -182.5t-183.5 -73.5t-182.5 73.5t-75.5 182.5t75.5 182.5t182.5 73.5h53zM385 950q18 19 57 58q56 56 56 147t-56 150q-58 55 -145 55q-88 0 -143.5 -56.5t-55.5 -148.5t55.5 -148.5t143.5 -56.5h88z
M369 1106l47 -86h-82l-37 67h-25v-67h-75v278h94q58 0 91.5 -30.5t33.5 -73.5q0 -58 -47 -88zM311 1149q5 4 15 10q12 9 12 31q0 24 -12 33q-13 8 -35 8h-19v-82h19h20z" />
    <glyph glyph-name="macron" unicode="&#xaf;" 
d="M510 1024v-147h-344v147h344z" />
    <glyph glyph-name="degree" unicode="&#xb0;" horiz-adv-x="577" 
d="M479 825q-10 -10 -30 -28q-66 -66 -160 -66t-160 64t-66 153q0 92 66 154.5t160 62.5t159.5 -62.5t65.5 -154.5q0 -45 -35 -123zM377 989q-9 9 -25 27q-23 26 -63 26q-38 0 -63 -26.5t-25 -67.5t25 -67.5t63 -26.5t63 26.5t25 67.5v41z" />
    <glyph glyph-name="plusminus" unicode="&#xb1;" horiz-adv-x="665" 
d="M426 717h172v-168h-172v-146h-186v146h-172v168h172v147h186v-147zM68 369h530v-148h-530v148z" />
    <glyph glyph-name="twosuperior" unicode="&#xb2;" horiz-adv-x="557" 
d="M193 1778h88q110 0 174 -58q65 -59 65 -161v-13q-1 -58 -26.5 -114.5t-87.5 -155.5l-48 -74h168v-180h-495v59l200 297q72 104 72 168v13q0 34 -29 34q-33 0 -77 -82l-164 113q42 73 160 154z" />
    <glyph glyph-name="threesuperior" unicode="&#xb3;" horiz-adv-x="563" 
d="M233 1196h23q57 0 57 88q0 42 -18 66t-53 24q-43 0 -82 -20l-23 16l92 217h-159v182h438v-16l-113 -242q57 -21 92 -71q45 -62 45 -156v-6q0 -124 -71 -195t-199 -71q-129 0 -242 106l130 144q31 -31 83 -66z" />
    <glyph glyph-name="acute" unicode="&#xb4;" 
d="M412 834h-156l63 290h224z" />
    <glyph glyph-name="mu" unicode="&#xb5;" horiz-adv-x="690" 
d="M307 166h35q39 0 66 27q24 27 24 79v455h199v-727h-199v84q-13 -38 -22 -51q-30 -51 -88 -51q-40 0 -60 14q-4 2 -10 8v-315h-199v1038h199v-457q0 -52 55 -104z" />
    <glyph glyph-name="paragraph" unicode="&#xb6;" horiz-adv-x="1003" 
d="M629 0h-168v676h-25q-177 0 -284 97t-107 255v12q0 159 106.5 256t284.5 97h457v-1393h-168v1223h-96v-1223zM408 846h34h19v377h-19q-78 0 -129 -43t-51 -142v-8q8 -88 34 -124.5t112 -59.5z" />
    <glyph glyph-name="periodcentered" unicode="&#xb7;" horiz-adv-x="382" 
d="M246 592q14 -12 41 -37q39 -36 39 -96q0 -61 -39 -97t-94 -36q-56 0 -96 37.5t-40 95.5t40 95.5t96 37.5h53z" />
    <glyph glyph-name="cedilla" unicode="&#xb8;" 
d="M385 -227v22v6q0 41 -51 41h-37v158h102v-72q111 -24 111 -131v-8q0 -69 -47 -107t-119 -38q-63 0 -106 26l45 97q18 -15 49 -15q23 0 53 21z" />
    <glyph glyph-name="onesuperior" unicode="&#xb9;" horiz-adv-x="346" 
d="M88 1010v565h-78v182h295v-747h-217z" />
    <glyph glyph-name="ordmasculine" unicode="&#xba;" horiz-adv-x="636" 
d="M606 651q-27 -29 -78 -86q-76 -88 -209 -88q-131 0 -208.5 88t-77.5 244v25q0 154 78 242.5t208 88.5q131 0 209 -88.5t78 -242.5v-25v-158zM272 631h47q48 0 74 45q27 44 27 135v23q0 178 -101 178q-48 0 -75 -44.5t-27 -133.5v-23q0 -92 55 -180z" />
    <glyph glyph-name="guillemotright" unicode="&#xbb;" horiz-adv-x="659" 
d="M225 106h-186l102 273l-102 276h186l103 -272v-8zM518 106h-186l102 273l-102 276h186l103 -272v-8z" />
    <glyph glyph-name="onequarter" unicode="&#xbc;" horiz-adv-x="1413" 
d="M1149 164v67q0 70 -72 70q-43 0 -82 -20l-22 16l92 168h-160v182h438v-16l-106 -195q53 -21 86 -63q45 -57 45 -142v-6q0 -111 -71.5 -178t-198.5 -67q-129 0 -242 106l129 143q65 -65 107 -65h57zM1059 1149l-592 -1149h-193l592 1149h193zM109 961h-78v182h295v-658
h-217v476z" />
    <glyph glyph-name="onehalf" unicode="&#xbd;" horiz-adv-x="1392" 
d="M1348 180v-180h-496v25l195 266q65 88 65 153v13q0 35 -29 35q-33 0 -77 -82l-164 112q88 154 248 154q110 0 174.5 -58.5t64.5 -160.5v-13q-3 -75 -45 -149q-32 -55 -74 -115h138zM274 0l592 1149h193l-592 -1149h-193zM31 1143h295v-658h-217v476h-78v182z" />
    <glyph glyph-name="threequarters" unicode="&#xbe;" horiz-adv-x="1474" 
d="M78 537q-16 14 -47 45l129 143q66 -66 106 -66q58 0 58 68q0 70 -72 70q-42 0 -82 -21l-23 17l93 168h-160v182h438v-17l-106 -194q52 -21 86 -64q45 -57 45 -141v-6q0 -111 -72 -178.5t-199 -67.5q-73 0 -194 62zM1362 0h-195v111h-278v137l450 530h23v-502h68v-165h-68
v-111zM588 0h-193l592 1149h193zM1178 367l-84 -91h84v91z" />
    <glyph glyph-name="questiondown" unicode="&#xbf;" horiz-adv-x="716" 
d="M657 45q-22 -11 -67 -31q-70 -30 -176 -30q-164 0 -263.5 99t-99.5 275v25q0 142 67 233.5t195 120.5v246h189v-403h-45q-83 0 -137 -51t-54 -146v-21q0 -90 41.5 -141t124.5 -51q89 0 160 68l113 -152zM463 1403q14 -12 41 -37q41 -38 41 -96t-39.5 -95.5t-95.5 -37.5
t-95 37t-39 96t39 96t95 37h53z" />
    <glyph glyph-name="Agrave" unicode="&#xc0;" horiz-adv-x="1001" 
d="M979 0h-225l-54 174h-411l-53 -174h-213l464 1405h27zM498 872q-2 -4 -10.5 -37.5t-21 -83t-22.5 -81.5l-100 -318h301l-96 318q-17 55 -34 122.5t-17 79.5zM559 1499h-156l-131 291h224z" />
    <glyph glyph-name="Aacute" unicode="&#xc1;" horiz-adv-x="1001" 
d="M979 0h-225l-54 174h-411l-53 -174h-213l464 1405h27zM498 872q-2 -4 -10.5 -37.5t-21 -83t-22.5 -81.5l-100 -318h301l-96 318q-17 55 -34 122.5t-17 79.5zM575 1499h-155l63 291h224z" />
    <glyph glyph-name="Acircumflex" unicode="&#xc2;" horiz-adv-x="1001" 
d="M979 0h-225l-54 174h-411l-53 -174h-213l464 1405h27zM504 844q-6 21 -6 28q-2 -4 -10.5 -37.5t-21 -83t-22.5 -81.5l-100 -318h301l-96 318q-34 115 -45 174zM729 1489h-166l-61 82l-64 -82h-162l220 309h14z" />
    <glyph glyph-name="Atilde" unicode="&#xc3;" horiz-adv-x="1001" 
d="M979 0h-225l-54 174h-411l-53 -174h-213l464 1405h27zM743 1708q-10 -102 -51 -155.5t-104 -53.5q-43 0 -88 25l-35 16q-13 8 -29 8q-18 0 -28.5 -11t-14.5 -42l-133 10q21 209 156 209q38 0 88 -24.5t63 -24.5q18 0 28.5 11t14.5 42zM516 793q-18 70 -18 79
q-2 -4 -10.5 -37.5t-21 -83t-22.5 -81.5l-100 -318h301l-96 318q-28 96 -33 123z" />
    <glyph glyph-name="Adieresis" unicode="&#xc4;" horiz-adv-x="1001" 
d="M754 0l-54 174h-411l-53 -174h-213l464 1405h27l465 -1405h-225zM532 731q-34 115 -34 141q-2 -4 -10.5 -37.5t-21 -83t-22.5 -81.5l-100 -318h301l-96 318q-5 15 -17 61zM569 1726q36 31 76 31q44 0 77.5 -32t33.5 -78t-33.5 -78.5t-77.5 -32.5t-77 32.5t-33 78.5
q0 45 34 79zM244 1647q0 46 33 78t77 32t77.5 -32t33.5 -78t-33.5 -78.5t-77.5 -32.5t-77 32.5t-33 78.5z" />
    <glyph glyph-name="Aring" unicode="&#xc5;" horiz-adv-x="1001" 
d="M600 1325q-18 -4 -55 -14l434 -1311h-225l-54 174h-411l-53 -174h-213l434 1311q-57 18 -93 61.5t-36 97.5q0 67 52.5 116.5t121.5 49.5t121.5 -49.5t52.5 -116.5q0 -57 -76 -145zM344 352h301l-96 318q-17 55 -34 122.5t-17 79.5q-2 -4 -10.5 -37.5t-21 -83t-22.5 -81.5
zM528 1407q7 6 19 16q16 16 16 47q0 30 -17 48t-44 18t-44.5 -18t-17.5 -48t17.5 -46.5t44.5 -16.5h26z" />
    <glyph glyph-name="AE" unicode="&#xc6;" horiz-adv-x="1402" 
d="M1319 1204h-453v-567h381v-188h-381v-261h469v-188h-682v174h-348l-82 -174h-213l670 1393h639v-189zM578 754q-7 -14 -21 -45l-168 -357h264l2 336q0 37 1 78.5t2.5 75.5t2.5 62.5t2 46t1 18.5q0 -1 -4 -11.5t-12.5 -32t-16.5 -42.5q-38 -96 -53 -129z" />
    <glyph glyph-name="Ccedilla" unicode="&#xc7;" horiz-adv-x="919" 
d="M481 1409h129q83 0 144 -20q42 -14 108 -52l-88 -172q-43 25 -78 37t-84 12q-159 0 -246 -132.5t-87 -372.5v-25q0 -244 85.5 -377t249.5 -133q84 0 179 57l88 -168q-117 -81 -287 -81h-21q-16 0 -22 2v-56q111 -24 111 -131v-8q0 -69 -47 -107t-119 -38q-64 0 -107 26
l45 97q18 -15 49 -15q54 0 54 43v6q0 41 -52 41h-36v158q-187 51 -288.5 226.5t-101.5 451.5v37q0 323 148 510q73 92 274 184z" />
    <glyph glyph-name="Egrave" unicode="&#xc8;" horiz-adv-x="860" 
d="M776 1204h-452v-567h381v-188h-381v-261h469v-188h-682v1393h665v-189zM451 1790l63 -291h-156l-131 291h224z" />
    <glyph glyph-name="Eacute" unicode="&#xc9;" horiz-adv-x="860" 
d="M776 1204h-452v-567h381v-188h-381v-261h469v-188h-682v1393h665v-189zM377 1499l63 291h224l-132 -291h-155z" />
    <glyph glyph-name="Ecircumflex" unicode="&#xca;" horiz-adv-x="860" 
d="M705 637v-188h-381v-261h469v-188h-682v1393h665v-189h-452v-567h381zM393 1489h-162l220 309h14l219 -309h-166l-61 82z" />
    <glyph glyph-name="Edieresis" unicode="&#xcb;" horiz-adv-x="860" 
d="M705 449h-381v-261h469v-188h-682v1393h665v-189h-452v-567h381v-188zM201 1624q0 46 33 78.5t77 32.5t77.5 -32.5t33.5 -78.5t-33.5 -78.5t-77.5 -32.5t-77 32.5t-33 78.5zM602 1735q44 0 77.5 -32.5t33.5 -78.5t-33.5 -78.5t-77.5 -32.5t-77 32.5t-33 78.5t33 78.5
t77 32.5z" />
    <glyph glyph-name="Igrave" unicode="&#xcc;" horiz-adv-x="448" 
d="M117 1393h215v-1393h-215v1393zM127 1499l-131 291h223l64 -291h-156z" />
    <glyph glyph-name="Iacute" unicode="&#xcd;" horiz-adv-x="448" 
d="M332 1393v-1393h-215v1393h215zM143 1499l64 291h223l-131 -291h-156z" />
    <glyph glyph-name="Icircumflex" unicode="&#xce;" horiz-adv-x="448" 
d="M332 0h-215v1393h215v-1393zM287 1489l-62 82l-63 -82h-162l219 309h14l220 -309h-166z" />
    <glyph glyph-name="Idieresis" unicode="&#xcf;" horiz-adv-x="448" 
d="M332 0h-215v1393h215v-1393zM4 1704q36 31 76 31q44 0 77 -32.5t33 -78.5t-33 -78.5t-77 -32.5t-77.5 32.5t-33.5 78.5q0 45 35 80zM260 1624q0 46 33.5 78.5t77.5 32.5t77 -32.5t33 -78.5t-33 -78.5t-77 -32.5t-77.5 32.5t-33.5 78.5z" />
    <glyph glyph-name="Eth" unicode="&#xd0;" horiz-adv-x="1044" 
d="M907 274q-25 -29 -76 -88q-80 -92 -184 -137q-107 -49 -244 -49h-292v449h-91v188h91v756h292q269 0 426.5 -183t157.5 -497v-33q0 -155 -80 -406zM569 188q33 43 99 131q98 131 98 367v21q0 497 -375 497h-65v-567h243v-188h-243v-261h65h178z" />
    <glyph glyph-name="Ntilde" unicode="&#xd1;" horiz-adv-x="1030" 
d="M655 657q13 -21 29.5 -48t26.5 -43t12 -19q0 1 -0.5 15t-1.5 35.5t-2 47t-1.5 53.5t-0.5 50v645h203v-1405h-27l-485 690q-15 18 -33.5 45.5t-31.5 48.5t-25 40l-11 19l2 -20q0 -17 2 -82t2 -94v-635h-202v1405h26l486 -698q5 -8 16 -25t16 -25zM606 1718l133 -10
q-10 -102 -51 -155.5t-104 -53.5q-43 0 -88 25l-35 16q-13 8 -29 8q-18 0 -28.5 -11t-14.5 -42l-133 10q21 209 156 209q38 0 88 -24.5t63 -24.5q18 0 28.5 11t14.5 42z" />
    <glyph glyph-name="Ograve" unicode="&#xd2;" horiz-adv-x="1126" 
d="M768 29q-92 -47 -205 -47q-228 0 -366 184.5t-138 511.5v37q0 326 138 510t366 184t366 -184t138 -510v-37q0 -244 -79.5 -412t-219.5 -237zM846 684v25q0 247 -75.5 377.5t-207.5 130.5t-208 -130.5t-76 -377.5v-25q0 -247 76 -377.5t208 -130.5t207.5 130.5t75.5 377.5
zM555 1790l63 -291h-155l-131 291h223z" />
    <glyph glyph-name="Oacute" unicode="&#xd3;" horiz-adv-x="1126" 
d="M928 1229q139 -191 139 -514v-37q0 -327 -138 -511.5t-366 -184.5t-366 184.5t-138 511.5v37q0 326 138 510t366 184q227 0 365 -180zM846 684v25q0 247 -75.5 377.5t-207.5 130.5t-208 -130.5t-76 -377.5v-25q0 -247 76 -377.5t208 -130.5t207.5 130.5t75.5 377.5z
M479 1499l64 291h223l-131 -291h-156z" />
    <glyph glyph-name="Ocircumflex" unicode="&#xd4;" horiz-adv-x="1126" 
d="M1030 383q-55 -194 -176.5 -297.5t-290.5 -103.5q-228 0 -366 184.5t-138 511.5v37q0 326 138 510t366 184t366 -184t138 -510v-37q0 -168 -37 -295zM846 684v25q0 247 -75.5 377.5t-207.5 130.5t-208 -130.5t-76 -377.5v-25q0 -247 76 -377.5t208 -130.5t207.5 130.5
t75.5 377.5zM788 1489h-165l-62 82l-63 -82h-162l219 309h14z" />
    <glyph glyph-name="Otilde" unicode="&#xd5;" horiz-adv-x="1126" 
d="M768 29q-92 -47 -205 -47q-228 0 -366 184.5t-138 511.5v37q0 326 138 510t366 184t366 -184t138 -510v-37q0 -244 -79.5 -412t-219.5 -237zM770 1090q-77 127 -207 127q-132 0 -208 -130.5t-76 -377.5v-25q0 -247 76 -377.5t208 -130.5t207.5 130.5t75.5 377.5v25
q0 253 -76 381zM627 1665q18 0 28.5 11t14.5 42l133 -10q-10 -102 -51.5 -155.5t-104.5 -53.5q-43 0 -88 25l-35 16q-13 8 -28 8q-18 0 -28.5 -11t-14.5 -42l-134 10q21 209 156 209q38 0 88.5 -24.5t63.5 -24.5z" />
    <glyph glyph-name="Odieresis" unicode="&#xd6;" horiz-adv-x="1126" 
d="M768 29q-92 -47 -205 -47q-228 0 -366 184.5t-138 511.5v37q0 326 138 510t366 184t366 -184t138 -510v-37q0 -244 -79.5 -412t-219.5 -237zM770 1090q-77 127 -207 127q-132 0 -208 -130.5t-76 -377.5v-25q0 -247 76 -377.5t208 -130.5t207.5 130.5t75.5 377.5v25
q0 253 -76 381zM307 1624q0 46 33.5 78.5t77.5 32.5t77 -32.5t33 -78.5t-33 -78.5t-77 -32.5t-77.5 32.5t-33.5 78.5zM709 1735q44 0 77 -32.5t33 -78.5t-33 -78.5t-77 -32.5t-77.5 32.5t-33.5 78.5t33.5 78.5t77.5 32.5z" />
    <glyph glyph-name="multiply" unicode="&#xd7;" horiz-adv-x="559" 
d="M281 645l143 152l104 -105l-147 -153l147 -156l-104 -104l-143 151l-146 -151l-104 104l147 156l-147 153l104 105z" />
    <glyph glyph-name="Oslash" unicode="&#xd8;" horiz-adv-x="1126" 
d="M993 252q-22 -29 -65 -88q-67 -88 -160 -135q-92 -47 -205 -47q-174 0 -293 104l-77 -123l-142 82l111 174q-103 179 -103 459v37q0 326 138 510t366 184q169 0 291 -104l80 122l141 -81l-112 -175q104 -181 104 -456v-37q0 -163 -74 -426zM279 961v-252v-25
q0 -147 22 -246l442 692q-69 87 -180 87q-127 0 -284 -256zM692 176q27 43 78 129q76 125 76 379v25q0 133 -25 239l-438 -688q69 -84 180 -84h129z" />
    <glyph glyph-name="Ugrave" unicode="&#xd9;" horiz-adv-x="1032" 
d="M664 240q49 58 49 174v979h215v-983q0 -209 -112.5 -318.5t-299.5 -109.5t-299.5 109.5t-112.5 318.5v983h215v-979q0 -116 50 -176t147 -60q95 0 148 62zM287 1790h223l63 -291h-155z" />
    <glyph glyph-name="Uacute" unicode="&#xda;" horiz-adv-x="1032" 
d="M516 -18q-187 0 -299.5 109.5t-112.5 318.5v983h215v-979q0 -116 50 -176t147 -60t147 60t50 176v979h215v-983q0 -209 -112.5 -318.5t-299.5 -109.5zM590 1499h-156l64 291h223z" />
    <glyph glyph-name="Ucircumflex" unicode="&#xdb;" horiz-adv-x="1032" 
d="M713 414v979h215v-983q0 -209 -112.5 -318.5t-299.5 -109.5t-299.5 109.5t-112.5 318.5v983h215v-979q0 -116 50 -176t147 -60t147 60t50 176zM743 1489h-165l-62 82l-63 -82h-162l219 309h14z" />
    <glyph glyph-name="Udieresis" unicode="&#xdc;" horiz-adv-x="1032" 
d="M713 414v979h215v-983q0 -209 -112.5 -318.5t-299.5 -109.5t-299.5 109.5t-112.5 318.5v983h215v-979q0 -116 50 -176t147 -60t147 60t50 176zM741 1704q33 -33 33 -80q0 -46 -33 -78.5t-77 -32.5t-77.5 32.5t-33.5 78.5t33.5 78.5t77.5 32.5q41 0 77 -31zM262 1624
q0 46 33.5 78.5t77.5 32.5t77 -32.5t33 -78.5t-33 -78.5t-77 -32.5t-77.5 32.5t-33.5 78.5z" />
    <glyph glyph-name="Yacute" unicode="&#xdd;" horiz-adv-x="968" 
d="M500 676q39 151 59 205l182 512h211l-358 -963v-430h-215v428l-363 965h220l186 -512q9 -24 19.5 -54.5t18.5 -60t15 -53.5t12 -43t5 -21q0 6 8 27zM563 1499h-155l63 291h223z" />
    <glyph glyph-name="Thorn" unicode="&#xde;" horiz-adv-x="933" 
d="M811 383q-23 -23 -66 -68q-67 -67 -159 -102q-93 -37 -209 -37h-51v-176h-215v1393h215v-158h51q229 0 367.5 -137.5t138.5 -378.5v-21q0 -117 -72 -315zM668 698v17q0 160 -72 246t-221 86h-49v-682h49q147 0 220 89t73 244z" />
    <glyph glyph-name="germandbls" unicode="&#xdf;" horiz-adv-x="751" 
d="M549 215q-2 4 -4 12q-8 17 -29.5 39t-77.5 74q-54 50 -79 98t-25 117v8q0 109 88 162v457q0 121 -82 121t-82 -121v-1182h-199v1188q0 137 77 209.5t200 72.5q130 0 199 -72t69 -212v-559q-94 -3 -94 -58v-6q0 -10 2.5 -18t5 -14t11 -15.5t13.5 -15t21 -20t25 -23.5
q53 -48 79 -76.5t46 -71.5t20 -94v-16q0 -100 -59 -157.5t-168 -57.5q-119 0 -197 55l80 139q57 -35 94 -35q66 0 66 50v10v12z" />
    <glyph glyph-name="agrave" unicode="&#xe0;" horiz-adv-x="622" 
d="M496 682q69 -63 69 -203v-479h-198v59q-53 -77 -142 -77t-142.5 58.5t-53.5 170.5v10q0 105 68 162t190 57h80v37q0 98 -95 98q-78 0 -133 -49l-94 138q93 81 258 81q124 0 193 -63zM379 834h-156l-131 290h223zM367 233v68h-70q-74 0 -74 -78v-8q0 -78 66 -78
q78 0 78 96z" />
    <glyph glyph-name="aacute" unicode="&#xe1;" horiz-adv-x="622" 
d="M340 553q-28 22 -68 22q-78 0 -133 -49l-94 138q93 81 258 81q262 0 262 -266v-479h-198v59q-53 -77 -142 -77t-142.5 58.5t-53.5 170.5v10q0 105 68 162t190 57h80v37q0 55 -27 76zM528 1124l-131 -290h-155l63 290h223zM367 233v68h-70q-74 0 -74 -78v-8q0 -78 66 -78
q78 0 78 96z" />
    <glyph glyph-name="acircumflex" unicode="&#xe2;" horiz-adv-x="622" 
d="M496 682q69 -63 69 -203v-479h-198v59q-53 -77 -142 -77t-142.5 58.5t-53.5 170.5v10q0 105 68 162t190 57h80v37q0 98 -95 98q-78 0 -133 -49l-94 138q93 81 258 81q124 0 193 -63zM330 1133l219 -310h-166l-61 82l-64 -82h-162l219 310h15zM367 233v68h-70
q-74 0 -74 -78v-8q0 -78 66 -78q78 0 78 96z" />
    <glyph glyph-name="atilde" unicode="&#xe3;" horiz-adv-x="622" 
d="M496 682q69 -63 69 -203v-479h-198v59q-53 -77 -142 -77t-142.5 58.5t-53.5 170.5v10q0 105 68 162t190 57h80v37q0 98 -95 98q-78 0 -133 -49l-94 138q93 81 258 81q124 0 193 -63zM319 858l-34 16q-15 9 -29 9q-18 0 -28.5 -11.5t-14.5 -42.5l-133 11q21 209 156 209
q38 0 88 -25t63 -25q18 0 28.5 11.5t14.5 42.5l133 -11q-10 -102 -51 -155t-104 -53q-46 0 -89 24zM367 233v68h-70q-74 0 -74 -78v-8q0 -78 66 -78q78 0 78 96z" />
    <glyph glyph-name="adieresis" unicode="&#xe4;" horiz-adv-x="622" 
d="M496 682q69 -63 69 -203v-479h-198v59q-53 -77 -142 -77t-142.5 58.5t-53.5 170.5v10q0 105 68 162t190 57h80v37q0 98 -95 98q-78 0 -133 -49l-94 138q93 81 258 81q124 0 193 -63zM68 958q0 46 33 78.5t77 32.5t77.5 -32.5t33.5 -78.5t-33.5 -78t-77.5 -32t-77 32
t-33 78zM393 1038q36 31 76 31q44 0 77.5 -32.5t33.5 -78.5t-33.5 -78t-77.5 -32t-77.5 32t-33.5 78q0 45 35 80zM367 233v68h-70q-74 0 -74 -78v-8q0 -78 66 -78q78 0 78 96z" />
    <glyph glyph-name="aring" unicode="&#xe5;" horiz-adv-x="622" 
d="M272 575q-78 0 -133 -49l-94 138q93 81 258 81q262 0 262 -266v-479h-198v59q-53 -77 -142 -77t-142.5 58.5t-53.5 170.5v10q0 105 68 162t190 57h80v37q0 98 -95 98zM315 813q-69 0 -121.5 49t-52.5 115q0 67 52.5 116.5t121.5 49.5t121.5 -49.5t52.5 -116.5
q0 -66 -52.5 -115t-121.5 -49zM346 162q21 21 21 71v68h-70q-74 0 -74 -78v-8q0 -78 66 -78q35 0 57 25zM360 930q17 17 17 47t-17.5 47.5t-44.5 17.5t-44 -17.5t-17 -47.5t17 -47t44 -17q25 0 45 17z" />
    <glyph glyph-name="ae" unicode="&#xe6;" horiz-adv-x="1001" 
d="M967 371v-72h-400q9 -75 43 -109t101 -34q71 0 145 43l78 -156q-92 -61 -225 -61q-167 0 -236 100q-69 -100 -201 -100q-243 0 -243 229v10q0 105 67.5 161t190.5 56h80v39q0 98 -95 98q-78 0 -133 -49l-94 138q93 81 258 81q129 0 178 -88q64 88 193 88
q144 0 218.5 -100.5t74.5 -273.5zM584 582q-7 -50 -17 -146h199q-4 77 -26.5 111.5t-65.5 34.5h-90zM256 299q-6 -6 -16 -18q-17 -24 -17 -58v-8q0 -78 66 -78q78 0 78 96v66h-70h-41z" />
    <glyph glyph-name="ccedilla" unicode="&#xe7;" horiz-adv-x="559" 
d="M514 8q-14 -4 -43 -14q-47 -12 -104 -12q-7 0 -19.5 1t-19.5 1v-56q110 -23 110 -131v-8q0 -69 -47 -107t-119 -38q-63 0 -106 26l45 97q18 -15 49 -15q53 0 53 43v6q0 41 -51 41h-37v164q-92 38 -140 126.5t-48 219.5v23q0 171 89 270.5t232 99.5q107 0 181 -49
l-78 -153q-43 24 -84 24q-59 0 -97 -49.5t-38 -142.5v-21q0 -95 37 -144.5t104 -49.5q45 0 88 26l68 -159z" />
    <glyph glyph-name="egrave" unicode="&#xe8;" 
d="M569 643q72 -107 72 -272v-78h-397q15 -137 141 -137q71 0 145 43l78 -156q-92 -61 -225 -61q-170 0 -258 97.5t-88 274.5v19q0 171 84.5 271.5t226.5 100.5q148 0 221 -102zM340 1124l63 -290h-155l-131 290h223zM348 582q-91 0 -106 -146h198q-9 146 -92 146z" />
    <glyph glyph-name="eacute" unicode="&#xe9;" 
d="M383 -18q-170 0 -258 97.5t-88 274.5v19q0 171 84.5 271.5t226.5 100.5q144 0 218.5 -100.5t74.5 -273.5v-78h-397q15 -137 141 -137q71 0 145 43l78 -156q-92 -61 -225 -61zM422 834h-156l64 290h223zM348 582q-91 0 -106 -146h198q-9 146 -92 146z" />
    <glyph glyph-name="ecircumflex" unicode="&#xea;" 
d="M383 -18q-170 0 -258 97.5t-88 274.5v19q0 171 84.5 271.5t226.5 100.5q144 0 218.5 -100.5t74.5 -273.5v-78h-397q15 -137 141 -137q71 0 145 43l78 -156q-92 -61 -225 -61zM573 823h-165l-62 82l-63 -82h-162l219 310h14zM440 436q-9 146 -92 146q-91 0 -106 -146h198z
" />
    <glyph glyph-name="edieresis" unicode="&#xeb;" 
d="M530 199l78 -156q-92 -61 -225 -61q-170 0 -258 97.5t-88 274.5v19q0 171 84.5 271.5t226.5 100.5q144 0 218.5 -100.5t74.5 -273.5v-78h-397q15 -137 141 -137q71 0 145 43zM92 958q0 46 33.5 78.5t77.5 32.5t77 -32.5t33 -78.5t-33 -78t-77 -32t-77.5 32t-33.5 78z
M418 881q-35 30 -35 77q0 46 33.5 78.5t77.5 32.5t77 -32.5t33 -78.5t-33 -78t-77 -32q-43 0 -76 33zM440 436q-9 146 -92 146q-91 0 -106 -146h198z" />
    <glyph glyph-name="igrave" unicode="&#xec;" horiz-adv-x="321" 
d="M260 727v-727h-199v727h199zM61 834l-131 290h224l63 -290h-156z" />
    <glyph glyph-name="iacute" unicode="&#xed;" horiz-adv-x="321" 
d="M260 727v-727h-199v727h199zM80 834l63 290h224l-131 -290h-156z" />
    <glyph glyph-name="icircumflex" unicode="&#xee;" horiz-adv-x="321" 
d="M260 0h-199v727h199v-727zM221 823l-61 82l-64 -82h-162l220 310h14l219 -310h-166z" />
    <glyph glyph-name="idieresis" unicode="&#xef;" horiz-adv-x="321" 
d="M260 0h-199v727h199v-727zM-61 1038q36 31 77 31q44 0 77.5 -32.5t33.5 -78.5t-33.5 -78t-77.5 -32t-77 32t-33 78q0 47 33 80zM197 958q0 46 33 78.5t77 32.5t77.5 -32.5t33.5 -78.5t-33.5 -78t-77.5 -32t-77 32t-33 78z" />
    <glyph glyph-name="eth" unicode="&#xf0;" horiz-adv-x="708" 
d="M385 1262l109 79l73 -98l-104 -76q211 -290 211 -718v-58q0 -200 -84.5 -304.5t-233.5 -104.5q-144 0 -231.5 98.5t-87.5 269.5v27q0 165 79 266.5t183 101.5q91 0 147 -73q-43 224 -139 383l-114 -82l-74 98l117 84q-42 56 -160 170l88 119q123 -79 221 -182zM301 152
h53q55 0 84 51q29 53 29 149v25q0 198 -113 198q-112 0 -112 -198v-25q0 -97 59 -200z" />
    <glyph glyph-name="ntilde" unicode="&#xf1;" horiz-adv-x="688" 
d="M580 684q57 -63 57 -190v-494h-199v471q0 43 -22.5 66.5t-59.5 23.5q-46 0 -72 -26t-26 -78v-457h-199v727h199v-82q57 100 178 100q86 0 144 -61zM449 834q-46 0 -89 24l-34 16q-15 9 -29 9q-18 0 -28.5 -11.5t-14.5 -42.5l-133 11q21 209 155 209q38 0 88.5 -25
t63.5 -25q18 0 28.5 11.5t14.5 42.5l133 -11q-10 -102 -51 -155t-104 -53z" />
    <glyph glyph-name="ograve" unicode="&#xf2;" horiz-adv-x="710" 
d="M588 649q86 -100 86 -272v-27q0 -172 -85.5 -270t-232.5 -98q-144 0 -231.5 98.5t-87.5 269.5v27q0 171 87.5 269.5t231.5 98.5q145 0 232 -96zM438 203q29 53 29 149v25q0 198 -113 198q-112 0 -112 -198v-25q0 -200 112 -200q55 0 84 51zM350 1124l64 -290h-156
l-131 290h223z" />
    <glyph glyph-name="oacute" unicode="&#xf3;" horiz-adv-x="710" 
d="M356 -18q-144 0 -231.5 98.5t-87.5 269.5v27q0 171 87.5 269.5t231.5 98.5q147 0 232.5 -98t85.5 -270v-27q0 -172 -85.5 -270t-232.5 -98zM467 352v25q0 198 -113 198q-112 0 -112 -198v-25q0 -200 112 -200q55 0 84 50.5t29 149.5zM432 834h-156l64 290h223z" />
    <glyph glyph-name="ocircumflex" unicode="&#xf4;" horiz-adv-x="710" 
d="M588 649q86 -100 86 -272v-27q0 -172 -85.5 -270t-232.5 -98q-144 0 -231.5 98.5t-87.5 269.5v27q0 171 87.5 269.5t231.5 98.5q145 0 232 -96zM438 526q-30 49 -84 49q-112 0 -112 -198v-25q0 -200 112 -200q55 0 84 50.5t29 149.5v25q0 96 -29 149zM584 823h-166
l-62 82l-63 -82h-162l219 310h15z" />
    <glyph glyph-name="otilde" unicode="&#xf5;" horiz-adv-x="710" 
d="M588 80q-85 -98 -232 -98q-144 0 -231.5 98.5t-87.5 269.5v27q0 171 87.5 269.5t231.5 98.5q147 0 232.5 -98t85.5 -270v-27q0 -175 -86 -270zM393 1008q15 -9 29 -9q18 0 28.5 11.5t14.5 42.5l133 -11q-10 -102 -51.5 -155t-104.5 -53q-45 0 -88 24l-35 16q-15 9 -28 9
q-18 0 -28.5 -11.5t-14.5 -42.5l-133 11q21 209 155 209q22 0 44 -7t47.5 -19.5t31.5 -14.5zM467 352v25q0 198 -113 198q-112 0 -112 -198v-25q0 -200 112 -200q55 0 84 50.5t29 149.5z" />
    <glyph glyph-name="odieresis" unicode="&#xf6;" horiz-adv-x="710" 
d="M588 80q-85 -98 -232 -98q-144 0 -231.5 98.5t-87.5 269.5v27q0 171 87.5 269.5t231.5 98.5q147 0 232.5 -98t85.5 -270v-27q0 -175 -86 -270zM438 526q-30 49 -84 49q-112 0 -112 -198v-25q0 -200 112 -200q55 0 84 50.5t29 149.5v25q0 96 -29 149zM428 1038
q36 31 76 31q44 0 77 -32.5t33 -78.5t-33 -78t-77 -32t-77.5 32t-33.5 78q0 45 35 80zM102 958q0 46 33.5 78.5t77.5 32.5t77.5 -32.5t33.5 -78.5t-33.5 -78t-77.5 -32t-77.5 32t-33.5 78z" />
    <glyph glyph-name="divide" unicode="&#xf7;" horiz-adv-x="632" 
d="M51 621h531v-148h-531v148zM268 872h47q47 0 82 -30q35 -35 35 -86q0 -50 -34.5 -82.5t-82.5 -32.5t-82 32.5t-34 82.5q0 53 69 116zM432 285q-12 -10 -35 -33q-33 -33 -82 -33q-48 0 -82 33.5t-34 83.5t34 82.5t82 32.5t82.5 -32.5t34.5 -82.5v-51z" />
    <glyph glyph-name="oslash" unicode="&#xf8;" horiz-adv-x="708" 
d="M442 745q25 -11 72 -38l53 75l103 -67l-64 -92q68 -95 68 -246v-27q0 -172 -85.5 -270t-232.5 -98q-92 0 -163 41l-64 -95l-102 68l75 110q-65 100 -65 244v27q0 171 87.5 269.5t231.5 98.5h86zM410 143q11 16 34 47q33 44 33 158v60q0 16 -2 24l-186 -270q28 -19 65 -19
h56zM231 492v-111v-59q0 -19 2 -25l185 266q-27 21 -64 21q-55 0 -123 -92z" />
    <glyph glyph-name="ugrave" unicode="&#xf9;" horiz-adv-x="690" 
d="M334 166q46 0 72 26.5t26 79.5v455h199v-727h-199v84q-58 -102 -178 -102q-90 0 -145.5 65t-55.5 189v491h199v-471q0 -42 23 -66t59 -24zM401 834h-155l-131 290h223z" />
    <glyph glyph-name="uacute" unicode="&#xfa;" horiz-adv-x="690" 
d="M406 193q26 26 26 79v455h199v-727h-199v84q-58 -102 -178 -102q-90 0 -145.5 65t-55.5 189v491h199v-471q0 -42 23 -66t59 -24q45 0 72 27zM551 1124l-131 -290h-156l64 290h223z" />
    <glyph glyph-name="ucircumflex" unicode="&#xfb;" horiz-adv-x="690" 
d="M432 272v455h199v-727h-199v84q-58 -102 -178 -102q-90 0 -145.5 65t-55.5 189v491h199v-471q0 -42 23 -66t59 -24q46 0 72 26.5t26 79.5zM344 905l-63 -82h-162l219 310h14l219 -310h-165z" />
    <glyph glyph-name="udieresis" unicode="&#xfc;" horiz-adv-x="690" 
d="M432 0v84q-58 -102 -178 -102q-90 0 -145.5 65t-55.5 189v491h199v-471q0 -42 23 -66t59 -24q46 0 72 26.5t26 79.5v455h199v-727h-199zM125 1038q36 31 76 31q44 0 77 -32.5t33 -78.5t-33 -78t-77 -32t-77.5 32t-33.5 78q0 45 35 80zM492 848q-44 0 -77.5 32t-33.5 78
t33.5 78.5t77.5 32.5t77 -32.5t33 -78.5t-33 -78t-77 -32z" />
    <glyph glyph-name="yacute" unicode="&#xfd;" horiz-adv-x="649" 
d="M334 328q1 -4 2 -8.5t1.5 -7t0.5 -3.5q0 21 37 144l86 274h184l-375 -1147h-186l162 494l-242 653h205l90 -274q9 -31 35 -125zM412 834h-156l63 290h224z" />
    <glyph glyph-name="thorn" unicode="&#xfe;" horiz-adv-x="724" 
d="M645 115q-12 -14 -35 -45q-36 -44 -84 -66q-49 -22 -96 -22q-111 0 -170 92v-508h-199v1870h199v-781q53 90 172 90q108 0 182 -94t74 -276v-23q0 -98 -43 -237zM424 154q11 18 31 53q28 54 28 147v19q0 97 -29.5 148.5t-84.5 51.5q-54 0 -83.5 -52t-29.5 -148v-19
q0 -96 29.5 -148t83.5 -52h55z" />
    <glyph glyph-name="ydieresis" unicode="&#xff;" horiz-adv-x="649" 
d="M459 727h184l-375 -1147h-186l162 494l-242 653h205l90 -274q39 -124 39 -144q0 21 37 144zM406 1038q36 31 75 31q44 0 77.5 -32.5t33.5 -78.5t-33.5 -78t-77.5 -32t-77 32t-33 78q0 45 35 80zM115 1038q36 31 75 31q44 0 77.5 -32.5t33.5 -78.5t-33.5 -78t-77.5 -32
t-77 32t-33 78q0 45 35 80z" />
    <glyph glyph-name="Amacron" unicode="&#x100;" horiz-adv-x="1001" 
d="M979 0h-225l-54 174h-411l-53 -174h-213l464 1405h27zM498 872q-2 -4 -10.5 -37.5t-21 -83t-22.5 -81.5l-100 -318h301l-96 318q-17 55 -34 122.5t-17 79.5zM674 1542h-344v148h344v-148z" />
    <glyph glyph-name="amacron" unicode="&#x101;" horiz-adv-x="622" 
d="M496 682q69 -63 69 -203v-479h-198v59q-53 -77 -142 -77t-142.5 58.5t-53.5 170.5v10q0 105 68 162t190 57h80v37q0 98 -95 98q-78 0 -133 -49l-94 138q93 81 258 81q124 0 193 -63zM494 877h-344v147h344v-147zM367 233v68h-70q-74 0 -74 -78v-8q0 -78 66 -78
q78 0 78 96z" />
    <glyph glyph-name="Abreve" unicode="&#x102;" horiz-adv-x="1001" 
d="M979 0h-225l-54 174h-411l-53 -174h-213l464 1405h27zM504 844q-6 21 -6 28q-2 -4 -10.5 -37.5t-21 -83t-22.5 -81.5l-100 -318h301l-96 318q-34 115 -45 174zM715 1714q-5 -95 -61 -153t-152 -58t-152 58t-61 153l149 6q6 -67 64 -67q57 0 63 67z" />
    <glyph glyph-name="abreve" unicode="&#x103;" horiz-adv-x="622" 
d="M496 682q69 -63 69 -203v-479h-198v59q-53 -77 -142 -77t-142.5 58.5t-53.5 170.5v10q0 105 68 162t190 57h80v37q0 98 -95 98q-78 0 -133 -49l-94 138q93 81 258 81q124 0 193 -63zM535 1049q-5 -95 -61 -153t-152 -58t-152 58t-61 153l149 6q6 -68 64 -68q57 0 63 68z
M297 301q-74 0 -74 -78v-8q0 -78 66 -78q78 0 78 96v68h-70z" />
    <glyph glyph-name="Aogonek" unicode="&#x104;" horiz-adv-x="1003" 
d="M928 -356h-43q-69 0 -115 32q-51 34 -51 103v8q0 65 65 150l50 63h-80l-54 174h-411l-53 -174h-213l464 1405h27l455 -1372l-76 -121q-43 -68 -43 -107v-6q0 -47 51 -47q27 0 53 15l39 -95q-18 -11 -65 -28zM444 670l-100 -318h301l-96 318q-17 55 -34 122.5t-17 79.5
q-2 -4 -10.5 -37.5t-21 -83t-22.5 -81.5z" />
    <glyph glyph-name="aogonek" unicode="&#x105;" horiz-adv-x="622" 
d="M432 0h-65v59q-53 -77 -142 -77t-142.5 58.5t-53.5 170.5v10q0 105 68 162t190 57h80v37q0 98 -95 98q-78 0 -133 -49l-94 138q93 81 258 81q262 0 262 -266v-450l-73 -117q-43 -68 -43 -107v-6q0 -47 51 -47q27 0 53 15l39 -95q-46 -28 -109 -28q-71 0 -118.5 34.5
t-47.5 100.5v8q0 64 66 150zM367 184v49v68h-70q-74 0 -74 -78v-8q0 -78 66 -78q34 0 78 47z" />
    <glyph glyph-name="Cacute" unicode="&#x106;" horiz-adv-x="919" 
d="M754 1389q42 -14 108 -52l-88 -172q-43 25 -78 37t-84 12q-159 0 -246 -132.5t-87 -372.5v-25q0 -244 85.5 -377t249.5 -133q84 0 179 57l88 -168q-117 -81 -287 -81q-250 0 -392.5 185t-142.5 511v37q0 324 146.5 509t404.5 185q83 0 144 -20zM438 1499l64 291h223
l-131 -291h-156z" />
    <glyph glyph-name="cacute" unicode="&#x107;" horiz-adv-x="559" 
d="M377 567q-59 0 -97 -49.5t-38 -142.5v-21q0 -95 37 -144.5t104 -49.5q45 0 88 26l68 -159q-59 -45 -172 -45q-158 0 -244 97.5t-86 272.5v23q0 171 89 270.5t232 99.5q107 0 181 -49l-78 -153q-43 24 -84 24zM395 834h-155l63 290h223z" />
    <glyph glyph-name="Ccircumflex" unicode="&#x108;" horiz-adv-x="919" 
d="M754 1389q42 -14 108 -52l-88 -172q-43 25 -78 37t-84 12q-159 0 -246 -132.5t-87 -372.5v-25q0 -244 85.5 -377t249.5 -133q84 0 179 57l88 -168q-117 -81 -287 -81q-250 0 -392.5 185t-142.5 511v37q0 324 146.5 509t404.5 185q83 0 144 -20zM502 1798h14l219 -309
h-166l-61 82l-64 -82h-161z" />
    <glyph glyph-name="ccircumflex" unicode="&#x109;" horiz-adv-x="559" 
d="M377 567q-59 0 -97 -49.5t-38 -142.5v-21q0 -95 37 -144.5t104 -49.5q45 0 88 26l68 -159q-59 -45 -172 -45q-158 0 -244 97.5t-86 272.5v23q0 171 89 270.5t232 99.5q107 0 181 -49l-78 -153q-43 24 -84 24zM381 823l-62 82l-63 -82h-162l219 310h15l219 -310h-166z" />
    <glyph glyph-name="Cdotaccent" unicode="&#x10a;" horiz-adv-x="919" 
d="M754 1389q42 -14 108 -52l-88 -172q-43 25 -78 37t-84 12q-159 0 -246 -132.5t-87 -372.5v-25q0 -244 85.5 -377t249.5 -133q84 0 179 57l88 -168q-117 -81 -287 -81q-250 0 -392.5 185t-142.5 511v37q0 324 146.5 509t404.5 185q83 0 144 -20zM422 1624q0 46 33 78.5
t77 32.5t77.5 -32.5t33.5 -78.5t-33.5 -78.5t-77.5 -32.5t-77 32.5t-33 78.5z" />
    <glyph glyph-name="cdotaccent" unicode="&#x10b;" horiz-adv-x="559" 
d="M434 168q24 10 37 18l68 -159q-59 -45 -172 -45q-158 0 -244 97.5t-86 272.5v23q0 171 89 270.5t232 99.5q107 0 181 -49l-78 -153q-43 24 -84 24q-59 0 -97 -49.5t-38 -142.5v-21q0 -95 37 -144.5t104 -49.5q32 0 51 8zM432 958q0 -46 -33 -78t-77 -32t-77.5 32
t-33.5 78t33.5 78.5t77.5 32.5t77 -32.5t33 -78.5z" />
    <glyph glyph-name="Ccaron" unicode="&#x10c;" horiz-adv-x="919" 
d="M754 1389q42 -14 108 -52l-88 -172q-43 25 -78 37t-84 12q-159 0 -246 -132.5t-87 -372.5v-25q0 -244 85.5 -377t249.5 -133q84 0 179 57l88 -168q-117 -81 -287 -81q-250 0 -392.5 185t-142.5 511v37q0 324 146.5 509t404.5 185q83 0 144 -20zM317 1776h166l62 -82
l63 82h162l-219 -310h-14z" />
    <glyph glyph-name="ccaron" unicode="&#x10d;" horiz-adv-x="559" 
d="M377 567q-59 0 -97 -49.5t-38 -142.5v-21q0 -95 37 -144.5t104 -49.5q45 0 88 26l68 -159q-59 -45 -172 -45q-158 0 -244 97.5t-86 272.5v23q0 171 89 270.5t232 99.5q107 0 181 -49l-78 -153q-43 24 -84 24zM549 1110l-219 -309h-15l-219 309h166l62 -82l63 82h162z" />
    <glyph glyph-name="Dcaron" unicode="&#x10e;" horiz-adv-x="1044" 
d="M647 49q-107 -49 -244 -49h-292v1393h292q269 0 426.5 -183t157.5 -497v-33q0 -233 -88.5 -396.5t-251.5 -234.5zM766 686v21q0 497 -375 497h-65v-1016h65q178 0 276.5 131.5t98.5 366.5zM387 1776l62 -82l63 82h162l-219 -310h-15l-219 310h166z" />
    <glyph glyph-name="dcaron" unicode="&#x10f;" horiz-adv-x="774" 
d="M80 115q-7 24 -21 71q-22 74 -22 166v23q0 94 22 168q30 101 92 151.5t142 50.5q120 0 172 -88v779h199v-1436h-199v74q-57 -92 -170 -92q-53 0 -96 22q-48 22 -119 111zM242 469v-96v-19q0 -97 29.5 -148.5t84.5 -51.5q54 0 83.5 52t29.5 148v19q0 96 -29.5 148
t-83.5 52q-56 0 -114 -104zM760 1217l-21 30q-20 26 -20 70q0 56 39 92q38 35 88 35q52 0 89.5 -36.5t37.5 -90.5q0 -49 -37 -125l-90 -184h-101l54 194z" />
    <glyph glyph-name="Dcroat" unicode="&#x110;" horiz-adv-x="1044" 
d="M907 274q-25 -29 -76 -88q-80 -92 -184 -137q-107 -49 -244 -49h-292v449h-91v188h91v756h292q269 0 426.5 -183t157.5 -497v-33q0 -155 -80 -406zM569 188q33 43 99 131q98 131 98 367v21q0 497 -375 497h-65v-567h243v-188h-243v-261h65h178z" />
    <glyph glyph-name="dcroat" unicode="&#x111;" horiz-adv-x="724" 
d="M465 1087v349h199v-349h90v-161h-90v-926h-199v74q-57 -92 -170 -92q-109 0 -183.5 94t-74.5 276v23q0 182 74 276t182 94q120 0 172 -88v269h-148v161h148zM469 354v19q0 93 -29 149q-29 51 -84 51t-84.5 -51.5t-29.5 -148.5v-19q0 -97 29.5 -148.5t84.5 -51.5
q54 0 83.5 52t29.5 148z" />
    <glyph glyph-name="Emacron" unicode="&#x112;" horiz-adv-x="860" 
d="M776 1204h-452v-567h381v-188h-381v-261h469v-188h-682v1393h665v-189zM629 1690v-148h-344v148h344z" />
    <glyph glyph-name="emacron" unicode="&#x113;" 
d="M569 643q72 -107 72 -272v-78h-397q15 -137 141 -137q71 0 145 43l78 -156q-92 -61 -225 -61q-170 0 -258 97.5t-88 274.5v19q0 171 84.5 271.5t226.5 100.5q148 0 221 -102zM518 877h-344v147h344v-147zM242 436h198q-9 146 -92 146q-91 0 -106 -146z" />
    <glyph glyph-name="Ebreve" unicode="&#x114;" horiz-adv-x="860" 
d="M324 1204v-567h381v-188h-381v-261h469v-188h-682v1393h665v-189h-452zM457 1653q57 0 63 67l150 -6q-5 -95 -61 -153t-152 -58t-152 58t-61 153l149 6q6 -67 64 -67z" />
    <glyph glyph-name="ebreve" unicode="&#x115;" 
d="M383 -18q-170 0 -258 97.5t-88 274.5v19q0 171 84.5 271.5t226.5 100.5q144 0 218.5 -100.5t74.5 -273.5v-78h-397q15 -137 141 -137q71 0 145 43l78 -156q-92 -61 -225 -61zM559 1049q-5 -95 -61 -153t-152 -58t-152 58t-61 153l150 6q6 -68 63 -68q58 0 64 68zM440 436
q-9 146 -92 146q-91 0 -106 -146h198z" />
    <glyph glyph-name="Edotaccent" unicode="&#x116;" horiz-adv-x="860" 
d="M705 449h-381v-261h469v-188h-682v1393h665v-189h-452v-567h381v-188zM457 1735q44 0 77 -32.5t33 -78.5t-33 -78.5t-77 -32.5t-77.5 32.5t-33.5 78.5t33.5 78.5t77.5 32.5z" />
    <glyph glyph-name="edotaccent" unicode="&#x117;" 
d="M383 -18q-170 0 -258 97.5t-88 274.5v19q0 171 84.5 271.5t226.5 100.5q144 0 218.5 -100.5t74.5 -273.5v-78h-397q15 -137 141 -137q71 0 145 43l78 -156q-92 -61 -225 -61zM424 881q-33 -33 -78 -33q-44 0 -77 32t-33 78t33 78.5t77 32.5t77.5 -32.5t33.5 -78.5
q0 -48 -33 -77zM242 436h198q-9 146 -92 146q-91 0 -106 -146z" />
    <glyph glyph-name="Eogonek" unicode="&#x118;" horiz-adv-x="860" 
d="M793 0h-37l-56 -88q-43 -68 -43 -107v-6q0 -47 52 -47q27 0 53 15l39 -95q-46 -28 -109 -28q-71 0 -118.5 34.5t-47.5 100.5v8q0 64 66 150l49 63h-530v1393h665v-189h-452v-567h381v-188h-381v-261h469v-188z" />
    <glyph glyph-name="eogonek" unicode="&#x119;" 
d="M522 -338q-8 -4 -24 -10q-21 -8 -68 -8q-71 0 -118.5 34.5t-47.5 100.5v8q0 64 66 150l35 45q-161 6 -244.5 103.5t-83.5 268.5v19q0 171 84.5 271.5t226.5 100.5q144 0 218.5 -100.5t74.5 -273.5v-78h-397q15 -137 141 -137q71 0 145 43l78 -156q-46 -34 -121 -49
l-49 -82q-43 -68 -43 -107v-6q0 -47 51 -47q28 0 54 15l39 -95zM432 582h-84q-91 0 -106 -146h198z" />
    <glyph glyph-name="Ecaron" unicode="&#x11a;" horiz-adv-x="860" 
d="M705 637v-188h-381v-261h469v-188h-682v1393h665v-189h-452v-567h381zM459 1694l63 82h162l-219 -310h-14l-220 310h166z" />
    <glyph glyph-name="ecaron" unicode="&#x11b;" 
d="M383 -18q-170 0 -258 97.5t-88 274.5v19q0 171 84.5 271.5t226.5 100.5q144 0 218.5 -100.5t74.5 -273.5v-78h-397q15 -137 141 -137q71 0 145 43l78 -156q-92 -61 -225 -61zM354 801h-14l-219 309h166l61 -82l64 82h161zM440 436q-9 146 -92 146q-91 0 -106 -146h198z
" />
    <glyph glyph-name="Gcircumflex" unicode="&#x11c;" horiz-adv-x="1032" 
d="M788 1386q74 -25 117 -57l-94 -174q-97 59 -199 59q-163 0 -248 -131.5t-85 -367.5v-37q0 -241 82 -374.5t249 -133.5q88 0 154 37v242h-221v188h413v-551q-54 -39 -144.5 -71.5t-186.5 -32.5q-277 0 -421.5 182.5t-144.5 507.5v49q0 313 143 500.5t404 187.5
q105 0 182 -23zM618 1489l-61 82l-63 -82h-162l219 309h14l219 -309h-166z" />
    <glyph glyph-name="gcircumflex" unicode="&#x11d;" horiz-adv-x="653" 
d="M342 100q149 -20 219 -84t70 -184v-8q0 -122 -82 -194t-223 -72q-135 0 -220.5 66t-85.5 171v8q0 127 121 179q-40 19 -60 56t-20 81q0 89 89 133q-97 82 -97 211v12q0 67 23.5 120t62.5 85t85 48.5t95 16.5q57 0 107 -18h195v-139h-66q33 -57 33 -113v-12
q0 -88 -42 -151.5t-101.5 -91t-125.5 -27.5q-42 0 -69 8q-25 -16 -25 -39q0 -25 24.5 -38.5t92.5 -23.5zM264 823h-162l220 310h14l219 -310h-166l-61 82zM313 -76q-50 0 -81 -26.5t-31 -73.5v-6q0 -47 34 -75t89 -28q51 0 82.5 28t31.5 75v6q0 47 -32.5 73.5t-92.5 26.5z
M322 344q34 0 57.5 29.5t23.5 91.5v8q0 62 -23.5 91.5t-57.5 29.5q-36 0 -60 -29.5t-24 -91.5v-8q0 -62 24 -91.5t60 -29.5z" />
    <glyph glyph-name="Gbreve" unicode="&#x11e;" horiz-adv-x="1032" 
d="M764 207v242h-221v188h413v-551q-54 -39 -144.5 -71.5t-186.5 -32.5q-277 0 -421.5 182.5t-144.5 507.5v49q0 313 143 500.5t404 187.5q182 0 299 -80l-94 -174q-97 59 -199 59q-163 0 -248 -131.5t-85 -367.5v-37q0 -241 82 -374.5t249 -133.5q88 0 154 37zM713 1563
q-57 -60 -154 -60q-96 0 -152 58t-61 153l150 6q6 -67 63 -67q58 0 64 67l149 -6q-3 -92 -59 -151z" />
    <glyph glyph-name="gbreve" unicode="&#x11f;" horiz-adv-x="653" 
d="M342 100q149 -20 219 -84t70 -184v-8q0 -122 -82 -194t-223 -72q-135 0 -220.5 66t-85.5 171v8q0 127 121 179q-40 19 -60 56t-20 81q0 89 89 133q-97 82 -97 211v12q0 67 23.5 120t62.5 85t85 48.5t95 16.5q57 0 107 -18h195v-139h-66q33 -57 33 -113v-12
q0 -88 -42 -151.5t-101.5 -91t-125.5 -27.5q-42 0 -69 8q-25 -16 -25 -39q0 -25 24.5 -38.5t92.5 -23.5zM330 987q57 0 63 68l150 -6q-5 -95 -61 -153t-152 -58t-152 58t-61 153l149 6q6 -68 64 -68zM313 -76q-50 0 -81 -26.5t-31 -73.5v-6q0 -47 34 -75t89 -28
q51 0 82.5 28t31.5 75v6q0 47 -32.5 73.5t-92.5 26.5zM264 373q26 -29 58 -29q34 0 57.5 29.5t23.5 91.5v8q0 62 -23.5 91.5t-57.5 29.5q-36 0 -60 -29.5t-24 -91.5v-8q0 -66 26 -92z" />
    <glyph glyph-name="Gdotaccent" unicode="&#x120;" horiz-adv-x="1032" 
d="M764 207v242h-221v188h413v-551q-54 -39 -144.5 -71.5t-186.5 -32.5q-277 0 -421.5 182.5t-144.5 507.5v49q0 313 143 500.5t404 187.5q182 0 299 -80l-94 -174q-97 59 -199 59q-163 0 -248 -131.5t-85 -367.5v-37q0 -241 82 -374.5t249 -133.5q88 0 154 37zM670 1624
q0 -46 -33.5 -78.5t-77.5 -32.5t-77 32.5t-33 78.5t33 78.5t77 32.5t77.5 -32.5t33.5 -78.5z" />
    <glyph glyph-name="gdotaccent" unicode="&#x121;" horiz-adv-x="653" 
d="M342 100q149 -20 219 -84t70 -184v-8q0 -122 -82 -194t-223 -72q-135 0 -220.5 66t-85.5 171v8q0 127 121 179q-40 19 -60 56t-20 81q0 89 89 133q-97 82 -97 211v12q0 67 23.5 120t62.5 85t85 48.5t95 16.5q57 0 107 -18h195v-139h-66q33 -57 33 -113v-12
q0 -88 -42 -151.5t-101.5 -91t-125.5 -27.5q-42 0 -69 8q-25 -16 -25 -39q0 -25 24.5 -38.5t92.5 -23.5zM313 -76q-50 0 -81 -26.5t-31 -73.5v-6q0 -47 34 -75t89 -28q51 0 82.5 28t31.5 75v6q0 47 -32.5 73.5t-92.5 26.5zM254 881q-35 30 -35 77q0 46 33.5 78.5t77.5 32.5
t77 -32.5t33 -78.5t-33 -78t-77 -32q-43 0 -76 33zM264 567q-26 -26 -26 -94v-8q0 -62 24 -91.5t60 -29.5q34 0 57.5 29.5t23.5 91.5v8q0 62 -23.5 91.5t-57.5 29.5t-58 -27z" />
    <glyph glyph-name="Gcommaaccent" unicode="&#x122;" horiz-adv-x="1032" 
d="M778 2q-16 -4 -49 -10q-58 -10 -104 -10q-277 0 -421.5 182.5t-144.5 507.5v49q0 313 143 500.5t404 187.5q182 0 299 -80l-94 -174q-97 59 -199 59q-163 0 -248 -131.5t-85 -367.5v-37q0 -241 82 -374.5t249 -133.5q88 0 154 37v242h-221v188h413v-551q-47 -35 -178 -84
zM698 -229q-2 -9 -8 -27q-3 -8 -7 -17t-9.5 -21.5t-9.5 -20.5l-78 -140h-94l43 150q-35 13 -54.5 41t-19.5 65q0 51 34.5 85t84.5 34t84 -34t34 -85v-30z" />
    <glyph glyph-name="gcommaaccent" unicode="&#x123;" horiz-adv-x="653" 
d="M225 137q9 -4 25 -12q23 -16 92 -25q149 -20 219 -84t70 -184v-8q0 -122 -82 -194t-223 -72q-135 0 -220.5 66t-85.5 171v8q0 127 121 179q-40 19 -60 56t-20 81q0 89 89 133q-97 82 -97 211v12q0 67 23.5 120t62.5 85t85 48.5t95 16.5q57 0 107 -18h195v-139h-66
q33 -57 33 -113v-12q0 -88 -42 -151.5t-101.5 -91t-125.5 -27.5q-42 0 -69 8q-25 -16 -25 -39v-25zM246 1057l78 139h94l-43 -149q35 -13 54.5 -41.5t19.5 -65.5q0 -51 -34.5 -85t-84.5 -34t-84.5 34t-34.5 85q0 52 35 117zM438 -129q-9 9 -32 27q-33 26 -93 26
q-50 0 -81 -26.5t-31 -73.5v-6q0 -47 34 -75t89 -28q51 0 82.5 28t31.5 75v6v47zM238 399l26 -26q26 -29 58 -29q34 0 57.5 29.5t23.5 91.5v8q0 62 -23.5 91.5t-57.5 29.5t-58 -27q-26 -26 -26 -94v-8v-66z" />
    <glyph glyph-name="Hcircumflex" unicode="&#x124;" horiz-adv-x="1062" 
d="M737 1393h215v-1393h-215v449h-411v-449h-215v1393h215v-756h411v756zM535 1798l219 -309h-166l-62 82l-63 -82h-162l219 309h15z" />
    <glyph glyph-name="hcircumflex" unicode="&#x125;" horiz-adv-x="690" 
d="M356 561q-46 0 -72 -26t-26 -78v-457h-199v1436h199v-791q57 100 178 100q90 0 145.5 -64t55.5 -187v-494h-199v471q0 43 -22.5 66.5t-59.5 23.5zM545 1532h-166l-62 82l-63 -82h-162l219 309h15z" />
    <glyph glyph-name="Hbar" unicode="&#x126;" horiz-adv-x="1062" 
d="M952 852v-852h-215v449h-411v-449h-215v852h-103v184h103v357h215v-357h411v357h215v-357h103v-184h-103zM326 637h411v215h-411v-215z" />
    <glyph glyph-name="hbar" unicode="&#x127;" horiz-adv-x="690" 
d="M391 561h-35q-44 0 -71 -24q-27 -27 -27 -80v-457h-199v879h-84v147h84v410h199v-410h170v-147h-170v-234q57 100 178 100q90 0 145.5 -64t55.5 -187v-494h-199v471q0 43 -47 90z" />
    <glyph glyph-name="Itilde" unicode="&#x128;" horiz-adv-x="448" 
d="M332 0h-215v1393h215v-1393zM260 1673q13 -8 29 -8q18 0 28.5 11t14.5 42l133 -10q-10 -102 -51.5 -155.5t-104.5 -53.5q-43 0 -88 25l-35 16q-13 8 -28 8q-18 0 -28.5 -11t-14.5 -42l-133 10q21 209 155 209q22 0 44 -7t47.5 -19.5t31.5 -14.5z" />
    <glyph glyph-name="itilde" unicode="&#x129;" horiz-adv-x="321" 
d="M260 0h-199v727h199v-727zM197 1008q15 -9 28 -9q18 0 28.5 11.5t14.5 42.5l133 -11q-10 -102 -51 -155t-104 -53q-45 0 -88 24l-35 16q-15 9 -29 9q-18 0 -28.5 -11.5t-14.5 -42.5l-133 11q21 209 156 209q22 0 44 -7t47.5 -19.5t31.5 -14.5z" />
    <glyph glyph-name="uni012A" unicode="&#x12a;" horiz-adv-x="448" 
d="M117 0v1393h215v-1393h-215zM53 1690h344v-148h-344v148z" />
    <glyph glyph-name="imacron" unicode="&#x12b;" horiz-adv-x="321" 
d="M61 0v727h199v-727h-199zM-10 1024h344v-147h-344v147z" />
    <glyph glyph-name="Ibreve" unicode="&#x12c;" horiz-adv-x="448" 
d="M332 0h-215v1393h215v-1393zM379 1563q-57 -60 -154 -60q-96 0 -152 58t-61 153l150 6q6 -67 63 -67q58 0 64 67l149 -6q-3 -92 -59 -151z" />
    <glyph glyph-name="uni012D" unicode="&#x12d;" horiz-adv-x="321" 
d="M260 0h-199v727h199v-727zM315 897q-56 -59 -153 -59q-96 0 -152 58t-61 153l149 6q6 -68 64 -68q57 0 63 68l150 -6q-3 -92 -60 -152z" />
    <glyph glyph-name="Iogonek" unicode="&#x12e;" horiz-adv-x="448" 
d="M332 33l-76 -121q-23 -35 -35 -66q-8 -19 -8 -41v-6q0 -47 51 -47q27 0 53 15l39 -95q-46 -28 -108 -28q-71 0 -118.5 34.5t-47.5 100.5v8q0 65 65 150l50 63h-80v1393h215v-1360z" />
    <glyph glyph-name="iogonek" unicode="&#x12f;" horiz-adv-x="321" 
d="M274 -338q-8 -4 -24 -10q-21 -8 -68 -8q-71 0 -118.5 34.5t-47.5 100.5v8q0 64 66 150l49 63h-70v727h199v-704l-70 -111q-43 -68 -43 -107v-6q0 -47 52 -47q27 0 53 15l39 -95zM207 1114q12 -11 35 -31q32 -32 32 -84q0 -49 -32 -81q-33 -33 -82 -33q-46 0 -80.5 33
t-34.5 81q0 49 34.5 82t80.5 33h47z" />
    <glyph glyph-name="Idotaccent" unicode="&#x130;" horiz-adv-x="448" 
d="M332 0h-215v1393h215v-1393zM303 1546q-33 -33 -78 -33q-44 0 -77 32.5t-33 78.5t33 78.5t77 32.5t77.5 -32.5t33.5 -78.5q0 -49 -33 -78z" />
    <glyph glyph-name="dotlessi" unicode="&#x131;" horiz-adv-x="321" 
d="M260 727v-727h-199v727h199z" />
    <glyph glyph-name="IJ" unicode="&#x132;" horiz-adv-x="1214" 
d="M764 -16q-195 0 -303 131l137 139q34 -37 68.5 -57.5t81.5 -20.5q143 0 143 178v1039h215v-1047q0 -177 -90 -269.5t-252 -92.5zM117 0v1393h215v-1393h-215z" />
    <glyph glyph-name="ij" unicode="&#x133;" horiz-adv-x="643" 
d="M383 727h199v-924q0 -117 -58 -179t-168 -62q-84 0 -127 26l50 162q20 -12 47 -12q26 0 41.5 17.5t15.5 51.5v920zM61 0v727h199v-727h-199zM80 1083q36 31 80 31q48 0 81 -32.5t33 -82.5q0 -49 -33 -81.5t-81 -32.5q-46 0 -80.5 33t-34.5 81q0 49 35 84zM401 918
q-34 34 -34 81q0 50 34 82.5t80 32.5q48 0 81.5 -32.5t33.5 -82.5q0 -49 -33.5 -81.5t-81.5 -32.5q-47 0 -80 33z" />
    <glyph glyph-name="Jcircumflex" unicode="&#x134;" horiz-adv-x="765" 
d="M442 1393h215v-1047q0 -177 -90 -269.5t-252 -92.5q-195 0 -303 131l138 139q34 -38 68 -58t81 -20q143 0 143 178v1039zM485 1489h-161l219 309h14l219 -309h-166l-61 82z" />
    <glyph glyph-name="jcircumflex" unicode="&#x135;" horiz-adv-x="321" 
d="M61 -227v34v920h199v-924q0 -117 -57.5 -179t-167.5 -62q-84 0 -127 26l49 162q20 -12 47 -12q22 0 57 35zM217 823l-61 82l-64 -82h-162l220 310h14l219 -310h-166z" />
    <glyph glyph-name="Kcommaaccent" unicode="&#x136;" horiz-adv-x="972" 
d="M700 1393h224l-357 -697l389 -696h-241l-287 508l-104 -166v-342h-213v1393h213v-731zM461 -80h49q49 0 84 -35t35 -84q0 -51 -35 -116l-78 -140h-94l43 150q-35 13 -54.5 41t-19.5 65q0 52 70 119z" />
    <glyph glyph-name="kcommaaccent" unicode="&#x137;" horiz-adv-x="657" 
d="M258 473l162 254h217l-205 -289l225 -438h-223l-131 258l-45 -65v-193h-199v1436h199v-963zM289 -82h49q49 0 84 -35t35 -84q0 -51 -35 -116l-78 -140h-94l43 150q-35 13 -54.5 41t-19.5 65q0 52 70 119z" />
    <glyph glyph-name="Lacute" unicode="&#x139;" horiz-adv-x="813" 
d="M326 188h434v-188h-649v1393h215v-1205zM141 1499l64 291h223l-131 -291h-156z" />
    <glyph glyph-name="lacute" unicode="&#x13a;" horiz-adv-x="321" 
d="M260 1436v-1436h-199v1436h199zM78 1542l63 291h224l-132 -291h-155z" />
    <glyph glyph-name="Lcommaaccent" unicode="&#x13b;" horiz-adv-x="813" 
d="M326 188h434v-188h-649v1393h215v-1205zM387 -80h49q49 0 84 -35t35 -84q0 -51 -35 -116l-78 -140h-94l43 150q-35 13 -54.5 41t-19.5 65q0 52 70 119z" />
    <glyph glyph-name="lcommaaccent" unicode="&#x13c;" horiz-adv-x="321" 
d="M61 1436h199v-1436h-199v1436zM111 -80h49q49 0 84 -35t35 -84q0 -51 -35 -116l-78 -140h-94l43 150q-35 13 -54.5 41t-19.5 65q0 52 70 119z" />
    <glyph glyph-name="Lcaron" unicode="&#x13d;" horiz-adv-x="813" 
d="M326 188h434v-188h-649v1393h215v-1205zM741 1192q-6 -12 -16 -35l-90 -184h-100l53 194q-38 13 -59 43.5t-21 71.5q0 54 37.5 90.5t89.5 36.5t89.5 -36.5t37.5 -90.5q0 -32 -21 -90z" />
    <glyph glyph-name="lcaron" unicode="&#x13e;" horiz-adv-x="370" 
d="M260 0h-199v1436h199v-1436zM315 1372q12 12 39 37q38 35 88 35q52 0 89.5 -36.5t37.5 -90.5q0 -49 -37 -125l-90 -184h-100l53 194q-38 13 -59 43.5t-21 71.5v55z" />
    <glyph glyph-name="Ldot" unicode="&#x13f;" horiz-adv-x="833" 
d="M760 0h-649v1393h215v-1205h434v-188zM772 616q0 -59 -39 -96t-94 -37q-56 0 -95.5 37.5t-39.5 95.5q0 59 39.5 96.5t95.5 37.5q55 0 94 -37.5t39 -96.5z" />
    <glyph glyph-name="ldot" unicode="&#x140;" horiz-adv-x="704" 
d="M260 1436v-1436h-199v1436h199zM608 520q-40 -37 -94 -37q-56 0 -95.5 37.5t-39.5 95.5q0 59 39.5 96.5t95.5 37.5q55 0 94 -37.5t39 -96.5q0 -60 -39 -96z" />
    <glyph glyph-name="Lslash" unicode="&#x141;" horiz-adv-x="813" 
d="M326 598l264 98v-180l-264 -98v-230h434v-188h-649v340l-91 -33v180l91 33v873h215v-795z" />
    <glyph glyph-name="lslash" unicode="&#x142;" horiz-adv-x="362" 
d="M358 526l-77 -55v-471h-199v330l-66 -47v184l66 47v922h199v-781l77 56v-185z" />
    <glyph glyph-name="Nacute" unicode="&#x143;" horiz-adv-x="1030" 
d="M723 547q0 1 -0.5 15t-1.5 35.5t-2 47t-1.5 53.5t-0.5 50v645h203v-1405h-27l-485 690q-15 18 -33.5 45.5t-31.5 48.5t-25 40l-11 19l2 -20q0 -17 2 -82t2 -94v-635h-202v1405h26l486 -698q92 -144 100 -160zM473 1790h223l-131 -291h-155z" />
    <glyph glyph-name="nacute" unicode="&#x144;" horiz-adv-x="688" 
d="M356 561q-46 0 -72 -26t-26 -78v-457h-199v727h199v-82q57 100 178 100q90 0 145.5 -64t55.5 -187v-494h-199v471q0 43 -22.5 66.5t-59.5 23.5zM549 1124l-131 -290h-156l64 290h223z" />
    <glyph glyph-name="Ncommaaccent" unicode="&#x145;" horiz-adv-x="1030" 
d="M723 549v20q-2 14 -2 52q-4 78 -4 127v645h203v-1405h-27l-485 690q-15 18 -33.5 45.5t-31.5 48.5t-25 40l-11 19l2 -20q0 -17 2 -82t2 -94v-635h-202v1405h26l486 -698q92 -144 100 -160v2zM586 -80l35 -35q34 -34 34 -84q0 -52 -34 -116l-78 -140h-94l43 150
q-35 13 -54.5 41t-19.5 65q0 51 34.5 85t84.5 34h49z" />
    <glyph glyph-name="ncommaaccent" unicode="&#x146;" horiz-adv-x="688" 
d="M438 0v471q0 46 -22 68q-25 22 -60 22q-46 0 -72 -26t-26 -78v-457h-199v727h199v-82q57 100 178 100q90 0 145.5 -64t55.5 -187v-494h-199zM397 -80l35 -35q35 -35 35 -84q0 -51 -35 -116l-78 -140h-94l43 150q-35 13 -54.5 41t-19.5 65q0 51 34.5 85t84.5 34h49z" />
    <glyph glyph-name="Ncaron" unicode="&#x147;" horiz-adv-x="1030" 
d="M711 569q10 -20 12 -22q0 1 -0.5 15t-1.5 35.5t-2 47t-1.5 53.5t-0.5 50v645h203v-1405h-27l-485 690q-15 18 -33.5 45.5t-31.5 48.5t-25 40l-11 19l2 -20q0 -17 2 -82t2 -94v-635h-202v1405h26l486 -698q80 -123 88 -138zM438 1776l62 -82l63 82h162l-219 -310h-14
l-220 310h166z" />
    <glyph glyph-name="ncaron" unicode="&#x148;" horiz-adv-x="688" 
d="M356 561q-46 0 -72 -26t-26 -78v-457h-199v727h199v-82q57 100 178 100q90 0 145.5 -64t55.5 -187v-494h-199v471q0 43 -22.5 66.5t-59.5 23.5zM358 801h-14l-219 309h166l61 -82l64 82h162z" />
    <glyph glyph-name="napostrophe" unicode="&#x149;" horiz-adv-x="915" 
d="M485 0h-198v727h198v-82q57 100 179 100q90 0 145 -64t55 -187v-494h-198v471q0 43 -22.5 66.5t-59.5 23.5q-46 0 -72.5 -26t-26.5 -78v-457zM70 1380q33 33 84 33q50 0 84 -34t34 -85q0 -52 -34 -116l-78 -140h-94l43 150q-35 13 -54.5 41t-19.5 65q0 51 35 86z" />
    <glyph glyph-name="Eng" unicode="&#x14a;" horiz-adv-x="1030" 
d="M713 -193v1151q0 256 -197 256q-77 0 -137 -47.5t-60 -126.5v-1040h-215v1393h215v-84l11 10q103 92 254 92q162 0 253 -125t91 -319v-1164q0 -116 -61.5 -178.5t-172.5 -62.5q-84 0 -127 26l49 162q20 -12 48 -12q49 0 49 69z" />
    <glyph glyph-name="eng" unicode="&#x14b;" horiz-adv-x="688" 
d="M365 -262h16q26 0 41.5 17.5t15.5 51.5v664q0 43 -22.5 66.5t-59.5 23.5q-46 0 -72 -26t-26 -78v-457h-199v727h199v-82q57 100 178 100q90 0 145.5 -64t55.5 -187v-691q0 -117 -57.5 -179t-167.5 -62q-84 0 -127 26l49 162q14 -4 31 -12z" />
    <glyph glyph-name="Omacron" unicode="&#x14c;" horiz-adv-x="1126" 
d="M768 29q-92 -47 -205 -47q-228 0 -366 184.5t-138 511.5v37q0 326 138 510t366 184t366 -184t138 -510v-37q0 -244 -79.5 -412t-219.5 -237zM846 684v25q0 247 -75.5 377.5t-207.5 130.5t-208 -130.5t-76 -377.5v-25q0 -247 76 -377.5t208 -130.5t207.5 130.5t75.5 377.5
zM389 1542v148h344v-148h-344z" />
    <glyph glyph-name="omacron" unicode="&#x14d;" horiz-adv-x="710" 
d="M588 649q86 -100 86 -272v-27q0 -172 -85.5 -270t-232.5 -98q-144 0 -231.5 98.5t-87.5 269.5v27q0 171 87.5 269.5t231.5 98.5q145 0 232 -96zM438 526q-30 49 -84 49q-112 0 -112 -198v-25q0 -200 112 -200q55 0 84 50.5t29 149.5v25q0 96 -29 149zM528 877h-344v147
h344v-147z" />
    <glyph glyph-name="Obreve" unicode="&#x14e;" horiz-adv-x="1126" 
d="M563 -18q-228 0 -366 184.5t-138 511.5v37q0 326 138 510t366 184t366 -184t138 -510v-37q0 -327 -138 -511.5t-366 -184.5zM770 1090q-77 127 -207 127q-132 0 -208 -130.5t-76 -377.5v-25q0 -247 76 -377.5t208 -130.5t207.5 130.5t75.5 377.5v25q0 253 -76 381z
M774 1714q-5 -95 -61 -153t-152 -58t-152 58t-61 153l150 6q6 -67 63 -67q58 0 64 67z" />
    <glyph glyph-name="obreve" unicode="&#x14f;" horiz-adv-x="710" 
d="M356 -18q-144 0 -231.5 98.5t-87.5 269.5v27q0 171 87.5 269.5t231.5 98.5q147 0 232.5 -98t85.5 -270v-27q0 -172 -85.5 -270t-232.5 -98zM467 352v25q0 198 -113 198q-112 0 -112 -198v-25q0 -200 112 -200q55 0 84 50.5t29 149.5zM569 1049q-5 -95 -61 -153t-152 -58
t-152 58t-61 153l150 6q6 -68 63 -68q58 0 64 68z" />
    <glyph glyph-name="Ohungarumlaut" unicode="&#x150;" horiz-adv-x="1126" 
d="M928 164q-135 -182 -365 -182q-228 0 -366 184.5t-138 511.5v37q0 326 138 510t366 184t366 -184t138 -510v-37q0 -329 -139 -514zM846 684v25q0 247 -75.5 377.5t-207.5 130.5t-208 -130.5t-76 -377.5v-25q0 -247 76 -377.5t208 -130.5t207.5 130.5t75.5 377.5z
M360 1499l58 291h190l-100 -291h-148zM670 1790h190l-100 -291h-148z" />
    <glyph glyph-name="ohungarumlaut" unicode="&#x151;" horiz-adv-x="710" 
d="M588 80q-85 -98 -232 -98q-144 0 -231.5 98.5t-87.5 269.5v27q0 171 87.5 269.5t231.5 98.5q147 0 232.5 -98t85.5 -270v-27q0 -175 -86 -270zM438 526q-30 49 -84 49q-112 0 -112 -198v-25q0 -200 112 -200q55 0 84 50.5t29 149.5v25q0 96 -29 149zM156 834l57 290h190
l-100 -290h-147zM465 1124h190l-100 -290h-147z" />
    <glyph glyph-name="OE" unicode="&#x152;" horiz-adv-x="1437" 
d="M913 449v-261h457v-188h-727q-269 0 -426.5 183t-157.5 497v33q0 312 157 496t427 184h711v-189h-441v-567h369v-188h-369zM281 942v-235v-21q0 -239 92 -369q89 -129 282 -129h45v1016h-45q-177 0 -374 -262z" />
    <glyph glyph-name="oe" unicode="&#x153;" horiz-adv-x="1105" 
d="M1071 371v-78h-397q15 -137 141 -137q72 0 146 43l77 -156q-92 -61 -225 -61q-164 0 -240 102q-76 -102 -217 -102q-144 0 -231.5 98.5t-87.5 269.5v27q0 171 87.5 269.5t231.5 98.5q141 0 217 -104q74 104 205 104q144 0 218.5 -100.5t74.5 -273.5zM242 377v-25
q0 -100 30 -149q26 -51 82 -51q55 0 84 50.5t29 149.5v25q0 198 -113 198q-112 0 -112 -198zM688 582q-6 -50 -16 -146h198q-9 146 -92 146h-90z" />
    <glyph glyph-name="Racute" unicode="&#x154;" horiz-adv-x="950" 
d="M676 0l-187 348q-44 -8 -98 -8h-65v-340h-215v1393h280q228 0 365 -137.5t137 -378.5v-21q0 -148 -57 -259.5t-158 -176.5l229 -420h-231zM608 1116q-70 88 -219 88h-63v-686h63q144 0 216.5 91t72.5 247v16q0 156 -70 244zM340 1499l63 291h224l-131 -291h-156z" />
    <glyph glyph-name="racute" unicode="&#x155;" horiz-adv-x="489" 
d="M258 393v-393h-199v727h199v-90q48 104 148 104q42 0 75 -20l-47 -178q-46 12 -59 12q-55 0 -86 -36t-31 -126zM342 834h-156l64 290h223z" />
    <glyph glyph-name="Rcommaaccent" unicode="&#x156;" horiz-adv-x="950" 
d="M688 1323l66 -66q65 -68 102 -161t37 -219v-21q0 -148 -57 -259.5t-158 -176.5l229 -420h-231l-187 348q-44 -8 -98 -8h-65v-340h-215v1393h280q114 0 297 -70zM678 856v16q0 159 -71.5 245.5t-217.5 86.5h-63v-686h63q144 0 216.5 91t72.5 247zM528 -80l35 -35
q35 -35 35 -84q0 -51 -35 -116l-78 -140h-94l43 150q-35 13 -54.5 41t-19.5 65q0 51 34.5 85t84.5 34h49z" />
    <glyph glyph-name="rcommaaccent" unicode="&#x157;" horiz-adv-x="489" 
d="M326 555l-33 -33q-35 -35 -35 -129v-393h-199v727h199v-90q25 54 64 80q40 24 84 24q42 0 75 -20l-47 -178q-46 12 -59 12h-49zM276 -147v-52q0 -33 -8 -57q-3 -8 -7 -17t-9.5 -21.5t-9.5 -20.5l-78 -140h-94l43 150q-35 13 -54.5 41t-19.5 65q0 51 34.5 85t84.5 34
q48 0 118 -67z" />
    <glyph glyph-name="Rcaron" unicode="&#x158;" horiz-adv-x="950" 
d="M676 0l-187 348q-44 -8 -98 -8h-65v-340h-215v1393h280q228 0 365 -137.5t137 -378.5v-21q0 -148 -57 -259.5t-158 -176.5l229 -420h-231zM678 856v16q0 159 -71.5 245.5t-217.5 86.5h-63v-686h63q144 0 216.5 91t72.5 247zM383 1776l61 -82l64 82h162l-219 -310h-15
l-219 310h166z" />
    <glyph glyph-name="rcaron" unicode="&#x159;" horiz-adv-x="489" 
d="M293 522q-35 -35 -35 -129v-393h-199v727h199v-90q48 104 148 104q42 0 75 -20l-47 -178q-46 12 -59 12q-49 0 -82 -33zM276 801h-14l-219 309h166l61 -82l64 82h162z" />
    <glyph glyph-name="Sacute" unicode="&#x15a;" horiz-adv-x="817" 
d="M428 1221q-63 0 -106 -37.5t-43 -96.5v-10q0 -63 31 -109t108 -110l139 -117q108 -90 157.5 -175.5t49.5 -196.5v-21q0 -162 -106 -264t-293 -102q-219 0 -355 139l127 151q50 -47 101.5 -73.5t119.5 -26.5q88 0 140.5 47t52.5 125v16q0 61 -31.5 111.5t-109.5 116.5
l-136 114q-105 92 -153.5 172.5t-48.5 194.5v14q0 145 97.5 235.5t252.5 90.5q94 0 160 -21.5t131 -66.5l-103 -164q-44 31 -85 47.5t-97 16.5zM481 1499h-155l63 291h223z" />
    <glyph glyph-name="sacute" unicode="&#x15b;" horiz-adv-x="534" 
d="M319 195v6q0 21 -20 38t-80 55l-24 15q-73 45 -110.5 96.5t-37.5 124.5v9q0 94 64 150t170 56q113 0 198 -63l-92 -129q-47 37 -100 37q-29 0 -45.5 -12.5t-16.5 -32.5v-4q0 -6 1 -12t4.5 -11.5t6.5 -9.5t10 -10t12 -9.5t16 -10.5t18 -11t22.5 -12.5t24.5 -14.5
q81 -48 124.5 -104t43.5 -131v-10q0 -95 -67.5 -154t-184.5 -59q-158 0 -242 96l105 125q58 -62 125 -62q75 0 75 54zM350 834h-155l63 290h223z" />
    <glyph glyph-name="Scircumflex" unicode="&#x15c;" horiz-adv-x="817" 
d="M557 741q108 -90 157.5 -175.5t49.5 -196.5v-21q0 -162 -106 -264t-293 -102q-219 0 -355 139l127 151q50 -47 101.5 -73.5t119.5 -26.5q88 0 140.5 47t52.5 125v16q0 61 -31.5 111.5t-109.5 116.5l-136 114q-105 92 -153.5 172.5t-48.5 194.5v14q0 145 97.5 235.5
t252.5 90.5q94 0 160 -21.5t131 -66.5l-103 -164q-44 31 -85 47.5t-97 16.5q-63 0 -106 -37.5t-43 -96.5v-10q0 -63 31 -109t108 -110zM633 1489h-166l-61 82l-64 -82h-162l219 309h15z" />
    <glyph glyph-name="scircumflex" unicode="&#x15d;" horiz-adv-x="534" 
d="M479 682l-92 -129q-47 37 -100 37q-29 0 -45.5 -12.5t-16.5 -32.5v-4q0 -6 1 -12t4.5 -11.5t6.5 -9.5t10 -10t12 -9.5t16 -10.5t18 -11t22.5 -12.5t24.5 -14.5q81 -48 124.5 -104t43.5 -131v-10q0 -95 -67.5 -154t-184.5 -59q-158 0 -242 96l105 125q58 -62 125 -62
q75 0 75 54v6q0 21 -20 38t-80 55l-24 15q-73 45 -110.5 96.5t-37.5 124.5v9q0 94 64 150t170 56q113 0 198 -63zM502 823h-166l-62 82l-63 -82h-162l219 310h15z" />
    <glyph glyph-name="Scedilla" unicode="&#x15e;" horiz-adv-x="817" 
d="M283 172h75q89 0 142 47q51 45 51 125v16q0 61 -31.5 111.5t-109.5 116.5l-136 114q-105 92 -153.5 172.5t-48.5 194.5v14q0 145 97.5 235.5t252.5 90.5q94 0 160 -21.5t131 -66.5l-103 -164q-44 31 -85 47.5t-97 16.5q-63 0 -106 -37.5t-43 -96.5v-10q0 -63 31 -109
t108 -110l139 -117q108 -90 157.5 -175.5t49.5 -196.5v-21q0 -151 -92 -251t-256 -113v-56q110 -23 110 -131v-8q0 -69 -47 -107t-119 -38q-63 0 -106 26l45 97q18 -15 49 -15q53 0 53 43v6q0 41 -51 41h-37v142q-186 13 -303 137l127 151q35 -35 146 -100z" />
    <glyph glyph-name="scedilla" unicode="&#x15f;" horiz-adv-x="534" 
d="M371 567q-9 5 -25 13q-27 10 -59 10q-29 0 -45.5 -12.5t-16.5 -32.5v-4q0 -6 1 -12t4.5 -11.5t6.5 -9.5t10 -10t12 -9.5t16 -10.5t18 -11t22.5 -12.5t24.5 -14.5q81 -48 124.5 -104t43.5 -131v-10q0 -87 -56 -144t-155 -67v-56q111 -24 111 -131v-8q0 -69 -47 -107
t-119 -38q-64 0 -107 26l45 97q18 -15 49 -15q54 0 54 43v6q0 41 -52 41h-36v144q-116 15 -181 92l105 125q58 -62 125 -62q75 0 75 54v6q0 21 -20 38t-80 55l-24 15q-73 45 -110.5 96.5t-37.5 124.5v9q0 94 64 150t170 56q113 0 198 -63l-92 -129z" />
    <glyph glyph-name="Scaron" unicode="&#x160;" horiz-adv-x="817" 
d="M557 741q108 -90 157.5 -175.5t49.5 -196.5v-21q0 -162 -106 -264t-293 -102q-219 0 -355 139l127 151q50 -47 101.5 -73.5t119.5 -26.5q88 0 140.5 47t52.5 125v16q0 61 -31.5 111.5t-109.5 116.5l-136 114q-105 92 -153.5 172.5t-48.5 194.5v14q0 145 97.5 235.5
t252.5 90.5q94 0 160 -21.5t131 -66.5l-103 -164q-44 31 -85 47.5t-97 16.5q-63 0 -106 -37.5t-43 -96.5v-10q0 -63 31 -109t108 -110zM416 1466h-15l-219 310h166l62 -82l63 82h162z" />
    <glyph glyph-name="scaron" unicode="&#x161;" horiz-adv-x="534" 
d="M479 682l-92 -129q-47 37 -100 37q-29 0 -45.5 -12.5t-16.5 -32.5v-4q0 -6 1 -12t4.5 -11.5t6.5 -9.5t10 -10t12 -9.5t16 -10.5t18 -11t22.5 -12.5t24.5 -14.5q81 -48 124.5 -104t43.5 -131v-10q0 -95 -67.5 -154t-184.5 -59q-158 0 -242 96l105 125q58 -62 125 -62
q75 0 75 54v6q0 21 -20 38t-80 55l-24 15q-73 45 -110.5 96.5t-37.5 124.5v9q0 94 64 150t170 56q113 0 198 -63zM285 801h-15l-219 309h166l62 -82l63 82h162z" />
    <glyph glyph-name="Tcommaaccent" unicode="&#x162;" horiz-adv-x="866" 
d="M471 -199q0 41 -51 41h-37v158h-57v1204h-285v189h784v-189h-284v-1204h-56v-72q111 -24 111 -131v-8q0 -69 -47 -107t-119 -38q-63 0 -106 26l45 97q18 -15 49 -15q53 0 53 43v6z" />
    <glyph glyph-name="tcommaaccent" unicode="&#x163;" horiz-adv-x="456" 
d="M408 -113q30 -30 30 -90v-8q0 -69 -47 -107t-119 -38q-63 0 -106 26l45 97q18 -15 49 -15q53 0 53 43v6q0 41 -51 41h-37v152q-46 15 -73 45q-56 56 -56 180v346h-69v162h69v326h199v-326h129v-162h-129v-346q0 -37 11.5 -52t35.5 -15q20 0 47 16l62 -143
q-24 -17 -58 -29q-27 -9 -65 -12v-56q48 -9 80 -41z" />
    <glyph glyph-name="Tcaron" unicode="&#x164;" horiz-adv-x="866" 
d="M541 0h-215v1204h-285v189h784v-189h-284v-1204zM367 1776l61 -82l64 82h161l-219 -310h-14l-219 310h166z" />
    <glyph glyph-name="tcaron" unicode="&#x165;" horiz-adv-x="456" 
d="M381 164q2 2 8 4l62 -143q-55 -41 -146 -41q-209 0 -209 235v346h-69v162h69v326h199v-326h129v-162h-129v-346q0 -37 11.5 -52t35.5 -15q18 0 39 12zM358 1337q12 12 39 37q38 35 88 35q52 0 89.5 -36.5t37.5 -90.5q0 -49 -37 -125l-90 -184h-100l53 194
q-38 13 -59 43.5t-21 71.5v55z" />
    <glyph glyph-name="Tbar" unicode="&#x166;" horiz-adv-x="866" 
d="M541 762h207v-184h-207v-578h-215v578h-205v184h205v442h-285v189h784v-189h-284v-442z" />
    <glyph glyph-name="tbar" unicode="&#x167;" horiz-adv-x="456" 
d="M426 315h-131v-96q0 -37 11.5 -52t35.5 -15q20 0 47 16l62 -143q-55 -41 -146 -41q-209 0 -209 235v96h-69v148h69v102h-69v162h69v326h199v-326h129v-162h-129v-102h131v-148z" />
    <glyph glyph-name="Utilde" unicode="&#x168;" horiz-adv-x="1032" 
d="M813 88q-109 -106 -297 -106q-187 0 -299.5 109.5t-112.5 318.5v983h215v-979q0 -116 50 -176t147 -60t147 60t50 176v979h215v-983q0 -207 -115 -322zM608 1675q12 12 15 43l133 -10q-10 -102 -51.5 -155.5t-104.5 -53.5q-43 0 -88 25l-35 16q-13 8 -28 8
q-18 0 -28.5 -11t-14.5 -42l-134 10q21 209 156 209q38 0 88.5 -24.5t63.5 -24.5q15 0 28 10z" />
    <glyph glyph-name="utilde" unicode="&#x169;" horiz-adv-x="690" 
d="M432 0v84q-58 -102 -178 -102q-90 0 -145.5 65t-55.5 189v491h199v-471q0 -42 23 -66t59 -24q46 0 72 26.5t26 79.5v455h199v-727h-199zM428 834q-45 0 -88 24l-35 16q-15 9 -29 9q-18 0 -28.5 -11.5t-14.5 -42.5l-133 11q21 209 156 209q38 0 88.5 -25t63.5 -25
q18 0 28.5 11.5t14.5 42.5l133 -11q-10 -102 -51.5 -155t-104.5 -53z" />
    <glyph glyph-name="Umacron" unicode="&#x16a;" horiz-adv-x="1032" 
d="M516 -18q-187 0 -299.5 109.5t-112.5 318.5v983h215v-979q0 -116 50 -176t147 -60t147 60t50 176v979h215v-983q0 -209 -112.5 -318.5t-299.5 -109.5zM688 1542h-344v148h344v-148z" />
    <glyph glyph-name="umacron" unicode="&#x16b;" horiz-adv-x="690" 
d="M334 166q46 0 72 26.5t26 79.5v455h199v-727h-199v84q-58 -102 -178 -102q-90 0 -145.5 65t-55.5 189v491h199v-471q0 -42 23 -66t59 -24zM516 877h-344v147h344v-147z" />
    <glyph glyph-name="Ubreve" unicode="&#x16c;" horiz-adv-x="1032" 
d="M713 414v979h215v-983q0 -209 -112.5 -318.5t-299.5 -109.5t-299.5 109.5t-112.5 318.5v983h215v-979q0 -116 50 -176t147 -60t147 60t50 176zM729 1714q-5 -95 -61 -153t-152 -58t-152 58t-61 153l150 6q6 -67 63 -67q58 0 64 67z" />
    <glyph glyph-name="ubreve" unicode="&#x16d;" horiz-adv-x="690" 
d="M432 272v455h199v-727h-199v84q-58 -102 -178 -102q-90 0 -145.5 65t-55.5 189v491h199v-471q0 -42 23 -66t59 -24q46 0 72 26.5t26 79.5zM408 1055l149 -6q-5 -95 -61 -153t-152 -58t-152 58t-61 153l150 6q6 -68 63 -68q58 0 64 68z" />
    <glyph glyph-name="Uring" unicode="&#x16e;" horiz-adv-x="1032" 
d="M713 414v979h215v-983q0 -209 -112.5 -318.5t-299.5 -109.5t-299.5 109.5t-112.5 318.5v983h215v-979q0 -116 50 -176t147 -60t147 60t50 176zM639 1759q51 -51 51 -117t-52.5 -114.5t-121.5 -48.5t-121.5 48.5t-52.5 114.5q0 67 52.5 116.5t121.5 49.5q71 0 123 -49z
M561 1692q-19 16 -45 16q-27 0 -44 -18t-17 -48t17 -46.5t44 -16.5t44.5 16.5t17.5 46.5t-17 50z" />
    <glyph glyph-name="uring" unicode="&#x16f;" horiz-adv-x="690" 
d="M432 84q-58 -102 -178 -102q-90 0 -145.5 65t-55.5 189v491h199v-471q0 -42 23 -66t59 -24q46 0 72 26.5t26 79.5v455h199v-727h-199v84zM412 827q-32 -14 -68 -14q-69 0 -121.5 49t-52.5 115q0 67 52.5 116.5t121.5 49.5t121.5 -49.5t52.5 -116.5q0 -48 -30 -89.5
t-76 -60.5zM283 977q0 -30 17 -47t44 -17t44.5 17t17.5 47t-17.5 47.5t-44.5 17.5t-44 -17.5t-17 -47.5z" />
    <glyph glyph-name="Uhungarumlaut" unicode="&#x170;" horiz-adv-x="1032" 
d="M713 414v979h215v-983q0 -209 -112.5 -318.5t-299.5 -109.5t-299.5 109.5t-112.5 318.5v983h215v-979q0 -116 50 -176t147 -60t147 60t50 176zM315 1499l58 291h190l-100 -291h-148zM815 1790l-100 -291h-148l58 291h190z" />
    <glyph glyph-name="uhungarumlaut" unicode="&#x171;" horiz-adv-x="690" 
d="M432 272v455h199v-727h-199v84q-58 -102 -178 -102q-90 0 -145.5 65t-55.5 189v491h199v-471q0 -42 23 -66t59 -24q46 0 72 26.5t26 79.5zM143 834l58 290h190l-100 -290h-148zM453 1124h190l-100 -290h-148z" />
    <glyph glyph-name="Uogonek" unicode="&#x172;" horiz-adv-x="1032" 
d="M778 35q-41 -12 -125 -35l-55 -88q-43 -68 -43 -107v-6q0 -47 51 -47q27 0 53 15l39 -95q-46 -28 -108 -28q-71 0 -118.5 34.5t-47.5 100.5v8q0 65 65 150l35 45h-8q-187 0 -299.5 109.5t-112.5 318.5v983h215v-979q0 -116 50 -176t147 -60t147 60t50 176v979h215v-983
q0 -176 -150 -375z" />
    <glyph glyph-name="uogonek" unicode="&#x173;" horiz-adv-x="690" 
d="M631 29l-74 -117q-23 -35 -35 -66q-8 -19 -8 -41v-6q0 -47 51 -47q27 0 53 15l39 -95q-46 -28 -108 -28q-71 0 -118.5 34.5t-47.5 100.5v8q0 64 66 150l49 63h-66v84q-58 -102 -178 -102q-90 0 -145.5 65t-55.5 189v491h199v-471q0 -42 23 -66t59 -24q46 0 72 26.5
t26 79.5v455h199v-698z" />
    <glyph glyph-name="Wcircumflex" unicode="&#x174;" horiz-adv-x="1374" 
d="M719 784q-25 77 -25 86q0 -3 -10.5 -40.5t-26.5 -92t-30 -96.5l-219 -651h-27l-358 1403h215l141 -557q8 -38 22.5 -101.5t23.5 -104.5t9 -46q0 4 10 45t27.5 104t32.5 109l180 565h23l180 -565q7 -23 47 -168q4 -19 22 -90q3 13 5.5 27.5t6 32t5.5 28.5q23 114 37 164
l137 557h205l-359 -1403h-26l-207 651q-31 94 -41 143zM748 1499l-62 82l-63 -82h-162l219 309h14l219 -309h-165z" />
    <glyph glyph-name="wcircumflex" unicode="&#x175;" horiz-adv-x="876" 
d="M563 479q9 -32 12 -39q6 -14 15 -41q5 31 8 41q10 42 23 82l65 205h178l-235 -739h-21l-123 291q-26 57 -39 108l-4 -10q-24 -69 -36 -98l-125 -291h-21l-248 739h203l64 -205q3 -13 11 -40.5t11 -41.5q10 -35 12 -41q9 27 15 41q25 72 28 80l86 217h21l84 -217
q3 -7 8 -20.5t8 -20.5zM430 1133h14l220 -310h-166l-62 82l-63 -82h-162z" />
    <glyph glyph-name="Ycircumflex" unicode="&#x176;" horiz-adv-x="968" 
d="M516 735q15 71 43 146l182 512h211l-358 -963v-430h-215v428l-363 965h220l186 -512q9 -24 19.5 -54.5t18.5 -60t15 -53.5t12 -43t5 -21q0 5 24 86zM715 1489h-166l-62 82l-63 -82h-162l219 309h15z" />
    <glyph glyph-name="ycircumflex" unicode="&#x177;" horiz-adv-x="649" 
d="M342 328q4 12 15.5 57.5t17.5 67.5l86 274h184l-375 -1147h-186l162 494l-242 653h205l90 -274q39 -124 39 -144q0 1 0.5 3.5t1.5 7t2 8.5zM336 905l-64 -82h-161l219 310h14l219 -310h-166z" />
    <glyph glyph-name="Ydieresis" unicode="&#x178;" horiz-adv-x="968" 
d="M741 1393h211l-358 -963v-430h-215v428l-363 965h220l186 -512q9 -24 19.5 -54.5t18.5 -60t15 -53.5t12 -43t5 -21q0 3 10 41.5t26.5 95.5t30.5 95zM559 1546q-35 30 -35 78q0 46 33.5 78.5t77.5 32.5t77 -32.5t33 -78.5t-33 -78.5t-77 -32.5q-43 0 -76 33zM233 1624
q0 46 33.5 78.5t77.5 32.5t77.5 -32.5t33.5 -78.5t-33.5 -78.5t-77.5 -32.5t-77.5 32.5t-33.5 78.5z" />
    <glyph glyph-name="Zacute" unicode="&#x179;" horiz-adv-x="874" 
d="M815 0h-795v16l510 1188h-428v189h734v-17l-510 -1188h489v-188zM375 1499l63 291h224l-132 -291h-155z" />
    <glyph glyph-name="zacute" unicode="&#x17a;" horiz-adv-x="567" 
d="M524 0h-506v12l263 557h-220v158h484v-12l-260 -555h239v-160zM209 834l63 290h224l-131 -290h-156z" />
    <glyph glyph-name="Zdotaccent" unicode="&#x17b;" horiz-adv-x="874" 
d="M815 0h-795v16l510 1188h-428v189h734v-17l-510 -1188h489v-188zM346 1624q0 46 33.5 78.5t77.5 32.5t77 -32.5t33 -78.5t-33 -78.5t-77 -32.5t-77.5 32.5t-33.5 78.5z" />
    <glyph glyph-name="zdotaccent" unicode="&#x17c;" horiz-adv-x="567" 
d="M524 160v-160h-506v12l263 557h-220v158h484v-12l-260 -555h239zM291 1069q44 0 77 -32.5t33 -78.5t-33 -78t-77 -32t-77.5 32t-33.5 78t33.5 78.5t77.5 32.5z" />
    <glyph glyph-name="Zcaron" unicode="&#x17d;" horiz-adv-x="874" 
d="M815 0h-795v16l510 1188h-428v189h734v-17l-510 -1188h489v-188zM451 1466l-220 310h166l62 -82l63 82h162l-219 -310h-14z" />
    <glyph glyph-name="zcaron" unicode="&#x17e;" horiz-adv-x="567" 
d="M524 0h-506v12l263 557h-220v158h484v-12l-260 -555h239v-160zM285 801l-219 309h165l62 -82l63 82h162l-219 -309h-14z" />
    <glyph glyph-name="longs" unicode="&#x17f;" horiz-adv-x="464" 
d="M375 1300h-23q-25 0 -39 -20q-18 -21 -18 -72v-1208h-199v565h-69v162h69v479q0 132 62 198t170 66q98 0 145 -40l-67 -148q-3 2 -31 18z" />
    <glyph glyph-name="uni0180" unicode="&#x180;" horiz-adv-x="724" 
d="M311 745h121q79 0 141 -50.5t95 -151.5q20 -67 20 -168v-23q0 -182 -74.5 -276t-183.5 -94q-111 0 -170 92v-74h-199v879h-86v168h86v389h199v-389h168v-168h-168v-224zM483 354v19q0 97 -29.5 148.5t-84.5 51.5q-54 0 -83.5 -52t-29.5 -148v-19q0 -93 31 -147
q27 -53 82 -53t84.5 51.5t29.5 148.5z" />
    <glyph glyph-name="uni0181" unicode="&#x181;" horiz-adv-x="1142" 
d="M926 805q-27 -12 -78 -35q103 -29 176 -117q70 -88 70 -223v-27q0 -186 -117.5 -294.5t-335.5 -108.5h-350v1208h-58q-44 0 -66 -21.5t-22 -49.5q0 -25 13 -47l-172 -50q-27 44 -27 127q0 109 72 167.5t202 58.5h390q179 0 284 -93.5t105 -248.5v-19q0 -97 -86 -227z
M758 184q20 21 61 62q60 63 60 170v18q0 111 -63 174.5t-183 63.5h-133v-488h135h123zM707 1208h-91h-116v-364h123q180 0 180 176v12q0 86 -96 176z" />
    <glyph glyph-name="uni0186" unicode="&#x186;" horiz-adv-x="919" 
d="M786 256q-22 -29 -69 -88q-74 -93 -168 -137q-98 -49 -223 -49q-170 0 -287 81l88 168q48 -29 87.5 -43t90.5 -14q164 0 250 133t86 377v25q0 240 -87.5 372.5t-246.5 132.5q-49 0 -84 -12t-78 -37l-88 172q109 72 252 72q258 0 404.5 -185t146.5 -509v-37
q0 -162 -74 -422z" />
    <glyph glyph-name="uni0187" unicode="&#x187;" horiz-adv-x="997" 
d="M719 1434q8 11 26 36q48 66 156 66q83 0 127 -27l-49 -161q-20 12 -47 12q-26 0 -42 -18t-16 -52v-172h-98q-18 28 -39 47q-61 49 -143 49q-148 0 -231.5 -133t-83.5 -372v-25q0 -242 94.5 -376t265.5 -134q95 0 190 57l89 -168q-57 -37 -123 -57q-73 -24 -177 -24
q-266 0 -412.5 184.5t-146.5 511.5v37q0 321 142 507.5t377 186.5q65 0 116 -23q8 -3 19 -10z" />
    <glyph glyph-name="uni0188" unicode="&#x188;" horiz-adv-x="600" 
d="M496 176q6 4 16 10l68 -159q-59 -45 -193 -45q-166 0 -258 98t-92 272v23q0 169 86.5 269.5t218.5 100.5q48 0 80 -14q3 45 18 80q35 74 138 74q60 0 118 -25l-45 -151q-20 12 -45 12q-24 0 -38.5 -18t-14.5 -48v-135h-92q-12 17 -21 23q-24 24 -63 24q-59 0 -97 -49.5
t-38 -142.5v-21q0 -95 43 -144.5t118 -49.5q27 0 93 16z" />
    <glyph glyph-name="uni0189" unicode="&#x189;" horiz-adv-x="1044" 
d="M907 274q-25 -29 -76 -88q-80 -92 -184 -137q-107 -49 -244 -49h-292v449h-91v188h91v756h292q269 0 426.5 -183t157.5 -497v-33q0 -155 -80 -406zM569 188q33 43 99 131q98 131 98 367v21q0 497 -375 497h-65v-567h243v-188h-243v-261h65h178z" />
    <glyph glyph-name="uni018A" unicode="&#x18a;" horiz-adv-x="1220" 
d="M1081 274q-24 -29 -75 -88q-79 -91 -185 -137q-107 -49 -243 -49h-293v1208h-52q-44 0 -66 -21.5t-22 -49.5q0 -25 13 -47l-172 -50q-27 44 -27 127q0 109 72 167.5t202 58.5h345q269 0 426 -182.5t157 -497.5v-33q0 -155 -80 -406zM743 188q33 43 99 131q98 131 98 367
v21q0 497 -375 497h-65v-1016h65h178z" />
    <glyph glyph-name="uni018E" unicode="&#x18e;" horiz-adv-x="870" 
d="M156 637h381v567h-453v189h666v-1393h-682v188h469v261h-381v188z" />
    <glyph glyph-name="uni018F" unicode="&#x18f;" horiz-adv-x="1077" 
d="M797 637v72q0 246 -80.5 377t-214.5 131q-139 0 -219 -123l-166 127q134 188 391 188q223 0 366.5 -185.5t143.5 -508.5v-37q0 -327 -138 -511.5t-366 -184.5q-141 0 -247 85.5t-161 233t-55 336.5h746zM643 176q27 43 78 129q35 60 53 144h-489q16 -96 49 -158
q62 -115 180 -115h129z" />
    <glyph glyph-name="uni0190" unicode="&#x190;" horiz-adv-x="864" 
d="M567 1221h-47q-73 0 -120.5 -46t-47.5 -108v-10q0 -80 59 -130t140 -50h80v-189h-70q-121 0 -205 -73t-84 -193v-16q0 -98 59 -166t146 -68q68 0 119.5 26.5t101.5 73.5l127 -151q-136 -139 -354 -139q-189 0 -300.5 112t-111.5 295v21q0 153 95 262q64 73 165 110
q-10 4 -38 23q-63 40 -99.5 108.5t-36.5 145.5v14q0 146 102.5 241t272.5 95q139 0 266 -88l-102 -164q-35 26 -117 64z" />
    <glyph glyph-name="uni0191" unicode="&#x191;" horiz-adv-x="813" 
d="M111 -193v1586h647v-189h-432v-567h374v-188h-374v-646q0 -115 -65 -178t-177 -63q-84 0 -127 26l49 162q20 -12 47 -12q26 0 42 17.5t16 51.5z" />
    <glyph glyph-name="florin" unicode="&#x192;" horiz-adv-x="604" 
d="M385 901l-18 -264h133v-164h-146l-53 -803h-199l56 803h-97v164h107l18 262q10 136 73 201t169 65q112 0 178 -53l-82 -149q-31 22 -69 22q-62 0 -70 -84z" />
    <glyph glyph-name="uni0193" unicode="&#x193;" horiz-adv-x="1040" 
d="M760 1432q10 11 28 38q48 66 156 66q83 0 127 -27l-49 -161q-20 12 -47 12q-26 0 -41.5 -18t-15.5 -52v-172h-99q-26 29 -51 47q-69 49 -156 49q-163 0 -248 -131.5t-85 -367.5v-37q0 -241 82 -374.5t249 -133.5q88 0 154 37v242h-221v188h413v-551q-54 -39 -144.5 -71.5
t-186.5 -32.5q-277 0 -421.5 182.5t-144.5 507.5v49q0 205 63.5 359.5t188 241.5t295.5 87q65 0 119 -23q8 -5 31 -14z" />
    <glyph glyph-name="uni0194" unicode="&#x194;" horiz-adv-x="968" 
d="M504 713q4 14 10 41q39 131 45 147l182 492h211l-327 -861l200 -532h-682l201 543l-328 850h220l186 -492q38 -116 47 -147q19 -63 23 -84zM539 217q-5 14 -13 41q-14 38 -24 76q-1 3 -10.5 35t-14.5 49q-12 -44 -24 -84q-13 -43 -47 -148l-3 -6h150l-2 6z" />
    <glyph glyph-name="uni0196" unicode="&#x196;" horiz-adv-x="460" 
d="M403 195q3 2 9 4l49 -183q-43 -26 -127 -26q-114 0 -178 72.5t-64 216.5v1114h215v-1137q0 -34 16 -52t42 -18q17 0 38 9z" />
    <glyph glyph-name="uni0197" unicode="&#x197;" horiz-adv-x="456" 
d="M436 449h-100v-449h-215v449h-101v167h101v777h215v-777h100v-167z" />
    <glyph glyph-name="uni0198" unicode="&#x198;" horiz-adv-x="972" 
d="M862 1243l-12 -12q-16 -13 -25 -31l-258 -504l389 -696h-241l-287 508l-104 -166v-342h-213v1393h213v-731l313 610q41 77 95 112t128 35q65 0 119 -28q28 -16 39 -27l-94 -133q-1 1 -11 6q-24 6 -32 6h-19z" />
    <glyph glyph-name="uni0199" unicode="&#x199;" horiz-adv-x="665" 
d="M559 604q-4 -4 -12 -10q-14 -14 -23 -29l-92 -127l225 -438h-223l-131 258l-45 -65v-193h-199v1436h199v-963l100 156q43 68 89 99.5t110 31.5t105 -25q17 -8 34 -24l-84 -119q-2 2 -10 6q-18 6 -27 6h-16z" />
    <glyph glyph-name="uni019A" unicode="&#x19a;" horiz-adv-x="452" 
d="M317 1393v-777h82v-167h-82v-191q0 -34 16 -52t42 -18h47v-188h-123q-109 0 -153 58.5t-44 187.5v203h-82v167h82v777h215z" />
    <glyph glyph-name="uni019D" unicode="&#x19d;" horiz-adv-x="1030" 
d="M637 684l18 -27q13 -21 29.5 -48t26.5 -43t12 -19q0 1 -0.5 15t-1.5 35.5t-2 47t-1.5 53.5t-0.5 50v645h203v-1405h-27l-485 690q-15 18 -33.5 45.5t-31.5 48.5t-25 40l-11 19l2 -20q0 -17 2 -82t2 -94v-834q0 -117 -59.5 -179t-169.5 -62q-84 0 -127 26l49 162
q20 -12 47 -12q26 0 42 17.5t16 51.5v1600h26l486 -698z" />
    <glyph glyph-name="uni019E" unicode="&#x19e;" horiz-adv-x="688" 
d="M438 -418v889q0 46 -22 68q-25 22 -60 22q-46 0 -72 -26t-26 -78v-457h-199v727h199v-82q57 100 178 100q90 0 145.5 -64t55.5 -187v-912h-199z" />
    <glyph glyph-name="uni019F" unicode="&#x19f;" horiz-adv-x="1126" 
d="M860 1317q23 -29 68 -88q139 -191 139 -514v-37q0 -327 -138 -511.5t-366 -184.5t-366 184.5t-138 511.5v37q0 326 138 510t366 184q111 0 297 -92zM846 637v72q0 247 -75.5 377.5t-207.5 130.5t-208 -130.5t-76 -377.5v-72h567zM692 176q27 43 78 129l35 57l18 87h-522
q18 -87 55 -144q77 -129 207 -129h129z" />
    <glyph glyph-name="Ohorn" unicode="&#x1a0;" horiz-adv-x="1138" 
d="M932 1483q-2 4 -4 12q-1 3 -4 9t-4 9l172 50q26 -43 26 -127q0 -81 -44 -136.5t-138 -66.5q-10 -2 -33 -2q29 -22 60 -66q104 -167 104 -450v-37q0 -327 -138 -511.5t-366 -184.5t-366 184.5t-138 511.5v37q0 326 138 510t366 184q42 0 122 -7t134 -7q60 0 86.5 21
t26.5 50v17zM279 709v-25q0 -247 76 -377.5t208 -130.5t207.5 130.5t75.5 377.5v25q0 247 -75.5 377.5t-207.5 130.5t-208 -130.5t-76 -377.5z" />
    <glyph glyph-name="ohorn" unicode="&#x1a1;" horiz-adv-x="722" 
d="M614 815q0 4 -2 10q-1 3 -4 8.5t-4 8.5l158 45q24 -39 24 -117q0 -102 -67 -154q-36 -29 -101 -32q25 -31 37 -78q19 -71 19 -129v-27q0 -172 -85.5 -270t-232.5 -98q-144 0 -231.5 98.5t-87.5 269.5v27q0 171 87.5 269.5t231.5 98.5q41 0 86.5 -7t87.5 -7q40 0 62 18.5
t22 49.5v16zM242 477v-100v-25q0 -100 30 -149q26 -51 82 -51q55 0 84 50.5t29 149.5v25q0 198 -113 198q-54 0 -112 -98z" />
    <glyph glyph-name="uni01A4" unicode="&#x1a4;" horiz-adv-x="1107" 
d="M985 541q-22 -23 -65 -68q-139 -139 -369 -139h-51v-334h-215v1208h-52q-44 0 -66 -21.5t-22 -49.5q0 -25 13 -47l-172 -50q-27 44 -27 127q0 109 72 167.5t202 58.5h318q228 0 367 -136q139 -142 139 -380v-21q0 -117 -72 -315zM700 522q25 31 72 92q70 91 70 242v16
q0 156 -70 244t-223 88h-49v-682h49h151z" />
    <glyph glyph-name="uni01A5" unicode="&#x1a5;" horiz-adv-x="724" 
d="M311 745h121q108 0 182 -94t74 -276v-23q0 -182 -74.5 -276t-183.5 -94q-111 0 -170 92v-494h-199v1305q0 117 58 179t168 62q84 0 127 -26l-49 -162q-20 12 -48 12q-26 0 -41.5 -17.5t-15.5 -51.5v-226zM424 154q11 18 31 53q28 54 28 147v19q0 95 -28 149
q-29 51 -86 51q-54 0 -83.5 -52t-29.5 -148v-19q0 -96 29.5 -148t83.5 -52h55z" />
    <glyph glyph-name="uni01AA" unicode="&#x1aa;" horiz-adv-x="487" 
d="M242 1432q18 -23 57 -66q55 -64 55 -170v-1370q0 -34 16 -52t42 -18q25 0 47 13l49 -183q-43 -26 -127 -26q-114 0 -178 72t-64 216v1160q-2 -2 -8 -2h-12q-119 0 -176.5 59.5t-57.5 151.5q0 94 59 154.5t175 60.5h123zM150 1298h-31q-33 0 -33 -81q0 -78 33 -78
q31 0 31 78v81z" />
    <glyph glyph-name="uni01AC" unicode="&#x1ac;" horiz-adv-x="903" 
d="M362 0v1204h-129q-44 0 -66 -19.5t-22 -47.5q0 -25 13 -47l-172 -50q-27 44 -27 127q0 109 72 167.5t202 58.5h629v-189h-284v-1204h-216z" />
    <glyph glyph-name="uni01AD" unicode="&#x1ad;" horiz-adv-x="456" 
d="M319 152h23q17 0 29 6q12 8 18 10l62 -143q-55 -41 -146 -41q-209 0 -209 235v346h-69v162h69v485q0 117 58 179.5t168 62.5q83 0 127 -27l-50 -161q-20 12 -47 12q-26 0 -41.5 -18t-15.5 -52v-481h129v-162h-129v-346q0 -40 24 -67z" />
    <glyph glyph-name="uni01AE" unicode="&#x1ae;" horiz-adv-x="866" 
d="M678 -422q-11 -2 -31 -8q-31 -8 -80 -8q-112 0 -176.5 63t-64.5 178v1401h-285v189h784v-189h-284v-1397q0 -34 15.5 -51.5t41.5 -17.5q27 0 47 12l49 -162z" />
    <glyph glyph-name="Uhorn" unicode="&#x1af;" horiz-adv-x="1130" 
d="M1233 1323q-25 -18 -72 -57q-73 -58 -203 -58h-30v-798q0 -209 -112.5 -318.5t-299.5 -109.5t-299.5 109.5t-112.5 318.5v983h215v-979q0 -116 50 -176t147 -60t147 60t50 176v979h245q47 0 68 24q21 21 21 47q0 25 -13 47l172 50q27 -44 27 -127v-111z" />
    <glyph glyph-name="uhorn" unicode="&#x1b0;" horiz-adv-x="788" 
d="M432 727h199q43 0 63.5 20.5t20.5 47.5q0 29 -13 45l164 47q25 -41 25 -121q0 -103 -68 -158t-192 -55v-553h-199v84q-58 -102 -178 -102q-90 0 -145.5 65t-55.5 189v491h199v-471q0 -42 23 -66t59 -24q46 0 72 26.5t26 79.5v455z" />
    <glyph glyph-name="uni01B2" unicode="&#x1b2;" horiz-adv-x="1032" 
d="M612 178q17 21 52 62q49 58 49 174v757q0 34 -16 52t-42 18q-27 0 -47 -12l-49 162q43 26 127 26q112 0 177 -63t65 -178v-766q0 -209 -112.5 -318.5t-299.5 -109.5t-299.5 109.5t-112.5 318.5v983h215v-979q0 -116 50 -176t147 -60h96z" />
    <glyph glyph-name="uni01B3" unicode="&#x1b3;" horiz-adv-x="968" 
d="M723 1343q18 12 53 39q52 37 137 37q65 0 119 -28q28 -16 39 -27l-94 -133q-2 2 -10 6q-24 6 -33 6q-39 0 -60 -53l-280 -760v-430h-215v428l-363 965h220l186 -512q9 -24 19.5 -54.5t18.5 -60t15 -53.5t12 -43t5 -21q0 3 10 41.5t26.5 95.5t30.5 95l135 379z" />
    <glyph glyph-name="uni01B4" unicode="&#x1b4;" horiz-adv-x="649" 
d="M616 604q-2 -4 -8 -10q-10 -14 -16 -31l-322 -983h-186l162 494l-242 653h205l90 -274q39 -129 39 -144q0 21 37 144l51 159q23 72 72 110t116 38q64 0 105 -25q19 -8 35 -24l-84 -119q-1 1 -11 6q-18 6 -26 6h-17z" />
    <glyph glyph-name="uni01B5" unicode="&#x1b5;" horiz-adv-x="874" 
d="M66 637h221l243 567h-428v189h734v-17l-318 -739h168v-188h-248l-112 -261h489v-188h-795v16l187 433h-141v188z" />
    <glyph glyph-name="uni01B6" unicode="&#x1b6;" horiz-adv-x="567" 
d="M66 422h145l70 147h-220v158h484v-12l-137 -293h73v-168h-151l-45 -94h239v-160h-506v12l115 242h-67v168z" />
    <glyph glyph-name="uni01B7" unicode="&#x1b7;" horiz-adv-x="770" 
d="M512 463v8q0 77 -16 139q-50 152 -185 152q-60 0 -116 -29l-13 19l236 462h-334v179h614v-15l-245 -481q45 -6 86 -27q86 -45 136 -143.5t50 -228.5v-39q0 -215 -108 -345t-287 -130q-194 0 -303 118l116 140q78 -78 179 -78q83 0 136.5 76t53.5 223z" />
    <glyph glyph-name="uni01C0" unicode="&#x1c0;" horiz-adv-x="448" 
d="M117 1393h215v-1393h-215v1393z" />
    <glyph glyph-name="uni01C1" unicode="&#x1c1;" horiz-adv-x="858" 
d="M741 1393v-1393h-215v1393h215zM332 1393v-1393h-215v1393h215z" />
    <glyph glyph-name="uni01C2" unicode="&#x1c2;" horiz-adv-x="448" 
d="M332 1393v-537h94v-168h-94v-74h94v-168h-94v-446h-215v446h-107v168h107v74h-107v168h107v537h215z" />
    <glyph glyph-name="uni01C3" unicode="&#x1c3;" horiz-adv-x="444" 
d="M111 1393h221l-21 -983h-180zM317 27q-40 -37 -94 -37q-56 0 -95.5 37.5t-39.5 95.5t39.5 95.5t95.5 37.5q55 0 94 -37t39 -96q0 -60 -39 -96z" />
    <glyph glyph-name="uni01C4" unicode="&#x1c4;" horiz-adv-x="1851" 
d="M111 0v1393h292q269 0 426.5 -183t157.5 -497v-33q0 -312 -157 -496t-427 -184h-292zM1507 1204h-428v189h733v-17l-509 -1188h489v-188h-795v16zM584 1204h-193h-65v-1016h65q178 0 276.5 131.5t98.5 366.5v21q0 238 -182 497zM1499 1776h162l-219 -310h-15l-219 310
h166l62 -82z" />
    <glyph glyph-name="uni01C5" unicode="&#x1c5;" horiz-adv-x="1611" 
d="M111 0v1393h292q269 0 426.5 -183t157.5 -497v-33q0 -312 -157 -496t-427 -184h-292zM326 1204v-1016h65q178 0 276.5 131.5t98.5 366.5v21q0 497 -375 497h-65zM1106 569v158h483v-12l-260 -555h240v-160h-506v12l262 557h-219zM1343 823h-14l-219 310h166l61 -82l64 82
h162z" />
    <glyph glyph-name="uni01C6" unicode="&#x1c6;" horiz-adv-x="1296" 
d="M37 352v23q0 182 74 276t182 94q120 0 172 -88v779h199v-1436h-199v74q-57 -92 -170 -92q-109 0 -183.5 94t-74.5 276zM1030 569h-219v158h483v-12l-260 -555h240v-160h-506v12zM242 354q0 -97 29.5 -148.5t84.5 -51.5q54 0 83.5 52t29.5 148v19q0 96 -29.5 148t-83.5 52
q-55 0 -84.5 -51.5t-29.5 -148.5v-19zM981 1133l61 -82l64 82h162l-219 -310h-15l-219 310h166z" />
    <glyph glyph-name="uni01C7" unicode="&#x1c7;" horiz-adv-x="1579" 
d="M111 0v1393h215v-1205h434v-188h-649zM1026 199q38 -23 86 -23q143 0 143 178v1039h215v-1047q0 -177 -90 -269.5t-252 -92.5q-195 0 -303 131l138 139q25 -32 63 -55z" />
    <glyph glyph-name="uni01C8" unicode="&#x1c8;" horiz-adv-x="1134" 
d="M111 0v1393h215v-1205h434v-188h-649zM874 727h199v-924q0 -117 -57.5 -179t-167.5 -62q-84 0 -127 26l49 162q20 -12 47 -12q26 0 41.5 17.5t15.5 51.5v920zM893 918q-35 35 -35 81q0 49 34.5 82t80.5 33q48 0 81 -32.5t33 -82.5q0 -49 -33 -81.5t-81 -32.5
q-47 0 -80 33z" />
    <glyph glyph-name="uni01C9" unicode="&#x1c9;" horiz-adv-x="643" 
d="M61 0v1436h199v-1436h-199zM582 727v-924q0 -117 -58 -179t-168 -62q-84 0 -127 26l50 162q20 -12 47 -12q26 0 41.5 17.5t15.5 51.5v920h199zM401 918q-34 34 -34 81q0 50 34 82.5t80 32.5q48 0 81.5 -32.5t33.5 -82.5q0 -49 -33.5 -81.5t-81.5 -32.5q-47 0 -80 33z" />
    <glyph glyph-name="uni01CA" unicode="&#x1ca;" horiz-adv-x="1796" 
d="M137 1405l486 -698q92 -144 100 -160q0 1 -0.5 15t-1.5 35.5t-2 47t-1.5 53.5t-0.5 50v645h203v-1405h-27l-485 690q-15 18 -33.5 45.5t-31.5 48.5t-25 40l-11 19l2 -20q0 -17 2 -82t2 -94v-635h-202v1405h26zM1171 16q-72 29 -129 99l138 139q34 -38 68 -58t81 -20
q144 0 144 178v1039h215v-1047q0 -177 -90 -269.5t-252 -92.5q-107 0 -175 32z" />
    <glyph glyph-name="uni01CB" unicode="&#x1cb;" horiz-adv-x="1351" 
d="M111 0v1405h26l486 -698q92 -144 100 -160q0 1 -0.5 15t-1.5 35.5t-2 47t-1.5 53.5t-0.5 50v645h203v-1405h-27l-485 690q-15 18 -33.5 45.5t-31.5 48.5t-25 40l-11 19l2 -20q0 -17 2 -82t2 -94v-635h-202zM987 -430q-34 9 -49 18l49 162q20 -12 47 -12q26 0 42 17.5
t16 51.5v920h198v-924q0 -117 -57.5 -179t-167.5 -62q-51 0 -78 8zM1110 1083q36 31 80 31q48 0 81.5 -32.5t33.5 -82.5q0 -49 -33.5 -81.5t-81.5 -32.5q-46 0 -80.5 33t-34.5 81q0 49 35 84z" />
    <glyph glyph-name="uni01CC" unicode="&#x1cc;" horiz-adv-x="1009" 
d="M59 727h199v-82q57 100 178 100q90 0 145.5 -64t55.5 -187v-494h-199v471q0 43 -22.5 66.5t-59.5 23.5q-46 0 -72 -26t-26 -78v-457h-199v727zM750 -193v920h198v-924q0 -117 -57.5 -179t-167.5 -62q-84 0 -127 26l49 162q20 -12 47 -12q26 0 42 17.5t16 51.5zM733 999
q0 49 34.5 82t80.5 33q48 0 81.5 -32.5t33.5 -82.5q0 -49 -33.5 -81.5t-81.5 -32.5q-46 0 -80.5 33t-34.5 81z" />
    <glyph glyph-name="uni01CD" unicode="&#x1cd;" horiz-adv-x="1001" 
d="M979 0h-225l-54 174h-411l-53 -174h-213l464 1405h27zM516 793q-18 70 -18 79q-2 -4 -10.5 -37.5t-21 -83t-22.5 -81.5l-100 -318h301l-96 318q-28 96 -33 123zM567 1776h162l-219 -310h-14l-220 310h166l62 -82z" />
    <glyph glyph-name="uni01CE" unicode="&#x1ce;" horiz-adv-x="622" 
d="M496 682q69 -63 69 -203v-479h-198v59q-53 -77 -142 -77t-142.5 58.5t-53.5 170.5v10q0 105 68 162t190 57h80v37q0 98 -95 98q-78 0 -133 -49l-94 138q93 81 258 81q124 0 193 -63zM315 801l-219 309h166l62 -82l63 82h162l-219 -309h-15zM367 233v68h-70q-74 0 -74 -78
v-8q0 -78 66 -78q78 0 78 96z" />
    <glyph glyph-name="uni01CF" unicode="&#x1cf;" horiz-adv-x="448" 
d="M332 0h-215v1393h215v-1393zM453 1776l-220 -310h-14l-219 310h166l61 -82l64 82h162z" />
    <glyph glyph-name="uni01D0" unicode="&#x1d0;" horiz-adv-x="321" 
d="M260 0h-199v727h199v-727zM389 1110l-219 -309h-14l-219 309h165l62 -82l63 82h162z" />
    <glyph glyph-name="uni01D1" unicode="&#x1d1;" horiz-adv-x="1126" 
d="M1030 383q-55 -194 -176.5 -297.5t-290.5 -103.5q-228 0 -366 184.5t-138 511.5v37q0 326 138 510t366 184t366 -184t138 -510v-37q0 -168 -37 -295zM846 684v25q0 247 -75.5 377.5t-207.5 130.5t-208 -130.5t-76 -377.5v-25q0 -247 76 -377.5t208 -130.5t207.5 130.5
t75.5 377.5zM569 1466h-14l-219 310h166l61 -82l64 82h161z" />
    <glyph glyph-name="uni01D2" unicode="&#x1d2;" horiz-adv-x="710" 
d="M588 80q-85 -98 -232 -98q-144 0 -231.5 98.5t-87.5 269.5v27q0 171 87.5 269.5t231.5 98.5q147 0 232.5 -98t85.5 -270v-27q0 -175 -86 -270zM438 526q-30 49 -84 49q-112 0 -112 -198v-25q0 -200 112 -200q55 0 84 50.5t29 149.5v25q0 96 -29 149zM422 1110h162
l-219 -309h-15l-219 309h166l61 -82z" />
    <glyph glyph-name="uni01D3" unicode="&#x1d3;" horiz-adv-x="1032" 
d="M713 414v979h215v-983q0 -209 -112.5 -318.5t-299.5 -109.5t-299.5 109.5t-112.5 318.5v983h215v-979q0 -116 50 -176t147 -60t147 60t50 176zM524 1466h-14l-219 310h166l61 -82l64 82h161z" />
    <glyph glyph-name="uni01D4" unicode="&#x1d4;" horiz-adv-x="690" 
d="M432 272v455h199v-727h-199v84q-58 -102 -178 -102q-90 0 -145.5 65t-55.5 189v491h199v-471q0 -42 23 -66t59 -24q46 0 72 26.5t26 79.5zM410 1110h161l-219 -309h-14l-219 309h166l61 -82z" />
    <glyph glyph-name="uni01D5" unicode="&#x1d5;" horiz-adv-x="1032" 
d="M713 414v979h215v-983q0 -200 -109 -314t-303 -114q-199 0 -305.5 116t-106.5 312v983h215v-979q0 -107 47 -171.5t150 -64.5t150 64.5t47 171.5zM688 1776h-344v147h344v-147zM262 1624q0 46 32.5 78.5t78.5 32.5t78 -32.5t32 -78.5t-32 -78.5t-78 -32.5t-78.5 32.5
t-32.5 78.5zM553 1624q0 46 32.5 78.5t78.5 32.5t78 -32.5t32 -78.5t-32 -78.5t-78 -32.5t-78.5 32.5t-32.5 78.5z" />
    <glyph glyph-name="uni01D6" unicode="&#x1d6;" horiz-adv-x="690" 
d="M299 166h35q46 0 72 26.5t26 79.5v455h199v-727h-199v84q-58 -102 -178 -102q-86 0 -143 63q-2 0 -2 2q-1 0 -7 6l-2 2v2q-2 0 -2 2l-2 2q0 3 -2 5l-12 18v2q0 2 -2 4v2q-1 0 -4 8q-2 2 -2 6q-2 2 -2 7q-2 0 -2 4v2l-4 8v6l-3 2v4q0 2 -2 4v7q0 4 -2 6v8q-2 0 -2 4v10
q-2 2 -2 4v17l-2 4v524h199v-471q0 -43 47 -90zM172 1286h344v-147h-344v147zM90 911v47q0 45 35 80q36 31 76 31q44 0 77 -32.5t33 -78.5t-33 -78t-77 -32q-45 0 -111 63zM449 848l-33 33q-35 30 -35 77q0 46 33.5 78.5t77.5 32.5t77 -32.5t33 -78.5t-33 -78t-77 -32h-43z
" />
    <glyph glyph-name="uni01D7" unicode="&#x1d7;" horiz-adv-x="1032" 
d="M713 414v979h215v-983q0 -200 -109 -314t-303 -114q-199 0 -305.5 116t-106.5 312v983h215v-979q0 -107 47 -171.5t150 -64.5t150 64.5t47 171.5zM590 1772h-156l64 290h223zM373 1735q46 0 78 -32.5t32 -78.5t-32 -78.5t-78 -32.5t-78.5 32.5t-32.5 78.5t32.5 78.5
t78.5 32.5zM553 1624q0 46 32.5 78.5t78.5 32.5t78 -32.5t32 -78.5t-32 -78.5t-78 -32.5t-78.5 32.5t-32.5 78.5z" />
    <glyph glyph-name="uni01D8" unicode="&#x1d8;" horiz-adv-x="690" 
d="M299 166h35q46 0 72 26.5t26 79.5v455h199v-727h-199v84q-58 -102 -178 -102q-86 0 -143 63q-2 0 -2 2q-1 0 -7 6l-2 2v2q-2 0 -2 2l-2 2q0 3 -2 5l-12 18v2q0 2 -2 4v2q-1 0 -4 8q-2 2 -2 6q-2 2 -2 7q-2 0 -2 4v2l-4 8v6l-3 2v4q0 2 -2 4v7q0 4 -2 6v8q-2 0 -2 4v10
q-2 2 -2 4v17l-2 4v524h199v-471q0 -43 47 -90zM328 1413h223l-131 -291h-156zM449 848l-33 33q-35 30 -35 77q0 45 35 80q36 31 76 31q44 0 77 -32.5t33 -78.5t-33 -78t-77 -32h-43zM158 848l-33 33q-35 30 -35 77q0 46 33.5 78.5t77.5 32.5t77 -32.5t33 -78.5t-33 -78
t-77 -32h-43z" />
    <glyph glyph-name="uni01D9" unicode="&#x1d9;" horiz-adv-x="1032" 
d="M713 1393h215v-983q0 -200 -109 -314t-303 -114q-199 0 -305.5 116t-106.5 312v983h215v-979q0 -107 47 -171.5t150 -64.5t150 64.5t47 171.5v979zM526 1776h-14l-219 309h166l61 -82l64 82h161zM262 1624q0 46 32.5 78.5t78.5 32.5t78 -32.5t32 -78.5t-32 -78.5
t-78 -32.5t-78.5 32.5t-32.5 78.5zM553 1624q0 46 32.5 78.5t78.5 32.5t78 -32.5t32 -78.5t-32 -78.5t-78 -32.5t-78.5 32.5t-32.5 78.5z" />
    <glyph glyph-name="uni01DA" unicode="&#x1da;" horiz-adv-x="690" 
d="M379 166l27 27q26 26 26 79v455h199v-727h-199v84q-58 -102 -178 -102q-86 0 -143 63q-2 0 -2 2q-1 0 -7 6l-2 2v2q-2 0 -2 2l-2 2q0 3 -2 5l-12 18v2q0 2 -2 4v2q-1 0 -4 8q-2 2 -2 6q-2 2 -2 7q-2 0 -2 4v2l-4 8v6l-3 2v4q0 2 -2 4v7q0 4 -2 6v8q-2 0 -2 4v10
q-2 2 -2 4v17l-2 4v524h199v-471q0 -42 23 -66t59 -24h45zM412 1423h161l-219 -309h-14l-219 309h166l61 -82zM381 911v47q0 46 33.5 78.5t77.5 32.5t77 -32.5t33 -78.5t-33 -78t-77 -32q-45 0 -111 63zM90 911v47q0 46 33.5 78.5t77.5 32.5t77 -32.5t33 -78.5t-33 -78
t-77 -32q-45 0 -111 63z" />
    <glyph glyph-name="uni01DB" unicode="&#x1db;" horiz-adv-x="1032" 
d="M516 -18q-199 0 -305.5 116t-106.5 312v983h215v-979q0 -107 47 -171.5t150 -64.5t150 64.5t47 171.5v979h215v-983q0 -200 -109 -314t-303 -114zM602 1776h-156l-131 290h224zM262 1624q0 46 32.5 78.5t78.5 32.5t78 -32.5t32 -78.5t-32 -78.5t-78 -32.5t-78.5 32.5
t-32.5 78.5zM553 1624q0 46 32.5 78.5t78.5 32.5t78 -32.5t32 -78.5t-32 -78.5t-78 -32.5t-78.5 32.5t-32.5 78.5z" />
    <glyph glyph-name="uni01DC" unicode="&#x1dc;" horiz-adv-x="690" 
d="M299 166h35q46 0 72 26.5t26 79.5v455h199v-727h-199v84q-58 -102 -178 -102q-86 0 -143 63q-2 0 -2 2q-1 0 -7 6l-2 2v2q-2 0 -2 2l-2 2q0 3 -2 5l-12 18v2q0 2 -2 4v2q-1 0 -4 8q-2 2 -2 6q-2 2 -2 7q-2 0 -2 4v2l-4 8v6l-3 2v4q0 2 -2 4v7q0 4 -2 6v8q-2 0 -2 4v10
q-2 2 -2 4v17l-2 4v524h199v-471q0 -43 47 -90zM139 1401h223l64 -291h-156zM449 848l-33 33q-35 30 -35 77q0 46 33.5 78.5t77.5 32.5t77 -32.5t33 -78.5t-33 -78t-77 -32h-43zM90 911v47q0 46 33.5 78.5t77.5 32.5t77 -32.5t33 -78.5t-33 -78t-77 -32q-45 0 -111 63z" />
    <glyph glyph-name="uni01DD" unicode="&#x1dd;" 
d="M35 432h397q-15 137 -141 137q-72 0 -146 -43l-77 156q92 61 225 61q170 0 258 -97.5t88 -274.5v-19q0 -171 -84.5 -271.5t-226.5 -100.5q-144 0 -218.5 100.5t-74.5 273.5v78zM434 289h-198q9 -146 92 -146q91 0 106 146z" />
    <glyph glyph-name="uni01DE" unicode="&#x1de;" horiz-adv-x="1001" 
d="M700 174h-411l-53 -174h-213l464 1405h27l465 -1405h-225zM549 670q-17 55 -34 122.5t-17 79.5q-2 -4 -10.5 -37.5t-21 -83t-22.5 -81.5l-100 -318h301zM672 1784h-344v147h344v-147zM569 1692q35 30 76 30q44 0 77.5 -32t33.5 -78t-33.5 -78.5t-77.5 -32.5t-77 32.5
t-33 78.5t34 80zM244 1612q0 46 33 78t77 32t77.5 -32t33.5 -78t-33.5 -78.5t-77.5 -32.5t-77 32.5t-33 78.5z" />
    <glyph glyph-name="uni01DF" unicode="&#x1df;" horiz-adv-x="622" 
d="M29 182v39q0 105 68 162t190 57h80v37q0 98 -95 98q-78 0 -133 -49l-94 138q93 81 258 81q262 0 262 -266v-479h-198v59q-53 -77 -142 -77q-87 0 -141 57l-2 2l-6 6v2l-6 6q0 2 -2 2v2l-2 2q0 1 -2.5 4.5t-2.5 4.5q-2 0 -2 4q-2 0 -2 2l-2 2q0 2 -2 4v4q-2 0 -2 4
q-2 0 -2 2v2q-2 2 -2 4v2l-4 9q0 2 -2 4v6q-2 0 -2 2q0 6 -2 8v6l-2 2v8q-2 2 -2 7v8l-2 2v10q0 6 -2 10zM483 1276v-148h-344v148h344zM68 911v47q0 46 34 80q36 31 76 31q44 0 77.5 -32.5t33.5 -78.5t-33.5 -78t-77.5 -32t-110 63zM358 911v47q0 45 35 80q36 31 76 31
q44 0 77.5 -32.5t33.5 -78.5t-33.5 -78t-77.5 -32q-45 0 -111 63zM367 233v68h-70q-74 0 -74 -78v-8q0 -78 66 -78q78 0 78 96z" />
    <glyph glyph-name="uni01E0" unicode="&#x1e0;" horiz-adv-x="1001" 
d="M979 0h-225l-54 174h-411l-53 -174h-213l464 1405h27zM516 793q-18 70 -18 79q-2 -4 -10.5 -37.5t-21 -83t-22.5 -81.5l-100 -318h301l-96 318q-28 96 -33 123zM674 1778h-344v147h344v-147zM612 1624q0 -46 -33 -78.5t-77 -32.5t-77.5 32.5t-33.5 78.5t33.5 78.5
t77.5 32.5t77 -32.5t33 -78.5z" />
    <glyph glyph-name="uni01E1" unicode="&#x1e1;" horiz-adv-x="622" 
d="M340 553q-28 22 -68 22q-78 0 -133 -49l-94 138q93 81 258 81q262 0 262 -266v-479h-198v59q-53 -77 -142 -77t-142.5 58.5t-53.5 170.5v10q0 105 68 162t190 57h80v37q0 55 -27 76zM494 1116h-344v148h344v-148zM322 848q-44 0 -77.5 32t-33.5 78t33.5 78.5t77.5 32.5
t77 -32.5t33 -78.5t-33 -78t-77 -32zM367 233v68h-70q-74 0 -74 -78v-8q0 -78 66 -78q78 0 78 96z" />
    <glyph glyph-name="uni01E2" unicode="&#x1e2;" horiz-adv-x="1402" 
d="M866 188h469v-188h-682v174h-348l-82 -174h-213l670 1393h639v-189h-453v-567h381v-188h-381v-261zM653 352l2 336q0 37 1 78.5t2.5 75.5t2.5 62.5t2 46t1 18.5q0 -2 -14.5 -40t-41 -101.5t-51.5 -118.5l-168 -357h264zM1044 1542h-344v148h344v-148z" />
    <glyph glyph-name="uni01E3" unicode="&#x1e3;" horiz-adv-x="1001" 
d="M385 6q-53 -24 -113 -24q-243 0 -243 229v10q0 105 67.5 161t190.5 56h80v39q0 98 -95 98q-78 0 -133 -49l-94 138q93 81 258 81q129 0 178 -88q64 88 193 88q144 0 218.5 -100.5t74.5 -273.5v-72h-400q8 -74 42.5 -108.5t101.5 -34.5q71 0 145 43l78 -156
q-92 -61 -225 -61q-167 0 -236 100q-34 -51 -88 -76zM672 877h-344v147h344v-147zM766 436q-4 77 -26.5 111.5t-65.5 34.5q-92 0 -107 -146h199zM223 215q0 -78 66 -78q78 0 78 96v66h-70q-40 0 -57 -19t-17 -57v-8z" />
    <glyph glyph-name="uni01E4" unicode="&#x1e4;" horiz-adv-x="1058" 
d="M733 190q11 7 31 17v24h-180v189h180v29h-221v188h413v-217h82v-189h-82v-145q-54 -39 -144.5 -71.5t-186.5 -32.5q-277 0 -421.5 182.5t-144.5 507.5v49q0 313 143 500.5t404 187.5q182 0 299 -80l-94 -174q-97 59 -199 59q-163 0 -248 -131.5t-85 -367.5v-37
q0 -241 82 -374.5t249 -133.5q47 0 123 20z" />
    <glyph glyph-name="uni01E5" unicode="&#x1e5;" horiz-adv-x="653" 
d="M225 137q9 -4 25 -12q23 -16 92 -25q151 -22 219 -84q50 -47 64 -120h86v-148h-90q-14 -68 -72 -119q-83 -71 -223 -71q-137 0 -220 65q-67 54 -81 125h-84v148h100q6 12 14 20q37 46 86 66q-40 19 -60 56t-20 81q0 89 89 133q-97 82 -97 211v12q0 67 23.5 120t62.5 85
t85 48.5t95 16.5q57 0 107 -18h195v-139h-66q33 -57 33 -113v-12q0 -88 -42 -151.5t-101.5 -91t-125.5 -27.5q-42 0 -69 8q-25 -16 -25 -39v-25zM238 473v-8q0 -62 24 -91.5t60 -29.5q34 0 57.5 29.5t23.5 91.5v8q0 62 -23.5 91.5t-57.5 29.5q-36 0 -60 -29.5t-24 -91.5z
M270 -285h54q50 0 84 27q1 1 2 3t2 3h-183l7 -6zM408 -102h-2q-33 26 -93 26q-51 0 -80 -26q-2 0 -4 -2h179v2z" />
    <glyph glyph-name="Gcaron" unicode="&#x1e6;" horiz-adv-x="1032" 
d="M788 1386q74 -25 117 -57l-94 -174q-97 59 -199 59q-163 0 -248 -131.5t-85 -367.5v-37q0 -241 82 -374.5t249 -133.5q88 0 154 37v242h-221v188h413v-551q-54 -39 -144.5 -71.5t-186.5 -32.5q-277 0 -421.5 182.5t-144.5 507.5v49q0 313 143 500.5t404 187.5
q105 0 182 -23zM786 1776l-219 -310h-14l-219 310h166l61 -82l64 82h161z" />
    <glyph glyph-name="gcaron" unicode="&#x1e7;" horiz-adv-x="653" 
d="M342 100q149 -20 219 -84t70 -184v-8q0 -122 -82 -194t-223 -72q-135 0 -220.5 66t-85.5 171v8q0 127 121 179q-40 19 -60 56t-20 81q0 89 89 133q-97 82 -97 211v12q0 67 23.5 120t62.5 85t85 48.5t95 16.5q57 0 107 -18h195v-139h-66q33 -57 33 -113v-12
q0 -88 -42 -151.5t-101.5 -91t-125.5 -27.5q-42 0 -69 8q-25 -16 -25 -39q0 -25 24.5 -38.5t92.5 -23.5zM332 1028l63 82h162l-219 -309h-14l-220 309h166zM313 -76q-50 0 -81 -26.5t-31 -73.5v-6q0 -47 34 -75t89 -28q51 0 82.5 28t31.5 75v6q0 47 -32.5 73.5t-92.5 26.5z
M322 344q34 0 57.5 29.5t23.5 91.5v8q0 62 -23.5 91.5t-57.5 29.5q-36 0 -60 -29.5t-24 -91.5v-8q0 -62 24 -91.5t60 -29.5z" />
    <glyph glyph-name="uni01E8" unicode="&#x1e8;" horiz-adv-x="972" 
d="M428 508l-104 -166v-342h-213v1393h213v-731l376 731h224l-357 -697l389 -696h-241zM479 1466l-219 310h166l61 -82l64 82h162l-219 -310h-15z" />
    <glyph glyph-name="uni01E9" unicode="&#x1e9;" horiz-adv-x="657" 
d="M637 727l-205 -289l225 -438h-223l-131 258l-45 -65v-193h-199v1436h199v-963l162 254h217zM401 1724l64 82h162l-219 -309h-15l-219 309h166z" />
    <glyph glyph-name="uni01EA" unicode="&#x1ea;" horiz-adv-x="1126" 
d="M592 -227q6 -5 16 -11q17 -10 35 -10q27 0 53 15l39 -95q-46 -28 -108 -28q-71 0 -118.5 34.5t-47.5 100.5v8q0 52 30 101t74 81q11 11 17 15q-6 -2 -19 -2q-228 0 -366 184.5t-138 511.5v37q0 326 138 510t366 184t366 -184t138 -510v-37q0 -234 -71 -396.5t-201 -238.5
q-77 -48 -140 -113t-63 -125v-6v-26zM692 176q27 43 78 129q76 125 76 379v25q0 253 -76 381q-77 127 -207 127q-132 0 -208 -130.5t-76 -377.5v-25q0 -247 76 -377.5t208 -130.5h129z" />
    <glyph glyph-name="uni01EB" unicode="&#x1eb;" horiz-adv-x="710" 
d="M420 -248q4 2 12 4q9 3 21 11l39 -95q-46 -28 -109 -28q-71 0 -118.5 34.5t-47.5 100.5v8q0 54 30.5 102.5t74.5 81.5q9 9 14 11q-128 6 -211 98q-88 94 -88 270v27q0 171 87.5 269.5t231.5 98.5q147 0 232.5 -98t85.5 -270v-27q0 -207 -137 -317q-9 -7 -42.5 -34
t-46 -37t-37 -34.5t-34.5 -40t-19.5 -38t-9.5 -44.5v-6q0 -47 51 -47h21zM408 152q10 16 30 51q29 53 29 149v25q0 96 -29 149q-30 49 -84 49q-112 0 -112 -198v-25q0 -200 112 -200h54z" />
    <glyph glyph-name="uni01EC" unicode="&#x1ec;" horiz-adv-x="1126" 
d="M592 -201q0 -47 51 -47q27 0 53 15l39 -95q-46 -28 -108 -28q-71 0 -118.5 34.5t-47.5 100.5v8q0 52 30 101t74 81q11 11 17 15q-6 -2 -19 -2q-228 0 -366 184.5t-138 511.5v37q0 326 138 510t366 184t366 -184t138 -510v-37q0 -234 -71 -396.5t-201 -238.5
q-77 -48 -140 -113t-63 -125v-6zM770 1090q-77 127 -207 127q-132 0 -208 -130.5t-76 -377.5v-25q0 -247 76 -377.5t208 -130.5t207.5 130.5t75.5 377.5v25q0 253 -76 381zM733 1542h-344v148h344v-148z" />
    <glyph glyph-name="uni01ED" unicode="&#x1ed;" horiz-adv-x="710" 
d="M367 -131q-19 -32 -19 -64v-6q0 -47 51 -47q28 0 54 15l39 -95q-46 -28 -109 -28q-71 0 -118.5 34.5t-47.5 100.5v8q0 54 30.5 102.5t74.5 81.5q9 9 14 11q-128 6 -211 98q-88 94 -88 270v27q0 171 87.5 269.5t231.5 98.5q147 0 232.5 -98t85.5 -270v-27
q0 -207 -137 -317q-9 -7 -32.5 -25.5t-34.5 -27.5t-30 -25.5t-30 -28t-23 -27t-20 -30.5zM467 352v25q0 198 -113 198q-112 0 -112 -198v-25q0 -200 112 -200q55 0 84 50.5t29 149.5zM528 877h-344v147h344v-147z" />
    <glyph glyph-name="uni01EE" unicode="&#x1ee;" horiz-adv-x="770" 
d="M492 18q-72 -34 -162 -34q-194 0 -303 118l116 140q78 -78 179 -78q83 0 136.5 76t53.5 223v8q0 153 -57.5 222t-143.5 69q-60 0 -116 -29l-13 19l236 462h-334v179h614v-15l-245 -481q45 -6 86 -27q86 -45 136 -143.5t50 -228.5v-39q0 -159 -62 -276.5t-171 -164.5z
M324 1804l61 -82l64 82h161l-219 -309h-14l-219 309h166z" />
    <glyph glyph-name="uni01EF" unicode="&#x1ef;" horiz-adv-x="651" 
d="M406 -414q-56 -26 -127 -26q-83 0 -150 30t-111 80l109 137q63 -63 135 -63q59 0 91 64.5t32 162.5v6q0 216 -141 216q-53 0 -97 -23l-8 14l178 355h-237v188h498v-12l-203 -400q34 -3 78 -22q65 -32 105 -104.5t40 -188.5v-53q0 -127 -52.5 -222t-139.5 -139zM565 1110
l-219 -309h-14l-219 309h166l61 -82l63 82h162z" />
    <glyph glyph-name="uni01F0" unicode="&#x1f0;" horiz-adv-x="321" 
d="M260 727v-924q0 -117 -57.5 -179t-167.5 -62q-84 0 -127 26l49 162q20 -12 47 -12q26 0 41.5 17.5t15.5 51.5v920h199zM162 1028l63 82h162l-219 -309h-14l-220 309h166z" />
    <glyph glyph-name="uni01F1" unicode="&#x1f1;" horiz-adv-x="1918" 
d="M403 1393q269 0 426.5 -183t157.5 -497v-33q0 -312 -157 -496t-427 -184h-292v1393h292zM1065 0v16l510 1188h-428v189h733v-17l-510 -1188h490v-188h-795zM391 188q178 0 276.5 131.5t98.5 366.5v21q0 497 -375 497h-65v-1016h65z" />
    <glyph glyph-name="uni01F2" unicode="&#x1f2;" horiz-adv-x="1611" 
d="M403 1393q269 0 426.5 -183t157.5 -497v-33q0 -312 -157 -496t-427 -184h-292v1393h292zM391 188q178 0 276.5 131.5t98.5 366.5v21q0 497 -375 497h-65v-1016h65zM1063 12l262 557h-219v158h483v-12l-260 -555h240v-160h-506v12z" />
    <glyph glyph-name="uni01F3" unicode="&#x1f3;" horiz-adv-x="1292" 
d="M465 1436h199v-1436h-199v74q-57 -92 -170 -92q-109 0 -183.5 94t-74.5 276v23q0 182 74 276t182 94q120 0 172 -88v779zM1249 160v-160h-506v12l263 557h-220v158h484v-12l-260 -555h239zM469 373q0 96 -29.5 148t-83.5 52q-55 0 -84.5 -51.5t-29.5 -148.5v-19
q0 -97 29.5 -148.5t84.5 -51.5q54 0 83.5 52t29.5 148v19z" />
    <glyph glyph-name="uni01F4" unicode="&#x1f4;" horiz-adv-x="1032" 
d="M625 -18q-277 0 -421.5 182.5t-144.5 507.5v49q0 313 143 500.5t404 187.5q182 0 299 -80l-94 -174q-97 59 -199 59q-163 0 -248 -131.5t-85 -367.5v-37q0 -241 82 -374.5t249 -133.5q88 0 154 37v242h-221v188h413v-551q-54 -39 -144.5 -71.5t-186.5 -32.5zM633 1499
h-156l64 291h223z" />
    <glyph glyph-name="uni01F5" unicode="&#x1f5;" horiz-adv-x="653" 
d="M342 100q149 -20 219 -84t70 -184v-8q0 -122 -82 -194t-223 -72q-135 0 -220.5 66t-85.5 171v8q0 127 121 179q-40 19 -60 56t-20 81q0 89 89 133q-97 82 -97 211v12q0 67 23.5 120t62.5 85t85 48.5t95 16.5q57 0 107 -18h195v-139h-66q33 -57 33 -113v-12
q0 -88 -42 -151.5t-101.5 -91t-125.5 -27.5q-42 0 -69 8q-25 -16 -25 -39q0 -25 24.5 -38.5t92.5 -23.5zM535 1124l-132 -290h-155l63 290h224zM313 -76q-50 0 -81 -26.5t-31 -73.5v-6q0 -47 34 -75t89 -28q51 0 82.5 28t31.5 75v6q0 47 -32.5 73.5t-92.5 26.5zM264 567
q-26 -26 -26 -94v-8q0 -62 24 -91.5t60 -29.5q34 0 57.5 29.5t23.5 91.5v8q0 62 -23.5 91.5t-57.5 29.5t-58 -27z" />
    <glyph glyph-name="uni01F8" unicode="&#x1f8;" horiz-adv-x="1030" 
d="M723 547q0 1 -0.5 15t-1.5 35.5t-2 47t-1.5 53.5t-0.5 50v645h203v-1405h-27l-485 690q-15 18 -33.5 45.5t-31.5 48.5t-25 40l-11 19l2 -20q0 -17 2 -82t2 -94v-635h-202v1405h26l486 -698q92 -144 100 -160zM492 1790l63 -291h-156l-131 291h224z" />
    <glyph glyph-name="uni01F9" unicode="&#x1f9;" horiz-adv-x="688" 
d="M285 537q-27 -27 -27 -80v-457h-199v727h199v-82q57 100 178 100q90 0 145.5 -64t55.5 -187v-494h-199v471q0 43 -22.5 66.5t-59.5 23.5q-44 0 -71 -24zM420 834h-156l-131 290h223z" />
    <glyph glyph-name="Aringacute" unicode="&#x1fa;" horiz-adv-x="1001" 
d="M569 1704q47 -23 77 -64t30 -90q0 -48 -30.5 -89t-76.5 -60q-35 -13 -49 -15l459 -1386h-225l-54 174h-411l-53 -174h-213l458 1389q-24 3 -45 12q-48 19 -78 59.5t-30 89.5q0 67 52.5 116.5t121.5 49.5q32 0 67 -12zM504 844q-6 21 -6 28q-2 -4 -10.5 -37.5t-21 -83
t-22.5 -81.5l-100 -318h301l-96 318q-34 115 -45 174zM575 1780h-155l63 291h224zM547 1503q16 16 16 47q0 30 -17 48t-44 18t-44.5 -18t-17.5 -48t17.5 -46.5t44.5 -16.5q26 0 45 16z" />
    <glyph glyph-name="aringacute" unicode="&#x1fb;" horiz-adv-x="622" 
d="M272 575q-78 0 -133 -49l-94 138q93 81 258 81q262 0 262 -266v-479h-198v59q-53 -77 -142 -77t-142.5 58.5t-53.5 170.5v10q0 105 68 162t190 57h80v37q0 98 -95 98zM389 1130q47 -23 77 -63.5t30 -89.5q0 -66 -52.5 -115t-121.5 -49t-122 49t-53 115q0 67 53 116.5
t122 49.5q30 0 67 -13zM526 1475l-131 -291h-155l63 291h223zM346 162q21 21 21 71v68h-70q-74 0 -74 -78v-8q0 -78 66 -78q35 0 57 25zM322 913q27 0 44 17t17 47t-17 47.5t-44 17.5t-44.5 -17.5t-17.5 -47.5t17.5 -47t44.5 -17z" />
    <glyph glyph-name="AEacute" unicode="&#x1fc;" horiz-adv-x="1402" 
d="M866 188h469v-188h-682v174h-348l-82 -174h-213l670 1393h639v-189h-453v-567h381v-188h-381v-261zM653 352l2 336q0 37 1 78.5t2.5 75.5t2.5 62.5t2 46t1 18.5q0 -2 -14.5 -40t-41 -101.5t-51.5 -118.5l-168 -357h264zM928 1499h-156l64 291h223z" />
    <glyph glyph-name="aeacute" unicode="&#x1fd;" horiz-adv-x="1001" 
d="M473 82q-69 -100 -201 -100q-243 0 -243 229v10q0 105 67.5 161t190.5 56h80v39q0 98 -95 98q-78 0 -133 -49l-94 138q93 81 258 81q129 0 178 -88q64 88 193 88q144 0 218.5 -100.5t74.5 -273.5v-72h-400q8 -74 42.5 -108.5t101.5 -34.5q71 0 145 43l78 -156
q-92 -61 -225 -61q-167 0 -236 100zM698 1124l-131 -290h-155l63 290h223zM567 436h199q-4 77 -26.5 111.5t-65.5 34.5q-92 0 -107 -146zM223 215q0 -78 66 -78q78 0 78 96v66h-70q-40 0 -57 -19t-17 -57v-8z" />
    <glyph glyph-name="Oslashacute" unicode="&#x1fe;" horiz-adv-x="1126" 
d="M934 1427l141 -81l-112 -175q104 -181 104 -456v-37q0 -327 -138 -511.5t-366 -184.5q-174 0 -293 104l-77 -123l-142 82l111 174q-103 179 -103 459v37q0 326 138 510t366 184q169 0 291 -104zM285 553q3 -57 16 -115l442 692q-69 87 -180 87q-132 0 -208 -130.5
t-76 -377.5v-25q0 -72 6 -131zM846 684v25q0 133 -25 239l-438 -688q69 -84 180 -84q132 0 207.5 130.5t75.5 377.5zM479 1499l64 291h223l-131 -291h-156z" />
    <glyph glyph-name="oslashacute" unicode="&#x1ff;" horiz-adv-x="708" 
d="M674 350q0 -172 -85.5 -270t-232.5 -98q-92 0 -163 41l-64 -95l-102 68l75 110q-65 100 -65 244v27q0 171 87.5 269.5t231.5 98.5q92 0 158 -38l53 75l103 -67l-64 -92q68 -95 68 -246v-27zM430 834h-156l64 290h223zM477 348v60q0 16 -2 24l-186 -270q28 -19 65 -19
q123 0 123 205zM231 322q0 -19 2 -25l185 266q-27 21 -64 21q-123 0 -123 -203v-59z" />
    <glyph glyph-name="uni0200" unicode="&#x200;" horiz-adv-x="1001" 
d="M487 1405h27l465 -1405h-225l-54 174h-411l-53 -174h-213zM522 764q-2 11 -6 29q-8 25 -12 51q-6 21 -6 28q-2 -4 -10.5 -37.5t-21 -83t-22.5 -81.5l-100 -318h301l-96 318q-10 29 -27 94zM293 1499l-100 291h190l57 -291h-147zM635 1790l57 -291h-147l-101 291h191z" />
    <glyph glyph-name="uni0201" unicode="&#x201;" horiz-adv-x="622" 
d="M166 440h121h80v37q0 98 -95 98q-78 0 -133 -49l-94 138q93 81 258 81q262 0 262 -266v-479h-198v59q-53 -77 -142 -77t-142.5 58.5t-53.5 170.5v10q0 106 137 219zM475 1124l57 -290h-147l-100 290h190zM133 834l-100 290h190l58 -290h-148zM260 137h29q35 0 57 25
q21 21 21 71v68h-70q-74 0 -74 -78v-8q0 -41 37 -78z" />
    <glyph glyph-name="uni0202" unicode="&#x202;" horiz-adv-x="1001" 
d="M487 1405h27l465 -1405h-225l-54 174h-411l-53 -174h-213zM532 731l-16 62q-18 70 -18 79q-2 -4 -10.5 -37.5t-21 -83t-22.5 -81.5l-100 -318h301l-96 318q-5 15 -17 61zM709 1634q2 -31 4 -92l-150 -6q-6 68 -63 68q-58 0 -64 -68l-149 6q5 95 61 153t152 58
q99 0 209 -119z" />
    <glyph glyph-name="uni0203" unicode="&#x203;" horiz-adv-x="622" 
d="M219 745h84q262 0 262 -266v-479h-198v59q-53 -77 -142 -77t-142.5 58.5t-53.5 170.5v10q0 105 68 162t190 57h80v37q0 98 -95 98q-78 0 -133 -49l-94 138q46 40 174 81zM520 975q2 -31 4 -92l-149 -6q-6 67 -64 67q-57 0 -63 -67l-150 6q5 95 61 153t152 58
q99 0 209 -119zM367 233v68h-70q-74 0 -74 -78v-8q0 -78 66 -78q78 0 78 96z" />
    <glyph glyph-name="uni0204" unicode="&#x204;" horiz-adv-x="860" 
d="M705 449h-381v-261h469v-188h-682v1393h665v-189h-452v-567h381v-188zM651 1499h-147l-101 291h191zM152 1790h190l57 -291h-147z" />
    <glyph glyph-name="uni0205" unicode="&#x205;" 
d="M573 20q-18 -6 -55 -18q-53 -20 -135 -20q-170 0 -258 97.5t-88 274.5v19q0 171 84.5 271.5t226.5 100.5q144 0 218.5 -100.5t74.5 -273.5v-78h-397q15 -137 141 -137q71 0 145 43l78 -156zM305 834h-147l-101 290h191zM500 1124l57 -290h-147l-101 290h191zM258 582
q-6 -50 -16 -146h198q-9 146 -92 146h-90z" />
    <glyph glyph-name="uni0206" unicode="&#x206;" horiz-adv-x="860" 
d="M705 637v-188h-381v-261h469v-188h-682v1393h665v-189h-452v-567h381zM498 1604h-58q-57 0 -63 -68l-150 6q5 95 61 153t152 58t152 -58t61 -153l-149 -6z" />
    <glyph glyph-name="uni0207" unicode="&#x207;" 
d="M573 20q-18 -6 -55 -18q-53 -20 -135 -20q-170 0 -258 97.5t-88 274.5v19q0 171 84.5 271.5t226.5 100.5q144 0 218.5 -100.5t74.5 -273.5v-78h-397q15 -137 141 -137q71 0 145 43l78 -156zM561 975q2 -31 4 -92l-149 -6q-6 67 -64 67q-57 0 -63 -67l-150 6q5 95 61 153
t152 58q99 0 209 -119zM432 582h-84q-91 0 -106 -146h198z" />
    <glyph glyph-name="uni0208" unicode="&#x208;" horiz-adv-x="448" 
d="M117 1393h215v-1393h-215v1393zM35 1499l-101 291h191l57 -291h-147zM186 1790h191l57 -291h-147z" />
    <glyph glyph-name="uni0209" unicode="&#x209;" horiz-adv-x="321" 
d="M61 727h199v-727h-199v727zM-31 834l-100 290h190l58 -290h-148zM121 1124h190l58 -290h-148z" />
    <glyph glyph-name="uni020A" unicode="&#x20a;" horiz-adv-x="448" 
d="M117 1393h215v-1393h-215v1393zM324 1753q18 -20 55 -59q56 -59 59 -152l-149 -6q-6 68 -64 68q-57 0 -63 -68l-150 6q5 95 61 153t152 58h99z" />
    <glyph glyph-name="uni020B" unicode="&#x20b;" horiz-adv-x="321" 
d="M61 727h199v-727h-199v727zM260 1094q18 -21 55 -60q57 -60 60 -151l-150 -6q-6 67 -63 67q-58 0 -64 -67l-149 6q5 95 61 153t152 58h98z" />
    <glyph glyph-name="uni020C" unicode="&#x20c;" horiz-adv-x="1126" 
d="M860 1317q23 -29 68 -88q139 -191 139 -514v-37q0 -327 -138 -511.5t-366 -184.5t-366 184.5t-138 511.5v37q0 326 138 510t366 184q111 0 297 -92zM846 961q-25 43 -76 129q-77 127 -207 127q-132 0 -208 -130.5t-76 -377.5v-25q0 -247 76 -377.5t208 -130.5
q131 0 207 129q76 125 76 379v25v252zM502 1499h-148l-100 291h190zM696 1790l58 -291h-148l-100 291h190z" />
    <glyph glyph-name="uni020D" unicode="&#x20d;" horiz-adv-x="710" 
d="M674 176q-29 -33 -86 -96q-85 -98 -232 -98q-144 0 -231.5 98.5t-87.5 269.5v27q0 171 87.5 269.5t231.5 98.5q147 0 232.5 -98t85.5 -270v-27v-174zM408 152q10 16 30 51q29 53 29 149v25q0 96 -29 149q-30 49 -84 49q-112 0 -112 -198v-25q0 -200 112 -200h54zM322 834
h-148l-100 290h190zM516 1124l57 -290h-147l-100 290h190z" />
    <glyph glyph-name="uni020E" unicode="&#x20e;" horiz-adv-x="1126" 
d="M451 1409h112q228 0 366 -184t138 -510v-37q0 -327 -138 -511.5t-366 -184.5t-366 184.5t-138 511.5v37q0 243 79.5 410t219.5 239zM434 176h129q132 0 207.5 130.5t75.5 377.5v25q0 247 -75.5 377.5t-207.5 130.5t-208 -130.5t-76 -377.5v-25q0 -255 155 -508zM768 1634
q2 -31 4 -92l-149 -6q-6 68 -64 68q-57 0 -63 -68l-150 6q5 95 61 153t152 58q99 0 209 -119z" />
    <glyph glyph-name="uni020F" unicode="&#x20f;" horiz-adv-x="710" 
d="M674 176q-29 -33 -86 -96q-85 -98 -232 -98q-144 0 -231.5 98.5t-87.5 269.5v27q0 171 87.5 269.5t231.5 98.5q147 0 232.5 -98t85.5 -270v-27v-174zM408 152q10 16 30 51q29 53 29 149v25q0 96 -29 149q-30 49 -84 49q-112 0 -112 -198v-25q0 -200 112 -200h54zM555 975
q2 -31 4 -92l-149 -6q-6 67 -64 67q-57 0 -63 -67l-150 6q5 95 61 153t152 58q99 0 209 -119z" />
    <glyph glyph-name="uni0210" unicode="&#x210;" horiz-adv-x="950" 
d="M678 420l229 -420h-231l-187 348q-44 -8 -98 -8h-65v-340h-215v1393h280q228 0 365 -137.5t137 -378.5v-21q0 -148 -57 -259.5t-158 -176.5zM678 856v16q0 159 -71.5 245.5t-217.5 86.5h-63v-686h63q144 0 216.5 91t72.5 247zM252 1499l-100 291h190l57 -291h-147z
M651 1499h-147l-101 291h191z" />
    <glyph glyph-name="uni0211" unicode="&#x211;" horiz-adv-x="489" 
d="M391 555h-16q-49 0 -82 -33q-35 -35 -35 -129v-393h-199v727h199v-90q48 104 148 104q42 0 75 -20l-47 -178q-17 3 -43 12zM215 834h-147l-101 290h191zM410 1124l57 -290h-148l-100 290h191z" />
    <glyph glyph-name="uni0212" unicode="&#x212;" horiz-adv-x="950" 
d="M678 420l229 -420h-231l-187 348q-44 -8 -98 -8h-65v-340h-215v1393h280q228 0 365 -137.5t137 -378.5v-21q0 -148 -57 -259.5t-158 -176.5zM678 856v16q0 159 -71.5 245.5t-217.5 86.5h-63v-686h213l69 94q70 94 70 244zM377 1536l-150 6q5 95 61 153t152 58t152 -58
t61 -153l-149 -6q-6 68 -64 68q-57 0 -63 -68z" />
    <glyph glyph-name="uni0213" unicode="&#x213;" horiz-adv-x="489" 
d="M391 555h-16q-49 0 -82 -33q-35 -35 -35 -129v-393h-199v727h199v-90q48 104 148 104q42 0 75 -20l-47 -178q-17 3 -43 12zM471 975q2 -31 4 -92l-149 -6q-6 67 -64 67q-57 0 -63 -67l-150 6q5 95 61 153t152 58q99 0 209 -119z" />
    <glyph glyph-name="uni0214" unicode="&#x214;" horiz-adv-x="1032" 
d="M612 178q17 21 52 62q49 58 49 174v979h215v-983q0 -209 -112.5 -318.5t-299.5 -109.5t-299.5 109.5t-112.5 318.5v983h215v-979q0 -116 50 -176t147 -60h96zM334 1499l-101 291h191l57 -291h-147zM676 1790l57 -291h-147l-101 291h191z" />
    <glyph glyph-name="uni0215" unicode="&#x215;" horiz-adv-x="690" 
d="M299 166h35q46 0 72 26.5t26 79.5v455h199v-727h-199v84q-58 -102 -178 -102q-90 0 -145.5 65t-55.5 189v491h199v-471q0 -43 47 -90zM154 834l-101 290h191l57 -290h-147zM496 1124l57 -290h-147l-101 290h191z" />
    <glyph glyph-name="uni0216" unicode="&#x216;" horiz-adv-x="1032" 
d="M516 178h96l52 62q49 58 49 174v979h215v-983q0 -209 -112.5 -318.5t-299.5 -109.5t-299.5 109.5t-112.5 318.5v983h215v-979q0 -116 50 -176t147 -60zM621 1753q18 -20 55 -59q56 -59 59 -152l-149 -6q-6 68 -64 68q-57 0 -63 -68l-150 6q5 95 61 153t152 58h99z" />
    <glyph glyph-name="uni0217" unicode="&#x217;" horiz-adv-x="690" 
d="M379 166l27 27q26 26 26 79v455h199v-727h-199v84q-58 -102 -178 -102q-90 0 -145.5 65t-55.5 189v491h199v-471q0 -42 23 -66t59 -24h45zM559 883l-149 -6q-6 67 -64 67q-57 0 -63 -67l-150 6q5 95 61 153t152 58t152 -58t61 -153z" />
    <glyph glyph-name="Scommaaccent" unicode="&#x218;" horiz-adv-x="817" 
d="M551 422q-11 16 -31 51q-38 54 -110 115l-136 114q-105 92 -153.5 172.5t-48.5 194.5v14q0 145 97.5 235.5t252.5 90.5q94 0 160 -21.5t131 -66.5l-103 -164q-44 31 -85 47.5t-97 16.5q-63 0 -106 -37.5t-43 -96.5v-10q0 -63 31 -109t108 -110l139 -117
q108 -90 157.5 -175.5t49.5 -196.5v-21q0 -162 -106 -264t-293 -102q-219 0 -355 139l127 151q50 -47 101.5 -73.5t119.5 -26.5q88 0 140.5 47t52.5 125v16v62zM330 -80h49q49 0 84 -35t35 -84q0 -51 -35 -116l-78 -140h-94l43 150q-35 13 -54.5 41t-19.5 65q0 52 70 119z
" />
    <glyph glyph-name="scommaaccent" unicode="&#x219;" horiz-adv-x="534" 
d="M285 141q6 7 18 17q16 16 16 37v6q0 21 -20 38t-80 55l-24 15q-73 45 -110.5 96.5t-37.5 124.5v9q0 94 64 150t170 56q113 0 198 -63l-92 -129q-47 37 -100 37q-29 0 -45.5 -12.5t-16.5 -32.5v-4q0 -6 1 -12t4.5 -11.5t6.5 -9.5t10 -10t12 -9.5t16 -10.5t18 -11
t22.5 -12.5t24.5 -14.5q81 -48 124.5 -104t43.5 -131v-10q0 -95 -67.5 -154t-184.5 -59q-158 0 -242 96l105 125q58 -62 125 -62h41zM309 -80l35 -35q35 -35 35 -84q0 -51 -35 -116l-78 -140h-94l43 150q-35 13 -54.5 41t-19.5 65q0 51 34.5 85t84.5 34h49z" />
    <glyph glyph-name="uni021A" unicode="&#x21a;" horiz-adv-x="866" 
d="M541 0h-215v1204h-285v189h784v-189h-284v-1204zM426 -80q50 0 84.5 -34t34.5 -85t-35 -116l-78 -140h-94l43 150q-35 13 -54.5 41t-19.5 65q0 51 34.5 85t84.5 34z" />
    <glyph glyph-name="uni021B" unicode="&#x21b;" horiz-adv-x="456" 
d="M342 152q20 0 47 16l62 -143q-55 -41 -146 -41q-209 0 -209 235v346h-69v162h69v326h199v-326h129v-162h-129v-346q0 -37 11.5 -52t35.5 -15zM346 -315l-78 -140h-94l43 150q-35 13 -54.5 41t-19.5 65q0 51 34.5 85t84.5 34t84.5 -34t34.5 -85t-35 -116z" />
    <glyph glyph-name="uni021E" unicode="&#x21e;" horiz-adv-x="1062" 
d="M737 1393h215v-1393h-215v449h-411v-449h-215v1393h215v-756h411v756zM530 1493l-219 309h166l62 -82l63 82h162l-219 -309h-15z" />
    <glyph glyph-name="uni021F" unicode="&#x21f;" horiz-adv-x="690" 
d="M416 539q-25 22 -60 22q-46 0 -72 -26t-26 -78v-457h-199v1436h199v-791q57 100 178 100q90 0 145.5 -64t55.5 -187v-494h-199v471q0 46 -22 68zM432 1802h162l-219 -309h-15l-219 309h166l62 -82z" />
    <glyph glyph-name="uni0220" unicode="&#x220;" horiz-adv-x="1032" 
d="M713 1087q-16 21 -49 64q-51 63 -148 63q-77 0 -137 -47.5t-60 -126.5v-1040h-215v1393h215v-84l11 10q103 92 254 92q162 0 253 -125t91 -319v-1389h-215v1380v129z" />
    <glyph glyph-name="uni0226" unicode="&#x226;" horiz-adv-x="1001" 
d="M979 0h-225l-54 174h-411l-53 -174h-213l464 1405h27zM504 844q-6 21 -6 28q-2 -4 -10.5 -37.5t-21 -83t-22.5 -81.5l-100 -318h301l-96 318q-34 115 -45 174zM580 1546q-33 -33 -78 -33q-44 0 -77.5 32.5t-33.5 78.5t33.5 78.5t77.5 32.5t77 -32.5t33 -78.5
q0 -50 -32 -78z" />
    <glyph glyph-name="uni0227" unicode="&#x227;" horiz-adv-x="622" 
d="M496 682q69 -63 69 -203v-479h-198v59q-53 -77 -142 -77t-142.5 58.5t-53.5 170.5v10q0 105 68 162t190 57h80v37q0 98 -95 98q-78 0 -133 -49l-94 138q93 81 258 81q124 0 193 -63zM399 881q-33 -33 -77 -33t-77.5 32t-33.5 78t33.5 78.5t77.5 32.5t77 -32.5t33 -78.5
q0 -48 -33 -77zM297 301q-74 0 -74 -78v-8q0 -78 66 -78q78 0 78 96v68h-70z" />
    <glyph glyph-name="uni0228" unicode="&#x228;" horiz-adv-x="860" 
d="M528 -199q0 41 -51 41h-37v158h-329v1393h665v-189h-452v-567h381v-188h-381v-261h469v-188h-250v-72q110 -23 110 -131v-8q0 -69 -47 -107t-119 -38q-63 0 -106 26l45 97q18 -15 49 -15q53 0 53 43v6z" />
    <glyph glyph-name="uni0229" unicode="&#x229;" 
d="M494 -203v-8q0 -69 -47 -107t-119 -38q-64 0 -107 26l45 97q18 -15 49 -15q54 0 54 43v6q0 41 -52 41h-36v150q-98 21 -158 90q-86 100 -86 272v19q0 171 84.5 271.5t226.5 100.5q144 0 218.5 -100.5t74.5 -273.5v-78h-397q15 -137 141 -137q71 0 145 43l78 -156
q-92 -61 -225 -61v-54q111 -24 111 -131zM242 436h198q-9 146 -92 146q-91 0 -106 -146z" />
    <glyph glyph-name="uni022A" unicode="&#x22a;" horiz-adv-x="1126" 
d="M928 1229q139 -191 139 -514v-37q0 -327 -138 -511.5t-366 -184.5t-366 184.5t-138 511.5v37q0 326 138 510t366 184q227 0 365 -180zM563 1217q-132 0 -208 -130.5t-76 -377.5v-25q0 -247 76 -377.5t208 -130.5t207.5 130.5t75.5 377.5v25q0 247 -75.5 377.5
t-207.5 130.5zM735 1761h-344v148h344v-148zM596 1608q0 46 33.5 78t77.5 32t77 -32t33 -78t-33 -78.5t-77 -32.5t-77.5 32.5t-33.5 78.5zM305 1608q0 46 33.5 78t77.5 32t77 -32t33 -78t-33 -78.5t-77 -32.5t-77.5 32.5t-33.5 78.5z" />
    <glyph glyph-name="uni022B" unicode="&#x22b;" horiz-adv-x="710" 
d="M588 80q-85 -98 -232 -98q-144 0 -231.5 98.5t-87.5 269.5v27q0 171 87.5 269.5t231.5 98.5q147 0 232.5 -98t85.5 -270v-27q0 -175 -86 -270zM467 352v25q0 198 -113 198q-112 0 -112 -198v-25q0 -200 112 -200q55 0 84 50.5t29 149.5zM524 1106h-344v147h344v-147z
M416 860q-35 30 -35 78q0 46 33.5 78.5t77.5 32.5t77 -32.5t33 -78.5t-33 -78.5t-77 -32.5q-43 0 -76 33zM125 1018q36 31 76 31q44 0 77 -32.5t33 -78.5t-33 -78.5t-77 -32.5t-77.5 32.5t-33.5 78.5q0 45 35 80z" />
    <glyph glyph-name="uni022C" unicode="&#x22c;" horiz-adv-x="1126" 
d="M768 1364q140 -72 219.5 -239t79.5 -410v-37q0 -327 -138 -511.5t-366 -184.5t-366 184.5t-138 511.5v37q0 326 138 510t366 184q116 0 205 -45zM770 305q76 125 76 379v25q0 247 -75.5 377.5t-207.5 130.5t-208 -130.5t-76 -377.5v-25q0 -247 76 -377.5t208 -130.5
q131 0 207 129zM616 1669q18 0 28.5 11t14.5 42l134 -10q-10 -102 -51.5 -155.5t-104.5 -53.5q-43 0 -88 25l-35 16q-13 8 -29 8q-18 0 -28.5 -11t-14.5 -42l-133 10q21 209 156 209q38 0 88 -24.5t63 -24.5zM735 1780h-344v147h344v-147z" />
    <glyph glyph-name="uni022D" unicode="&#x22d;" horiz-adv-x="710" 
d="M588 80q-85 -98 -232 -98q-144 0 -231.5 98.5t-87.5 269.5v27q0 171 87.5 269.5t231.5 98.5q147 0 232.5 -98t85.5 -270v-27q0 -175 -86 -270zM375 842q-21 6 -41 16l-35 16q-15 9 -29 9q-18 0 -28.5 -11.5t-14.5 -42.5l-133 11q21 209 156 209q38 0 88 -25t63 -25
q18 0 28.5 11.5t14.5 42.5l134 -11q-10 -102 -51.5 -155t-104.5 -53q-28 0 -47 8zM467 352v25q0 198 -113 198q-112 0 -112 -198v-25q0 -200 112 -200q55 0 84 50.5t29 149.5zM526 1104h-344v147h344v-147z" />
    <glyph glyph-name="uni022E" unicode="&#x22e;" horiz-adv-x="1126" 
d="M1030 1010q37 -127 37 -295v-37q0 -327 -138 -511.5t-366 -184.5t-366 184.5t-138 511.5v37q0 326 138 510t366 184q169 0 290.5 -103t176.5 -296zM770 305q76 125 76 379v25q0 247 -75.5 377.5t-207.5 130.5t-208 -130.5t-76 -377.5v-25q0 -247 76 -377.5t208 -130.5
q131 0 207 129zM672 1624q0 -46 -33.5 -78.5t-77.5 -32.5t-77 32.5t-33 78.5t33 78.5t77 32.5t77.5 -32.5t33.5 -78.5z" />
    <glyph glyph-name="uni022F" unicode="&#x22f;" horiz-adv-x="710" 
d="M588 649q86 -100 86 -272v-27q0 -172 -85.5 -270t-232.5 -98q-144 0 -231.5 98.5t-87.5 269.5v27q0 171 87.5 269.5t231.5 98.5q145 0 232 -96zM467 352v25q0 198 -113 198q-112 0 -112 -198v-25q0 -200 112 -200q55 0 84 50.5t29 149.5zM467 958q0 -46 -33.5 -78
t-77.5 -32t-77 32t-33 78t33 78.5t77 32.5t77.5 -32.5t33.5 -78.5z" />
    <glyph glyph-name="uni0230" unicode="&#x230;" horiz-adv-x="1126" 
d="M768 29q-92 -47 -205 -47q-228 0 -366 184.5t-138 511.5v37q0 326 138 510t366 184t366 -184t138 -510v-37q0 -244 -79.5 -412t-219.5 -237zM846 684v25q0 247 -75.5 377.5t-207.5 130.5t-208 -130.5t-76 -377.5v-25q0 -247 76 -377.5t208 -130.5t207.5 130.5t75.5 377.5
zM735 1759h-344v148h344v-148zM639 1526q-33 -33 -78 -33q-44 0 -77 32.5t-33 78.5t33 78t77 32t77.5 -32t33.5 -78q0 -49 -33 -78z" />
    <glyph glyph-name="uni0231" unicode="&#x231;" horiz-adv-x="710" 
d="M674 377v-27q0 -172 -85.5 -270t-232.5 -98q-144 0 -231.5 98.5t-87.5 269.5v27q0 171 87.5 269.5t231.5 98.5q147 0 232.5 -98t85.5 -270zM467 352v25q0 198 -113 198q-112 0 -112 -198v-25q0 -200 112 -200q55 0 84 50.5t29 149.5zM526 1090h-344v147h344v-147z
M467 938q0 -46 -33.5 -78.5t-77.5 -32.5t-77 32.5t-33 78.5t33 78.5t77 32.5t77.5 -32.5t33.5 -78.5z" />
    <glyph glyph-name="uni0232" unicode="&#x232;" horiz-adv-x="968" 
d="M500 676q39 151 59 205l182 512h211l-358 -963v-430h-215v428l-363 965h220l186 -512q9 -24 19.5 -54.5t18.5 -60t15 -53.5t12 -43t5 -21q0 6 8 27zM662 1542h-345v148h345v-148z" />
    <glyph glyph-name="uni0233" unicode="&#x233;" horiz-adv-x="649" 
d="M334 328q1 -4 2 -8.5t1.5 -7t0.5 -3.5q0 21 37 144l86 274h184l-375 -1147h-186l162 494l-242 653h205l90 -274q9 -31 35 -125zM510 877h-344v147h344v-147z" />
    <glyph glyph-name="dotlessj" unicode="&#x237;" horiz-adv-x="321" 
d="M260 727v-924q0 -117 -57 -180q-58 -61 -168 -61q-84 0 -127 26l49 162q20 -12 47 -12q26 0 41.5 17.5t15.5 51.5v920h199z" />
    <glyph glyph-name="uni023A" unicode="&#x23a;" horiz-adv-x="1130" 
d="M625 1405l84 -252l174 238h186l-303 -412l324 -979h-226l-53 174h-412l-53 -174h-213l74 221l-164 -221h-186l501 680l240 725h27zM651 696q-2 12 -8 35q-10 34 -16 60l-62 -82q-2 -16 -10 -39l-100 -318h301l-97 318z" />
    <glyph glyph-name="uni023B" unicode="&#x23b;" horiz-adv-x="966" 
d="M473 174h166q51 0 90.5 14t87.5 43l88 -168q-57 -37 -117 -57q-68 -24 -170 -24q-253 0 -391 186q-1 1 -3 2t-3 2l-117 -172h-186l221 328q-9 27 -18 57q-37 127 -37 293v37q0 324 146.5 509t404.5 185q82 0 143 -20q41 -14 64 -27l20 29h187l-693 -1020q16 -36 33 -62z
M729 1200h-2q-35 14 -90 14q-159 0 -246.5 -132.5t-87.5 -372.5v-25q0 -41 4 -111l424 625z" />
    <glyph glyph-name="uni023C" unicode="&#x23c;" horiz-adv-x="559" 
d="M287 745h71q66 0 107 -12q23 -9 31 -14l4 6h186l-418 -500l13 -16q37 -49 102 -49q45 0 88 26l68 -159q-59 -45 -172 -45q-148 0 -232 84l-55 -66h-186l163 197q-20 64 -20 155v23q0 173 90 272q42 45 160 98zM252 483q-2 -20 -8 -63l123 147q-49 -3 -84 -47z" />
    <glyph glyph-name="uni023D" unicode="&#x23d;" horiz-adv-x="815" 
d="M340 725h203v-188h-203v-349h434v-188h-649v537h-105v188h105v668h215v-668z" />
    <glyph glyph-name="uni023E" unicode="&#x23e;" horiz-adv-x="905" 
d="M565 711v-711h-215v379l-246 -379h-186l432 666v538h-284v189h942zM565 997l133 207h-133v-207z" />
    <glyph glyph-name="uni023F" unicode="&#x23f;" horiz-adv-x="522" 
d="M319 172v23v6q0 21 -20 38t-80 55l-24 15q-73 45 -110.5 96.5t-37.5 124.5v9q0 94 64 150t170 56q113 0 198 -63l-92 -129q-47 37 -100 37q-29 0 -45.5 -12.5t-16.5 -32.5v-4q0 -6 1 -12t4.5 -11.5t6.5 -9.5t10 -10t12 -9.5t16 -10.5t18 -11t22.5 -12.5t24.5 -14.5
q81 -48 124.5 -104t43.5 -131v-10q0 -95 -67.5 -154t-184.5 -59h-12l37 -91q17 -37 29.5 -50t29.5 -13q22 0 39 10q9 6 12 12l76 -100q-60 -72 -156 -72q-125 0 -178 152l-74 207q-20 13 -45 41l105 125q58 -62 125 -62q39 0 75 31z" />
    <glyph glyph-name="uni0240" unicode="&#x240;" horiz-adv-x="567" 
d="M545 727v-12l-289 -617q16 -12 58 -47.5t67 -50t47 -14.5q38 0 64 39l102 -103q-53 -98 -160 -98q-49 0 -93.5 18t-78 44t-65 52t-68.5 44t-74 18h-37v12l263 557h-220v158h484z" />
    <glyph glyph-name="uni0241" unicode="&#x241;" horiz-adv-x="716" 
d="M451 969v20q0 106 -39 168q-41 66 -127 66q-89 0 -160 -68l-113 152q117 102 291 102q163 0 263 -113t100 -303v-24q0 -141 -70 -250t-193 -137v-582h-188v731h45q82 0 136.5 64.5t54.5 173.5z" />
    <glyph glyph-name="uni0242" unicode="&#x242;" horiz-adv-x="520" 
d="M145 741h82q128 0 197 -84q65 -83 65 -213v-18q0 -191 -145 -262v-164h-188v270h20q61 0 93 43.5t32 112.5v14q0 58 -26.5 90.5t-69.5 32.5q-59 0 -111 -45l-94 144q34 29 145 79z" />
    <glyph glyph-name="uni0243" unicode="&#x243;" horiz-adv-x="976" 
d="M928 430v-27q0 -180 -115 -292q-117 -111 -338 -111h-350v303h-105v189h105v901h332q179 0 284 -93.5t105 -248.5v-19q0 -188 -164 -262q110 -32 178 -121t68 -219zM713 416v18q0 111 -63 174.5t-183 63.5h-133v-180h168v-189h-168v-119h135q121 0 182.5 60.5t61.5 171.5
zM637 1020v12q0 176 -186 176h-117v-364h123q180 0 180 176z" />
    <glyph glyph-name="uni0244" unicode="&#x244;" horiz-adv-x="1067" 
d="M338 854h393v539h215v-539h101v-188h-101v-256q0 -209 -112 -318.5t-299 -109.5t-299.5 109.5t-112.5 318.5v256h-103v188h103v539h215v-539zM731 299v115v252h-393v-252q0 -116 50 -176t147 -60q93 0 196 121z" />
    <glyph glyph-name="uni0245" unicode="&#x245;" horiz-adv-x="1001" 
d="M522 764q-2 11 -6 29q-8 25 -12 51q-6 21 -6 28q-2 -4 -10.5 -37.5t-21 -83t-22.5 -81.5l-208 -670h-213l464 1405h27l465 -1405h-225l-205 670q-10 29 -27 94z" />
    <glyph glyph-name="uni0246" unicode="&#x246;" horiz-adv-x="964" 
d="M791 637v-188h-381v-261h469v-188h-682v164l-113 -164h-186l299 432v961h850l-523 -756h267zM729 1204h-319v-463z" />
    <glyph glyph-name="uni0247" unicode="&#x247;" horiz-adv-x="671" 
d="M301 156h84q71 0 145 43l78 -156q-92 -61 -225 -61q-159 0 -246 84l-57 -66h-186l167 190q-24 70 -24 164v19q0 171 84.5 271.5t226.5 100.5q96 0 160 -43l22 27h187l-119 -137q43 -87 43 -221v-78h-305l-70 -78zM373 582h-25q-91 0 -106 -146h32l117 133z" />
    <glyph glyph-name="uni0248" unicode="&#x248;" horiz-adv-x="780" 
d="M442 727v666h215v-666h103v-188h-103v-193q0 -177 -90 -269.5t-252 -92.5q-195 0 -303 131l138 139q34 -38 68 -58t81 -20q143 0 143 178v185h-163v188h163z" />
    <glyph glyph-name="uni0249" unicode="&#x249;" horiz-adv-x="403" 
d="M301 309v-506q0 -117 -57 -180q-58 -61 -168 -61q-84 0 -127 26l49 162q20 -12 47 -12q26 0 41.5 17.5t15.5 51.5v502h-82v168h82v250h199v-250h82v-168h-82zM315 950l-32 -32q-33 -33 -82 -33q-46 0 -80.5 33t-34.5 81q0 49 34.5 82t80.5 33t82 -31q32 -32 32 -84v-49z
" />
    <glyph glyph-name="uni024A" unicode="&#x24a;" horiz-adv-x="1173" 
d="M846 -313v116v342q-46 -58 -101 -98q-89 -65 -215 -65q-207 0 -339 185.5t-132 510.5v37q0 322 132 508t335 186q123 0 217 -66q55 -41 103 -98v150h215v-1588q0 -34 16 -53q16 -16 41 -16q27 0 47 12l49 -162q-43 -26 -127 -26q-110 0 -241 125zM434 1217
q-27 -43 -78 -127q-77 -130 -77 -381v-25q0 -247 76 -377.5t208 -130.5t207.5 130.5t75.5 377.5v25q0 247 -75.5 377.5t-207.5 130.5h-129z" />
    <glyph glyph-name="uni024B" unicode="&#x24b;" horiz-adv-x="745" 
d="M465 657v70h199v-920q0 -34 15.5 -51.5t41.5 -17.5q27 0 47 12l49 -162q-43 -26 -127 -26q-110 0 -167.5 62t-57.5 179v271q-57 -92 -170 -92q-109 0 -183.5 94t-74.5 276v23q0 182 74 276t182 94q120 0 172 -88zM469 258v96v19q0 96 -29.5 148t-83.5 52
q-55 0 -84.5 -51.5t-29.5 -148.5v-19q0 -97 29.5 -148.5t84.5 -51.5t113 104z" />
    <glyph glyph-name="uni024C" unicode="&#x24c;" horiz-adv-x="960" 
d="M688 420l230 -420h-232l-186 348q-44 -8 -99 -8h-65v-340h-215v729h-101v189h101v475h280q228 0 365 -137.5t137 -378.5v-21q0 -148 -57 -259.5t-158 -176.5zM688 856v16q0 159 -71.5 245.5t-217.5 86.5h-63v-286h166v-189h-166v-211h63q144 0 216.5 91t72.5 247z" />
    <glyph glyph-name="uni024D" unicode="&#x24d;" horiz-adv-x="534" 
d="M420 242h-119v-242h-199v242h-102v168h102v317h199v-90q48 104 148 104q42 0 75 -20l-47 -178q-46 12 -59 12q-49 0 -82 -33q-32 -28 -35 -112h119v-168z" />
    <glyph glyph-name="uni024E" unicode="&#x24e;" horiz-adv-x="972" 
d="M954 870h-194l-164 -440v-430h-215v428l-166 442h-195v189h123l-125 334h220l120 -334h267l118 334h211l-125 -334h125v-189zM526 770q5 12 13 39q8 32 18 61h-129q2 -5 10 -25.5t11 -33.5q34 -128 45 -162q0 3 32 121z" />
    <glyph glyph-name="uni024F" unicode="&#x24f;" horiz-adv-x="653" 
d="M260 582h160l45 145h184l-47 -145h47v-168h-102l-273 -834h-186l162 494l-125 340h-121v168h57l-53 145h205zM342 311q2 7 4 17q3 8 9.5 36.5t11.5 45.5v4h-54q2 -2 2 -4q5 -19 12 -44.5t11 -40t4 -16.5v2z" />
    <glyph glyph-name="uni0250" unicode="&#x250;" horiz-adv-x="622" 
d="M307 743h90q90 0 143.5 -58.5t53.5 -170.5v-10q0 -105 -68 -162t-190 -57h-80v-37q0 -98 94 -98q78 0 133 49l95 -138q-93 -81 -259 -81q-262 0 -262 266v479h199v-59zM367 424q32 29 32 78v8q0 78 -65 78q-78 0 -78 -96v-68h70h41z" />
    <glyph glyph-name="uni0251" unicode="&#x251;" horiz-adv-x="765" 
d="M465 657v70h199v-537q0 -33 8.5 -46t34.5 -13h28v-131h-125q-79 0 -110 63q-16 29 -19 66q-12 -32 -41 -74q-58 -73 -145 -73q-109 0 -183.5 94t-74.5 276v23q0 182 74 276t182 94q120 0 172 -88zM469 258v96v19q0 96 -29.5 148t-83.5 52q-55 0 -84.5 -51.5t-29.5 -148.5
v-19q0 -97 29.5 -148.5t84.5 -51.5t113 104z" />
    <glyph glyph-name="uni0252" unicode="&#x252;" horiz-adv-x="765" 
d="M616 23q-16 -7 -47 -21q-49 -22 -96 -22q-120 0 -172 88v-70h-199v537q0 33 -8.5 46t-34.5 13h-28v131h125q78 0 110 -66q16 -29 19 -63q12 32 41 74q58 73 145 73q109 0 183.5 -94t74.5 -276v-23q0 -99 -20 -166q-21 -71 -93 -161zM465 152q11 18 31 53q28 54 28 147v19
q0 97 -29.5 148.5t-84.5 51.5q-54 0 -83.5 -52t-29.5 -148v-19q0 -96 29.5 -148t83.5 -52h55z" />
    <glyph glyph-name="uni0253" unicode="&#x253;" horiz-adv-x="724" 
d="M575 23q-16 -7 -47 -21q-49 -22 -96 -22q-120 0 -172 88v-70h-199v1216q0 117 58 179.5t168 62.5q84 0 127 -26l-49 -162q-20 12 -48 12q-26 0 -41.5 -18t-15.5 -52v-559q59 92 170 92q52 0 96 -20q74 -36 118 -124t44 -226v-23q0 -99 -20 -166q-21 -71 -93 -161z
M483 352v19q0 97 -29.5 148.5t-84.5 51.5q-54 0 -83.5 -52t-29.5 -148v-19q0 -96 29.5 -148t83.5 -52q55 0 84.5 51.5t29.5 148.5z" />
    <glyph glyph-name="uni0254" unicode="&#x254;" horiz-adv-x="559" 
d="M135 745h66q71 0 129 -24q91 -41 141.5 -129t50.5 -217v-23q0 -175 -85.5 -272.5t-243.5 -97.5q-114 0 -173 45l68 159q43 -26 88 -26q67 0 104 49.5t37 144.5v21q0 93 -38 142.5t-97 49.5q-41 0 -84 -24l-78 153q37 22 115 49z" />
    <glyph glyph-name="uni0256" unicode="&#x256;" horiz-adv-x="745" 
d="M465 657v781h199v-1631q0 -34 15.5 -51.5t41.5 -17.5q27 0 47 12l49 -162q-43 -26 -127 -26q-110 0 -167.5 62t-57.5 179v271q-57 -92 -170 -92q-109 0 -183.5 94t-74.5 276v23q0 182 74 276t182 94q120 0 172 -88zM469 258v96v19q0 96 -29.5 148t-83.5 52
q-55 0 -84.5 -51.5t-29.5 -148.5v-19q0 -97 29.5 -148.5t84.5 -51.5t113 104z" />
    <glyph glyph-name="uni0257" unicode="&#x257;" horiz-adv-x="745" 
d="M414 745q16 -29 51 -88v557q0 117 57.5 179.5t167.5 62.5q84 0 127 -26l-49 -162q-20 12 -47 12q-26 0 -41.5 -18t-15.5 -52v-1210h-199v74q-57 -92 -170 -92q-109 0 -183.5 94t-74.5 276v23q0 182 74 276t182 94h121zM469 258v96v19q0 96 -29.5 148t-83.5 52
q-55 0 -84.5 -51.5t-29.5 -148.5v-19q0 -97 29.5 -148.5t84.5 -51.5t113 104z" />
    <glyph glyph-name="uni0259" unicode="&#x259;" 
d="M35 432h397q-15 137 -141 137q-72 0 -146 -43l-77 156q92 61 225 61q170 0 258 -97.5t88 -274.5v-19q0 -171 -84.5 -271.5t-226.5 -100.5q-144 0 -218.5 100.5t-74.5 273.5v78zM434 289h-198q9 -146 92 -146q91 0 106 146z" />
    <glyph glyph-name="uni025B" unicode="&#x25b;" horiz-adv-x="581" 
d="M440 203l105 -125q-84 -96 -242 -96q-116 0 -184 61.5t-68 157.5v10q0 106 94 164q18 11 31 16q-4 2 -12 10q-74 53 -74 138v8q0 92 63.5 145t170.5 53q113 0 198 -63l-92 -129q-47 37 -100 37q-28 0 -45 -16.5t-17 -38.5v-5q0 -29 24 -45t66 -16h52v-158h-50
q-61 0 -90.5 -30.5t-29.5 -63.5v-6q0 -70 75 -70q67 0 125 62z" />
    <glyph glyph-name="uni0260" unicode="&#x260;" horiz-adv-x="745" 
d="M465 657v557q0 118 57 181q58 61 168 61q84 0 127 -26l-49 -162q-20 12 -47 12q-26 0 -41.5 -18t-15.5 -52v-1304q0 -173 -90.5 -259.5t-249.5 -86.5q-180 0 -283 114l117 140q43 -41 73.5 -57.5t85.5 -16.5q69 0 108.5 41.5t39.5 128.5v164q-57 -92 -170 -92
q-109 0 -183.5 92.5t-74.5 273.5v31q0 181 73.5 273.5t182.5 92.5q120 0 172 -88zM410 154q10 16 30 51q29 56 29 145v27q0 94 -29.5 145t-83.5 51q-55 0 -84.5 -51t-29.5 -145v-27q0 -94 29.5 -145t84.5 -51h54z" />
    <glyph glyph-name="uni0263" unicode="&#x263;" horiz-adv-x="649" 
d="M344 342q2 9 6 23q3 15 25 88l86 274h184l-213 -657q58 -110 86 -183q27 -73 27 -137q0 -99 -61 -147.5t-146 -48.5t-146 48.5t-61 147.5q0 61 26.5 134.5t88.5 189.5l-242 653h205l90 -274q7 -22 16.5 -58t15.5 -60.5t7 -25.5q0 3 6 33zM371 -256v18q0 16 -17 62
q-9 21 -18 39q-2 -8 -10 -29q-21 -65 -21 -72q0 -43 33 -43q17 0 33 25z" />
    <glyph glyph-name="uni0266" unicode="&#x266;" horiz-adv-x="694" 
d="M438 516q-8 9 -22 23q-25 22 -60 22q-46 0 -72 -26t-26 -78v-457h-199v1214q0 117 58 179.5t168 62.5q84 0 127 -26l-50 -162q-20 12 -47 12q-26 0 -41.5 -18t-15.5 -52v-565q57 100 178 100q90 0 145.5 -64t55.5 -187v-494h-199v471v45z" />
    <glyph glyph-name="uni0268" unicode="&#x268;" horiz-adv-x="403" 
d="M102 727h199v-250h82v-168h-82v-309h-199v309h-82v168h82v250zM315 950l-32 -32q-33 -33 -82 -33q-46 0 -80.5 33t-34.5 81q0 49 34.5 82t80.5 33q48 0 81 -32.5t33 -82.5v-49z" />
    <glyph glyph-name="uni0269" unicode="&#x269;" horiz-adv-x="411" 
d="M291 174h24h47v-174h-77q-226 0 -226 227v498h199v-494q0 -37 33 -57z" />
    <glyph glyph-name="uni026B" unicode="&#x26b;" horiz-adv-x="573" 
d="M190 537v899h199v-947q12 0 27 11q11 11 14 43l133 -11q-10 -102 -51 -155t-104 -53h-19v-324h-199v373h-4q-18 0 -28.5 -11.5t-14.5 -42.5l-133 11q21 209 156 209q16 0 24 -2z" />
    <glyph glyph-name="uni0271" unicode="&#x271;" horiz-adv-x="1034" 
d="M776 -193v668q0 86 -71 86q-89 0 -89 -100v-461h-198v475q0 86 -74 86q-86 0 -86 -100v-461h-199v727h199v-80q58 98 168 98q108 0 154 -104q68 104 194 104q90 0 145.5 -63.5t55.5 -183.5v-695q0 -117 -57.5 -179t-167.5 -62q-84 0 -127 26l49 162q20 -12 47 -12
q26 0 41.5 17.5t15.5 51.5z" />
    <glyph glyph-name="uni0272" unicode="&#x272;" horiz-adv-x="718" 
d="M82 727h199v-82q57 100 178 100q90 0 145 -64t55 -187v-494h-198v471q0 43 -22.5 66.5t-59.5 23.5q-46 0 -72 -26t-26 -78v-654q0 -117 -58 -179t-168 -62q-84 0 -127 26l49 162q20 -12 48 -12q26 0 41.5 17.5t15.5 51.5v920z" />
    <glyph glyph-name="uni0275" unicode="&#x275;" horiz-adv-x="710" 
d="M502 745q29 -33 86 -96q86 -100 86 -272v-27q0 -175 -86 -270q-85 -98 -232 -98q-144 0 -231.5 98.5t-87.5 269.5v27q0 171 87.5 269.5t231.5 98.5h146zM354 152h54l30 51q9 18 13 28h106v168h-90q-3 80 -29 127q-30 49 -84 49q-55 0 -82 -49q-27 -43 -30 -127h-88v-168
h104q8 -20 14 -28q26 -51 82 -51zM467 399v-47q0 -71 -16 -121h-193q-16 50 -16 121v47h225z" />
    <glyph glyph-name="uni027D" unicode="&#x27d;" horiz-adv-x="489" 
d="M283 690q12 9 39 27q40 24 84 24q42 0 75 -20l-47 -178q-46 12 -59 12q-55 0 -86 -36t-31 -126v-586q0 -34 15.5 -51.5t41.5 -17.5q27 0 47 12l50 -162q-43 -26 -127 -26q-110 0 -168 62t-58 179v924h199v-90z" />
    <glyph glyph-name="uni027E" unicode="&#x27e;" horiz-adv-x="522" 
d="M543 627l-142 -140q-9 10 -25.5 27t-23.5 23q-24 18 -41 18q-20 0 -29.5 -13.5t-9.5 -47.5v-494h-221v498q0 121 66.5 184t185.5 63q143 0 240 -118z" />
    <glyph glyph-name="uni0283" unicode="&#x283;" horiz-adv-x="362" 
d="M281 1210v-1405q0 -117 -58 -179t-168 -62q-84 0 -127 26l49 162q20 -12 48 -12q26 0 41.5 18t15.5 52v1404q0 117 57.5 179.5t167.5 62.5q84 0 127 -26l-49 -162q-20 12 -47 12q-26 0 -41.5 -18t-15.5 -52z" />
    <glyph glyph-name="uni0288" unicode="&#x288;" horiz-adv-x="456" 
d="M424 565h-129v-764q0 -37 11.5 -52t35.5 -15q20 0 47 16l62 -143q-55 -41 -146 -41q-209 0 -209 235v764h-69v162h69v326h199v-326h129v-162z" />
    <glyph glyph-name="uni0289" unicode="&#x289;" horiz-adv-x="782" 
d="M680 0h-199v84q-59 -102 -178 -102q-90 0 -145.5 65t-55.5 189v118h-82v168h82v205h199v-205h180v205h199v-205h82v-168h-82v-354zM481 219v53v82h-180v-98q0 -42 23 -66t59 -24q45 0 98 53z" />
    <glyph glyph-name="uni028B" unicode="&#x28b;" horiz-adv-x="667" 
d="M614 106q-24 -20 -75 -61q-75 -63 -201 -63q-133 0 -209 64t-76 190v491h199v-471q0 -42 23 -66t59 -24t59 24t23 66v244q0 34 -16 51.5t-42 17.5q-27 0 -47 -12l-49 162q43 26 127 26q110 0 167.5 -62t57.5 -179v-268v-130z" />
    <glyph glyph-name="uni028C" unicode="&#x28c;" horiz-adv-x="643" 
d="M332 279q-2 6 -6 20q-9 20 -15 49q-8 -34 -14 -49q-7 -22 -27 -86l-77 -213h-189l303 739h23l309 -739h-207l-80 213q-6 12 -20 66z" />
    <glyph glyph-name="uni0292" unicode="&#x292;" horiz-adv-x="651" 
d="M578 727v-12l-203 -400q34 -3 78 -22q65 -32 105 -104.5t40 -188.5v-53q0 -171 -91 -279t-228 -108q-83 0 -150 30t-111 80l109 137q63 -63 135 -63q59 0 91 64.5t32 162.5v6q0 216 -141 216q-53 0 -97 -23l-8 14l178 355h-237v188h498z" />
    <glyph glyph-name="uni0294" unicode="&#x294;" horiz-adv-x="716" 
d="M451 969v20q0 106 -39 168q-41 66 -127 66q-89 0 -160 -68l-113 152q117 102 291 102q163 0 263 -113t100 -303v-24q0 -141 -70 -250t-193 -137v-582h-188v731h45q82 0 136.5 64.5t54.5 173.5z" />
    <glyph glyph-name="uni0295" unicode="&#x295;" horiz-adv-x="716" 
d="M502 731v-731h-189v582q-123 28 -192.5 137t-69.5 250v24q0 190 100 303t263 113q174 0 291 -102l-113 -152q-71 68 -160 68q-83 0 -124.5 -63t-41.5 -171v-20q0 -109 54.5 -173.5t136.5 -64.5h45z" />
    <glyph glyph-name="uni02B9" unicode="&#x2b9;" horiz-adv-x="573" 
d="M371 834h-156l104 290h224z" />
    <glyph glyph-name="uni02BB" unicode="&#x2bb;" horiz-adv-x="387" 
d="M326 958v-43q0 -58 -40 -95.5t-96 -37.5q-55 0 -94 37t-39 96q0 50 45 132l101 188h104l-59 -199q28 -12 78 -78z" />
    <glyph glyph-name="afii57929" unicode="&#x2bc;" horiz-adv-x="366" 
d="M328 1104q0 -32 -10.5 -59.5t-34.5 -71.5l-101 -189h-104l59 199q-78 42 -78 121q0 58 40 95.5t96 37.5q55 0 94 -37t39 -96z" />
    <glyph glyph-name="apostropherev" unicode="&#x2bd;" horiz-adv-x="374" 
d="M242 1233q14 -12 41 -37q41 -38 41 -96q0 -79 -78 -121l59 -199h-104l-101 189q-24 44 -34.5 71.5t-10.5 59.5q0 59 39 96t94 37h54z" />
    <glyph glyph-name="uni02BE" unicode="&#x2be;" horiz-adv-x="292" 
d="M213 885l-23 -23q-52 -49 -122 -49v100q27 0 44 17t17 47t-17 47.5t-44 17.5v101q70 0 122 -49q52 -52 52 -117q0 -29 -29 -92z" />
    <glyph glyph-name="uni02C0" unicode="&#x2c0;" horiz-adv-x="628" 
d="M322 954v7q0 34 -37 34q-20 0 -37 -10l-29 -20l-76 112q26 28 74 48t109 20q66 0 125 -41q55 -40 55 -121v-6q0 -71 -37 -111q-15 -16 -33 -26v-58h-164v129h9q20 0 30.5 12t10.5 31z" />
    <glyph glyph-name="circumflex" unicode="&#x2c6;" 
d="M336 905l-64 -82h-161l219 310h14l219 -310h-166z" />
    <glyph glyph-name="caron" unicode="&#x2c7;" 
d="M332 801l-219 309h166l61 -82l63 82h162l-219 -309h-14z" />
    <glyph glyph-name="uni02C9" unicode="&#x2c9;" horiz-adv-x="393" 
d="M27 1024h344v-147h-344v147z" />
    <glyph glyph-name="uni02CA" unicode="&#x2ca;" horiz-adv-x="487" 
d="M256 834l63 290h224l-131 -290h-156z" />
    <glyph glyph-name="uni02CB" unicode="&#x2cb;" horiz-adv-x="487" 
d="M133 1124h223l64 -290h-156z" />
    <glyph glyph-name="breve" unicode="&#x2d8;" 
d="M395 987q2 23 6 68l150 -6q-5 -95 -61 -153t-152 -58t-152 58t-61 153l149 6q6 -68 64 -68h57z" />
    <glyph glyph-name="dotaccent" unicode="&#x2d9;" 
d="M381 1069q12 -11 35 -31q33 -33 33 -80q0 -48 -33 -77q-33 -33 -78 -33q-44 0 -77.5 32t-33.5 78t33.5 78.5t77.5 32.5h43z" />
    <glyph glyph-name="ring" unicode="&#x2da;" 
d="M483 885q-8 -9 -22 -23q-52 -49 -123 -49q-69 0 -121.5 49t-52.5 115q0 67 52.5 116.5t121.5 49.5q31 0 68 -13q47 -23 76.5 -63.5t29.5 -89.5q0 -29 -29 -92zM399 1008q-6 6 -16 18q-19 16 -45 16q-27 0 -44.5 -17.5t-17.5 -47.5t17.5 -47t44.5 -17t44 17t17 47v31z" />
    <glyph glyph-name="ogonek" unicode="&#x2db;" 
d="M313 -129q-2 -9 -8 -25q-8 -19 -8 -41v-6q0 -27 16 -37q17 -10 35 -10q27 0 53 15l39 -95q-46 -28 -108 -28q-71 0 -118.5 34.5t-47.5 100.5v8q0 65 65 150l50 63h114l-55 -88z" />
    <glyph glyph-name="tilde" unicode="&#x2dc;" 
d="M483 834h-61q-28 0 -47 8q-21 6 -41 16l-35 16q-15 9 -29 9q-18 0 -28.5 -11.5t-14.5 -42.5l-133 11q21 209 156 209q38 0 88 -25t63 -25q18 0 28.5 11.5t14.5 42.5l134 -11q-8 -98 -95 -208z" />
    <glyph glyph-name="hungarumlaut" unicode="&#x2dd;" 
d="M385 1124l-100 -290h-148l58 290h190zM389 834l57 290h191l-100 -290h-148z" />
    <glyph glyph-name="gravecomb" unicode="&#x300;" horiz-adv-x="708" 
d="M440 834h-155l-131 290h223zM322 158l-3 -174q-126 12 -204 108l157 107q16 -31 50 -41zM291 561q-7 -10 -19 -33l-157 107q78 96 204 108l3 -174zM557 682q12 -16 37 -47l-158 -107q-16 31 -49 41l2 174q64 -6 168 -61zM418 166q6 10 18 33l158 -107q-74 -96 -205 -108
l-2 174zM631 150l-172 112q8 31 8 70l205 -2q-3 -106 -41 -180zM242 416v-21l-205 2q3 107 41 181l172 -113q-7 -33 -8 -49zM39 229q0 33 -2 101l205 2q0 -39 8 -70l-172 -112zM467 416q-2 26 -8 49l172 113q38 -74 41 -181l-205 -2v21z" />
    <glyph glyph-name="acutecomb" unicode="&#x301;" horiz-adv-x="708" 
d="M559 1124l-131 -290h-156l64 290h223zM193 -4q-27 33 -78 96l157 107q16 -31 50 -41l-3 -174zM272 528l-157 107q78 96 204 108l3 -174q-34 -10 -50 -41zM557 682q12 -16 37 -47l-158 -107q-16 31 -49 41l2 174q64 -6 168 -61zM418 166q6 10 18 33l158 -107
q-74 -96 -205 -108l-2 174zM631 150l-172 112q8 31 8 70l205 -2q-3 -106 -41 -180zM242 395l-205 2q3 107 41 181l172 -113q-8 -31 -8 -70zM250 262l-172 -112q-38 74 -41 180l205 2q0 -39 8 -70zM467 416q-2 26 -8 49l172 113q38 -74 41 -181l-205 -2v21z" />
    <glyph glyph-name="uni0302" unicode="&#x302;" horiz-adv-x="708" 
d="M360 1133l220 -310h-166l-62 82l-63 -82h-162l219 310h14zM272 528l-157 107q78 96 204 108l3 -174q-34 -10 -50 -41zM193 -4q-27 33 -78 96l157 107q16 -31 50 -41l-3 -174zM387 569l2 174q67 -6 117 -32q46 -23 88 -76l-158 -107q-16 31 -49 41zM557 45q-16 -9 -51 -27
q-55 -28 -117 -34l-2 174q33 10 49 41l158 -107zM242 395l-205 2q3 107 41 181l172 -113q-8 -31 -8 -70zM39 229q0 33 -2 101l205 2q0 -39 8 -70l-172 -112zM463 449q-2 6 -4 16l172 113q38 -74 41 -181l-205 -2q0 8 -4 54zM631 150l-172 112q8 31 8 70l205 -2
q-3 -106 -41 -180z" />
    <glyph glyph-name="tildecomb" unicode="&#x303;" horiz-adv-x="708" 
d="M373 1014q6 -2 16 -6q15 -9 29 -9q18 0 28.5 11.5t14.5 42.5l133 -11q-10 -102 -51.5 -155t-104.5 -53q-45 0 -88 24l-35 16q-15 9 -28 9q-18 0 -28.5 -11.5t-14.5 -42.5l-133 11q21 209 155 209q38 0 107 -35zM193 -4q-27 33 -78 96l157 107q16 -31 50 -41l-3 -174z
M272 528l-157 107q78 96 204 108l3 -174q-34 -10 -50 -41zM418 561q-11 2 -31 8l2 174q131 -12 205 -108l-158 -107zM389 -16l-2 174q33 10 49 41l158 -107q-74 -96 -205 -108zM242 416v-21l-205 2q3 107 41 181l172 -113q-7 -33 -8 -49zM39 229q0 33 -2 101l205 2
q0 -39 8 -70l-172 -112zM670 229q-12 -26 -39 -79l-172 112q8 31 8 70l205 -2zM467 416q-2 26 -8 49l172 113q38 -74 41 -181l-205 -2v21z" />
    <glyph glyph-name="uni0304" unicode="&#x304;" horiz-adv-x="708" 
d="M180 1024h344v-147h-344v147zM193 -4q-27 33 -78 96l157 107q16 -31 50 -41l-3 -174zM291 561q-7 -10 -19 -33l-157 107q78 96 204 108l3 -174zM557 682q12 -16 37 -47l-158 -107q-16 31 -49 41l2 174q64 -6 168 -61zM436 199l158 -107q-74 -96 -205 -108l-2 174
q33 10 49 41zM39 229q0 33 -2 101l205 2q0 -39 8 -70l-172 -112zM670 229q-12 -26 -39 -79l-172 112q8 31 8 70l205 -2zM463 449q-2 6 -4 16l172 113q38 -74 41 -181l-205 -2q0 8 -4 54zM242 395l-205 2q3 107 41 181l172 -113q-8 -31 -8 -70z" />
    <glyph glyph-name="uni0306" unicode="&#x306;" horiz-adv-x="708" 
d="M408 987q2 23 6 68l149 -6q-5 -95 -61 -153t-152 -58t-152 58t-61 153l150 6q6 -68 63 -68h58zM272 528l-157 107q78 96 204 108l3 -174q-34 -10 -50 -41zM193 -4q-27 33 -78 96l157 107q16 -31 50 -41l-3 -174zM387 569l2 174q67 -6 117 -32q46 -23 88 -76l-158 -107
q-16 31 -49 41zM557 45q-16 -9 -51 -27q-55 -28 -117 -34l-2 174q33 10 49 41l158 -107zM670 229q-12 -26 -39 -79l-172 112q8 31 8 70l205 -2zM242 416v-21l-205 2q3 107 41 181l172 -113q-7 -33 -8 -49zM463 449q-2 6 -4 16l172 113q38 -74 41 -181l-205 -2q0 8 -4 54z
M39 229q0 33 -2 101l205 2q0 -39 8 -70l-172 -112z" />
    <glyph glyph-name="uni0307" unicode="&#x307;" horiz-adv-x="708" 
d="M393 1069q12 -11 35 -31q33 -33 33 -80q0 -46 -33.5 -78t-77.5 -32t-77 32t-33 78t33 78.5t77 32.5h43zM291 561q-7 -10 -19 -33l-157 107q78 96 204 108l3 -174zM322 158l-3 -174q-126 12 -204 108l157 107q16 -31 50 -41zM387 569l2 174q67 -6 117 -32q46 -23 88 -76
l-158 -107q-16 31 -49 41zM557 45q-16 -9 -51 -27q-55 -28 -117 -34l-2 174q33 10 49 41l158 -107zM242 416v-21l-205 2q3 107 41 181l172 -113q-7 -33 -8 -49zM250 262l-172 -112q-38 74 -41 180l205 2q0 -39 8 -70zM463 449q-2 6 -4 16l172 113q38 -74 41 -181l-205 -2
q0 8 -4 54zM670 229q-12 -26 -39 -79l-172 112q8 31 8 70l205 -2z" />
    <glyph glyph-name="uni0308" unicode="&#x308;" horiz-adv-x="708" 
d="M387 911v47q0 45 35 80q36 31 76 31q44 0 77 -32.5t33 -78.5t-33 -78t-77 -32q-45 0 -111 63zM96 911v47q0 46 33.5 78.5t77.5 32.5t77 -32.5t33 -78.5t-33 -78t-77 -32q-45 0 -111 63zM193 -4q-27 33 -78 96l157 107q16 -31 50 -41l-3 -174zM272 528l-157 107
q78 96 204 108l3 -174q-34 -10 -50 -41zM594 635l-158 -107q-16 31 -49 41l2 174q131 -12 205 -108zM389 -16l-2 174q33 10 49 41l158 -107q-74 -96 -205 -108zM39 229q0 33 -2 101l205 2q0 -39 8 -70l-172 -112zM670 229q-12 -26 -39 -79l-172 112q8 31 8 70l205 -2z
M463 449q-2 6 -4 16l172 113q38 -74 41 -181l-205 -2q0 8 -4 54zM242 416v-21l-205 2q3 107 41 181l172 -113q-7 -33 -8 -49z" />
    <glyph glyph-name="hookabovecomb" unicode="&#x309;" horiz-adv-x="708" 
d="M414 1008q-7 6 -17 18q-19 16 -45 16q-27 0 -44 -17.5t-17 -47.5h-113q0 67 52.5 116.5t121.5 49.5t121.5 -49.5t52.5 -116.5q0 -66 -52.5 -115t-121.5 -49v100q25 0 45 17q17 17 17 47v31zM322 158l-3 -174q-126 12 -204 108l157 107q16 -31 50 -41zM291 561
q-7 -10 -19 -33l-157 107q78 96 204 108l3 -174zM594 635l-158 -107q-16 31 -49 41l2 174q131 -12 205 -108zM453 -10q-21 -2 -64 -6l-2 174q33 10 49 41l158 -107q-39 -48 -141 -102zM242 416v-21l-205 2q3 107 41 181l172 -113q-7 -33 -8 -49zM39 229q0 33 -2 101l205 2
q0 -39 8 -70l-172 -112zM463 449q-2 6 -4 16l172 113q38 -74 41 -181l-205 -2q0 8 -4 54zM670 229q-12 -26 -39 -79l-172 112q8 31 8 70l205 -2z" />
    <glyph glyph-name="uni030A" unicode="&#x30a;" horiz-adv-x="708" 
d="M451 840q-11 -5 -31 -13q-32 -14 -68 -14q-69 0 -121.5 49t-52.5 115q0 67 52.5 116.5t121.5 49.5t121.5 -49.5t52.5 -116.5q0 -35 -15 -65t-60 -72zM193 731l126 12l3 -174q-34 -10 -50 -41l-157 107zM291 166q11 -2 31 -8l-3 -174q-126 12 -204 108l157 107zM418 561
q-11 2 -31 8l2 174q131 -12 205 -108l-158 -107zM453 -10q-21 -2 -64 -6l-2 174q33 10 49 41l158 -107q-39 -48 -141 -102zM242 395l-205 2q3 107 41 181l172 -113q-8 -31 -8 -70zM39 229q0 33 -2 101l205 2q0 -39 8 -70l-172 -112zM463 449q-2 6 -4 16l172 113
q38 -74 41 -181l-205 -2q0 8 -4 54zM670 229q-12 -26 -39 -79l-172 112q8 31 8 70l205 -2zM414 1008q-7 6 -17 18q-19 16 -45 16q-27 0 -44 -17.5t-17 -47.5t17 -47t44 -17t44.5 17t17.5 47v31z" />
    <glyph glyph-name="uni030B" unicode="&#x30b;" horiz-adv-x="708" 
d="M389 834l57 290h191l-100 -290h-148zM285 834h-148l58 290h190zM193 -4q-27 33 -78 96l157 107q16 -31 50 -41l-3 -174zM272 528l-157 107q78 96 204 108l3 -174q-34 -10 -50 -41zM387 569l2 174q131 -12 205 -108l-158 -107q-16 31 -49 41zM557 45q-16 -9 -51 -27
q-55 -28 -117 -34l-2 174q33 10 49 41l158 -107zM39 229q0 33 -2 101l205 2q0 -39 8 -70l-172 -112zM670 229q-12 -26 -39 -79l-172 112q8 31 8 70l205 -2zM463 449q-2 6 -4 16l172 113q38 -74 41 -181l-205 -2q0 8 -4 54zM242 416v-21l-205 2q3 107 41 181l172 -113
q-7 -33 -8 -49z" />
    <glyph glyph-name="uni030C" unicode="&#x30c;" horiz-adv-x="708" 
d="M354 1028l64 82h162l-220 -309h-14l-219 309h166zM291 561q-7 -10 -19 -33l-157 107q78 96 204 108l3 -174zM193 -4q-27 33 -78 96l157 107q16 -31 50 -41l-3 -174zM387 569l2 174q67 -6 117 -32q46 -23 88 -76l-158 -107q-16 31 -49 41zM557 45q-16 -9 -51 -27
q-55 -28 -117 -34l-2 174q33 10 49 41l158 -107zM242 416v-21l-205 2q3 107 41 181l172 -113q-7 -33 -8 -49zM250 262l-172 -112q-38 74 -41 180l205 2q0 -39 8 -70zM463 449q-2 6 -4 16l172 113q38 -74 41 -181l-205 -2q0 8 -4 54zM670 229q-12 -26 -39 -79l-172 112
q8 31 8 70l205 -2z" />
    <glyph glyph-name="uni030D" unicode="&#x30d;" horiz-adv-x="708" 
d="M250 1124h199v-288h-199v288zM291 561q-7 -10 -19 -33l-157 107q78 96 204 108l3 -174zM322 158l-3 -174q-126 12 -204 108l157 107q16 -31 50 -41zM557 682q12 -16 37 -47l-158 -107q-16 31 -49 41l2 174q64 -6 168 -61zM436 199l158 -107q-40 -49 -88 -74
q-55 -28 -117 -34l-2 174q33 10 49 41zM631 150l-172 112q8 31 8 70l205 -2q-3 -106 -41 -180zM242 395l-205 2q3 107 41 181l172 -113q-8 -31 -8 -70zM463 449q-2 6 -4 16l172 113q38 -74 41 -181l-205 -2q0 8 -4 54zM250 262l-172 -112q-38 74 -41 180l205 2q0 -39 8 -70z
" />
    <glyph glyph-name="uni030E" unicode="&#x30e;" horiz-adv-x="708" 
d="M377 1124h178l-10 -288h-158zM317 836h-157l-10 288h178zM291 561q-7 -10 -19 -33l-157 107q78 96 204 108l3 -174zM193 -4q-27 33 -78 96l157 107q16 -31 50 -41l-3 -174zM387 569l2 174q67 -6 117 -32q46 -23 88 -76l-158 -107q-16 31 -49 41zM453 -10q-21 -2 -64 -6
l-2 174q33 10 49 41l158 -107q-39 -48 -141 -102zM242 395l-205 2q3 107 41 181l172 -113q-8 -31 -8 -70zM39 229q0 33 -2 101l205 2q0 -39 8 -70l-172 -112zM463 449q-2 6 -4 16l172 113q38 -74 41 -181l-205 -2q0 8 -4 54zM670 229q-12 -26 -39 -79l-172 112q8 31 8 70
l205 -2z" />
    <glyph glyph-name="uni030F" unicode="&#x30f;" horiz-adv-x="708" 
d="M156 834l-101 290h191l57 -290h-147zM498 1124l57 -290h-147l-101 290h191zM291 561q-7 -10 -19 -33l-157 107q78 96 204 108l3 -174zM193 -4q-27 33 -78 96l157 107q16 -31 50 -41l-3 -174zM387 569l2 174q67 -6 117 -32q46 -23 88 -76l-158 -107q-16 31 -49 41zM557 45
q-16 -9 -51 -27q-55 -28 -117 -34l-2 174q33 10 49 41l158 -107zM467 416q-2 26 -8 49l172 113q38 -74 41 -181l-205 -2v21zM242 416v-21l-205 2q3 107 41 181l172 -113q-7 -33 -8 -49zM631 150l-172 112q8 31 8 70l205 -2q-3 -106 -41 -180zM250 262l-172 -112
q-38 74 -41 180l205 2q0 -39 8 -70z" />
    <glyph glyph-name="uni0311" unicode="&#x311;" horiz-adv-x="708" 
d="M561 936q2 -31 4 -92l-149 -6q-6 67 -64 67q-57 0 -63 -67l-150 6q5 95 61 153t152 58q99 0 209 -119zM272 528l-157 107q78 96 204 108l3 -174q-34 -10 -50 -41zM193 -4q-27 33 -78 96l157 107q16 -31 50 -41l-3 -174zM387 569l2 174q67 -6 117 -32q46 -23 88 -76
l-158 -107q-16 31 -49 41zM557 45q-16 -9 -51 -27q-55 -28 -117 -34l-2 174q33 10 49 41l158 -107zM467 416q-2 26 -8 49l172 113q38 -74 41 -181l-205 -2v21zM242 395l-205 2q3 107 41 181l172 -113q-8 -31 -8 -70zM631 150l-172 112q8 31 8 70l205 -2q-3 -106 -41 -180z
M39 229q0 33 -2 101l205 2q0 -39 8 -70l-172 -112z" />
    <glyph glyph-name="uni031B" unicode="&#x31b;" horiz-adv-x="722" 
d="M537 731q36 0 56.5 18.5t20.5 49.5q0 26 -10 43l158 45q24 -39 24 -117q0 -104 -73 -147q-64 -36 -166 -21l-111 -74q-16 31 -49 41l2 174q19 0 65.5 -6t82.5 -6zM193 -4q-27 33 -78 96l157 107q16 -31 50 -41l-3 -174zM272 528l-157 107q78 96 204 108l3 -174
q-34 -10 -50 -41zM436 199l158 -107q-40 -49 -88 -74q-55 -28 -117 -34l-2 174q33 10 49 41zM467 416q-2 26 -8 49l172 113q38 -74 41 -181l-205 -2v21zM670 229q-12 -26 -39 -79l-172 112q8 31 8 70l205 -2zM250 262l-172 -112q-38 74 -41 180l205 2q0 -39 8 -70zM242 416
v-21l-205 2q3 107 41 181l172 -113q-7 -33 -8 -49zM389 743l111 -131q31 -8 47 -10l47 33q-74 96 -205 108z" />
    <glyph glyph-name="dotbelowcomb" unicode="&#x323;" horiz-adv-x="708" 
d="M393 -78q12 -10 35 -33q33 -29 33 -77q0 -46 -33.5 -78.5t-77.5 -32.5t-77 32.5t-33 78.5t33 78t77 32h43zM291 561q-7 -10 -19 -33l-157 107q78 96 204 108l3 -174zM322 158l-3 -174q-126 12 -204 108l157 107q16 -31 50 -41zM387 569l2 174q67 -6 117 -32
q46 -23 88 -76l-158 -107q-16 31 -49 41zM557 45q-16 -9 -51 -27q-55 -28 -117 -34l-2 174q33 10 49 41l158 -107zM242 416v-21l-205 2q3 107 41 181l172 -113q-7 -33 -8 -49zM250 262l-172 -112q-38 74 -41 180l205 2q0 -39 8 -70zM463 449q-2 6 -4 16l172 113
q38 -74 41 -181l-205 -2q0 8 -4 54zM670 229q-12 -26 -39 -79l-172 112q8 31 8 70l205 -2z" />
    <glyph glyph-name="uni0324" unicode="&#x324;" horiz-adv-x="708" 
d="M96 -236v48q0 46 33.5 78t77.5 32t77 -32t33 -78t-33 -78.5t-77 -32.5q-45 0 -111 63zM387 -236v48q0 47 35 77q33 33 76 33q44 0 77 -32t33 -78t-33 -78.5t-77 -32.5q-45 0 -111 63zM193 -4q-27 33 -78 96l157 107q16 -31 50 -41l-3 -174zM272 528l-157 107
q78 96 204 108l3 -174q-34 -10 -50 -41zM594 635l-158 -107q-16 31 -49 41l2 174q131 -12 205 -108zM389 -16l-2 174q33 10 49 41l158 -107q-74 -96 -205 -108zM39 229q0 33 -2 101l205 2q0 -39 8 -70l-172 -112zM670 229q-12 -26 -39 -79l-172 112q8 31 8 70l205 -2z
M463 449q-2 6 -4 16l172 113q38 -74 41 -181l-205 -2q0 8 -4 54zM242 416v-21l-205 2q3 107 41 181l172 -113q-7 -33 -8 -49z" />
    <glyph glyph-name="uni0325" unicode="&#x325;" horiz-adv-x="708" 
d="M451 -369q-11 -4 -31 -14q-34 -12 -68 -12q-69 0 -121.5 49t-52.5 115q0 67 52 116t122 49t122 -49t52 -116q0 -35 -15.5 -65.5t-59.5 -72.5zM193 731l126 12l3 -174q-34 -10 -50 -41l-157 107zM291 166q11 -2 31 -8l-3 -174q-126 12 -204 108l157 107zM418 561
q-11 2 -31 8l2 174q131 -12 205 -108l-158 -107zM453 -10q-21 -2 -64 -6l-2 174q33 10 49 41l158 -107q-39 -48 -141 -102zM242 395l-205 2q3 107 41 181l172 -113q-8 -31 -8 -70zM39 229q0 33 -2 101l205 2q0 -39 8 -70l-172 -112zM463 449q-2 6 -4 16l172 113
q38 -74 41 -181l-205 -2q0 8 -4 54zM670 229q-12 -26 -39 -79l-172 112q8 31 8 70l205 -2zM414 -201l-17 17q-18 18 -45 18t-44 -17.5t-17 -47.5t17 -47t44 -17t44.5 17t17.5 47v30z" />
    <glyph glyph-name="uni0326" unicode="&#x326;" horiz-adv-x="708" 
d="M399 -80l35 -35q35 -35 35 -84q0 -51 -35 -116l-78 -140h-94l43 150q-35 13 -54.5 41t-19.5 65q0 51 34.5 85t84.5 34h49zM272 528l-157 107q78 96 204 108l3 -174q-34 -10 -50 -41zM322 158l-3 -174q-126 12 -204 108l157 107q16 -31 50 -41zM594 635l-158 -107
q-16 31 -49 41l2 174q67 -6 117 -32q46 -23 88 -76zM389 -16l-2 174q33 10 49 41l158 -107q-74 -96 -205 -108zM467 416q-2 26 -8 49l172 113q38 -74 41 -181l-205 -2v21zM631 150l-172 112q8 31 8 70l205 -2q-3 -106 -41 -180zM39 229q0 33 -2 101l205 2q0 -39 8 -70
l-172 -112zM242 416v-21l-205 2q3 107 41 181l172 -113q-7 -33 -8 -49z" />
    <glyph glyph-name="uni0327" unicode="&#x327;" horiz-adv-x="708" 
d="M360 -248q7 4 17 10q14 8 14 33v6q0 41 -51 41h-37v144q-112 15 -188 106l157 107q16 -31 50 -41l-3 -170h70l-2 170q33 10 49 41l158 -107q-40 -49 -88 -74q-43 -22 -100 -32v-58q110 -23 110 -131v-8q0 -69 -47 -107t-119 -38q-63 0 -106 26l45 97q18 -15 49 -15h22z
M291 561q-7 -10 -19 -33l-157 107q78 96 204 108l3 -174zM418 561q-11 2 -31 8l2 174q131 -12 205 -108l-158 -107zM242 395l-205 2q3 107 41 181l172 -113q-8 -31 -8 -70zM463 449q-2 6 -4 16l172 113q38 -74 41 -181l-205 -2q0 8 -4 54zM631 150l-172 112q8 31 8 70
l205 -2q-3 -106 -41 -180zM39 229q0 33 -2 101l205 2q0 -39 8 -70l-172 -112z" />
    <glyph glyph-name="uni0328" unicode="&#x328;" horiz-adv-x="708" 
d="M430 -10l-49 -78q-43 -68 -43 -107v-6q0 -47 51 -47q27 0 53 15l39 -95q-46 -28 -108 -28q-71 0 -118.5 34.5t-47.5 100.5v8q0 65 65 150l37 49q-121 15 -194 106l157 107q16 -31 50 -41l-3 -170h70l-2 170q33 10 49 41l158 -107q-40 -49 -88 -74q-33 -18 -76 -28z
M272 528l-157 107q78 96 204 108l3 -174q-34 -10 -50 -41zM594 635l-158 -107q-16 31 -49 41l2 174q131 -12 205 -108zM242 416v-21l-205 2q3 107 41 181l172 -113q-7 -33 -8 -49zM670 229q-12 -26 -39 -79l-172 112q8 31 8 70l205 -2zM467 416q-2 26 -8 49l172 113
q38 -74 41 -181l-205 -2v21zM39 229q0 33 -2 101l205 2q0 -39 8 -70l-172 -112z" />
    <glyph glyph-name="uni0329" unicode="&#x329;" horiz-adv-x="708" 
d="M481 4q-8 -2 -26 -8v-225h-199v225q-81 24 -141 96l157 107q16 -31 50 -41l-3 -160h70l-2 160q33 10 49 41l158 -107q-40 -49 -88 -74zM291 561q-7 -10 -19 -33l-157 107q78 96 204 108l3 -174zM453 737q18 -8 53 -26q46 -23 88 -76l-158 -107q-16 31 -49 41l2 174z
M242 395l-205 2q3 107 41 181l172 -113q-8 -31 -8 -70zM463 449q-2 6 -4 16l172 113q38 -74 41 -181l-205 -2q0 8 -4 54zM631 150l-172 112q8 31 8 70l205 -2q-3 -106 -41 -180zM250 262l-172 -112q-38 74 -41 180l205 2q0 -39 8 -70z" />
    <glyph glyph-name="uni032D" unicode="&#x32d;" horiz-adv-x="708" 
d="M360 -61l220 -310h-166l-62 82l-63 -82h-162l219 310h14zM272 528l-157 107q78 96 204 108l3 -174q-34 -10 -50 -41zM193 -4q-27 33 -78 96l157 107q16 -31 50 -41l-3 -174zM387 569l2 174q67 -6 117 -32q46 -23 88 -76l-158 -107q-16 31 -49 41zM557 45q-16 -9 -51 -27
q-55 -28 -117 -34l-2 174q33 10 49 41l158 -107zM242 395l-205 2q3 107 41 181l172 -113q-8 -31 -8 -70zM39 229q0 33 -2 101l205 2q0 -39 8 -70l-172 -112zM463 449q-2 6 -4 16l172 113q38 -74 41 -181l-205 -2q0 8 -4 54zM631 150l-172 112q8 31 8 70l205 -2
q-3 -106 -41 -180z" />
    <glyph glyph-name="uni032E" unicode="&#x32e;" horiz-adv-x="708" 
d="M408 -172q2 23 6 68l149 -7q-5 -95 -61 -153t-152 -58t-152 58t-61 153l150 7q6 -68 63 -68h58zM272 528l-157 107q78 96 204 108l3 -174q-34 -10 -50 -41zM193 -4q-27 33 -78 96l157 107q16 -31 50 -41l-3 -174zM387 569l2 174q67 -6 117 -32q46 -23 88 -76l-158 -107
q-16 31 -49 41zM557 45q-16 -9 -51 -27q-55 -28 -117 -34l-2 174q33 10 49 41l158 -107zM670 229q-12 -26 -39 -79l-172 112q8 31 8 70l205 -2zM242 416v-21l-205 2q3 107 41 181l172 -113q-7 -33 -8 -49zM463 449q-2 6 -4 16l172 113q38 -74 41 -181l-205 -2q0 8 -4 54z
M39 229q0 33 -2 101l205 2q0 -39 8 -70l-172 -112z" />
    <glyph glyph-name="uni0330" unicode="&#x330;" horiz-adv-x="708" 
d="M373 -127q6 -2 16 -8q15 -6 29 -6q18 0 28.5 11t14.5 42l133 -10q-10 -102 -51.5 -155.5t-104.5 -53.5q-33 0 -88 22l-35 19q-13 8 -28 8q-18 0 -28.5 -11t-14.5 -42l-133 10q21 209 155 209q38 0 107 -35zM193 -4q-27 33 -78 96l157 107q16 -31 50 -41l-3 -174zM272 528
l-157 107q78 96 204 108l3 -174q-34 -10 -50 -41zM418 561q-11 2 -31 8l2 174q131 -12 205 -108l-158 -107zM389 -16l-2 174q33 10 49 41l158 -107q-74 -96 -205 -108zM242 416v-21l-205 2q3 107 41 181l172 -113q-7 -33 -8 -49zM39 229q0 33 -2 101l205 2q0 -39 8 -70
l-172 -112zM670 229q-12 -26 -39 -79l-172 112q8 31 8 70l205 -2zM467 416q-2 26 -8 49l172 113q38 -74 41 -181l-205 -2v21z" />
    <glyph glyph-name="uni0331" unicode="&#x331;" horiz-adv-x="708" 
d="M180 -152h344v-147h-344v147zM193 -4q-27 33 -78 96l157 107q16 -31 50 -41l-3 -174zM291 561q-7 -10 -19 -33l-157 107q78 96 204 108l3 -174zM557 682q12 -16 37 -47l-158 -107q-16 31 -49 41l2 174q64 -6 168 -61zM436 199l158 -107q-74 -96 -205 -108l-2 174
q33 10 49 41zM39 229q0 33 -2 101l205 2q0 -39 8 -70l-172 -112zM670 229q-12 -26 -39 -79l-172 112q8 31 8 70l205 -2zM463 449q-2 6 -4 16l172 113q38 -74 41 -181l-205 -2q0 8 -4 54zM242 395l-205 2q3 107 41 181l172 -113q-8 -31 -8 -70z" />
    <glyph glyph-name="uni0338" unicode="&#x338;" horiz-adv-x="708" 
d="M672 397l-205 -2v23l-172 -248q12 -9 27 -12l-3 -174q-71 6 -124 39l-66 -95l-102 68l149 219l-98 -65q-38 74 -41 180l205 2v-23l170 248q-9 9 -25 12l2 174q67 -6 117 -32q1 -1 4 -3t4 -3l53 77l103 -67l-140 -203l101 66q38 -74 41 -181zM291 561q-7 -10 -19 -33
l-157 107q78 96 204 108l3 -174zM436 199l158 -107q-40 -49 -88 -74q-55 -28 -117 -34l-2 174q33 10 49 41zM631 150l-172 112q8 31 8 70l205 -2q-3 -106 -41 -180zM242 416v-21l-205 2q3 107 41 181l172 -113q-7 -33 -8 -49z" />
    <glyph glyph-name="uni0355" unicode="&#x355;" horiz-adv-x="708" 
d="M217 -10l309 -199v-14l-309 -199v166l102 41l-102 43v162zM291 561q-7 -10 -19 -33l-157 107q78 96 204 108l3 -174zM193 -4q-27 33 -78 96l157 107q16 -31 50 -41l-3 -174zM387 569l2 174q67 -6 117 -32q46 -23 88 -76l-158 -107q-16 31 -49 41zM557 45q-16 -9 -51 -27
q-55 -28 -117 -34l-2 174q33 10 49 41l158 -107zM242 395l-205 2q3 107 41 181l172 -113q-8 -31 -8 -70zM39 229q0 33 -2 101l205 2q0 -39 8 -70l-172 -112zM463 449q-2 6 -4 16l172 113q38 -74 41 -181l-205 -2q0 8 -4 54zM670 229q-12 -26 -39 -79l-172 112q8 31 8 70
l205 -2z" />
    <glyph glyph-name="uni0361" unicode="&#x361;" horiz-adv-x="1286" 
d="M709 1028q-29 -11 -88 -31q-83 -28 -152 -65q-76 -45 -133 -96l-84 104q58 66 145 125q194 127 418 127q219 0 402 -125q82 -54 139 -123l-88 -104q-60 57 -125 94q-160 94 -328 94h-106zM322 158l-3 -174q-126 12 -204 108l157 107q16 -31 50 -41zM272 528l-157 107
q78 96 204 108l3 -174q-34 -10 -50 -41zM557 682q12 -16 37 -47l-158 -107q-16 31 -49 41l2 174q64 -6 168 -61zM418 166q6 10 18 33l158 -107q-74 -96 -205 -108l-2 174zM242 395l-205 2q3 107 41 181l172 -113q-8 -31 -8 -70zM39 229q0 33 -2 101l205 2q0 -39 8 -70
l-172 -112zM463 449q-2 6 -4 16l172 113q38 -74 41 -181l-205 -2q0 8 -4 54zM670 229q-12 -26 -39 -79l-172 112q8 31 8 70l205 -2z" />
    <glyph glyph-name="uni0374" unicode="&#x374;" horiz-adv-x="309" 
d="M162 913h-156l96 480h201z" />
    <glyph glyph-name="uni0375" unicode="&#x375;" horiz-adv-x="215" 
d="M125 -514h-201l142 479h155z" />
    <glyph glyph-name="uni037E" unicode="&#x37e;" horiz-adv-x="401" 
d="M309 29q-6 -12 -20 -37l-101 -189h-104l59 199q-75 40 -75 121q0 59 39 96t94 37t94 -37t39 -96q0 -33 -25 -94zM147 670h54q55 0 94 -37t39 -96t-39 -96.5t-94 -37.5t-94 37.5t-39 96.5q0 60 79 133z" />
    <glyph glyph-name="tonos" unicode="&#x384;" 
d="M412 834h-156l63 290h224z" />
    <glyph glyph-name="dieresistonos" unicode="&#x385;" horiz-adv-x="872" 
d="M379 1145h211l-115 -287h-143zM569 911v47q0 45 35 80q36 31 76 31q44 0 77.5 -32.5t33.5 -78.5t-33.5 -78t-77.5 -32q-45 0 -111 63zM82 911v47q0 45 35 80q36 31 76 31q44 0 77 -32.5t33 -78.5t-33 -78t-77 -32q-45 0 -111 63z" />
    <glyph glyph-name="Alphatonos" unicode="&#x386;" horiz-adv-x="1001" 
d="M979 0h-225l-54 174h-411l-53 -174h-213l464 1405h27zM492 848q-5 -19 -22 -83t-26 -95l-100 -318h301l-96 318q-17 55 -34 122.5t-17 79.5q-3 -3 -6 -24zM55 1393h224l-132 -291h-155z" />
    <glyph glyph-name="anoteleia" unicode="&#x387;" horiz-adv-x="382" 
d="M246 592q14 -12 41 -37q39 -36 39 -96q0 -61 -39 -97t-94 -36q-56 0 -96 37.5t-40 95.5t40 95.5t96 37.5h53z" />
    <glyph glyph-name="Epsilontonos" unicode="&#x388;" horiz-adv-x="860" 
d="M776 1204h-452v-567h381v-188h-381v-261h469v-188h-682v1393h665v-189zM-172 1393h223l-131 -291h-156z" />
    <glyph glyph-name="Etatonos" unicode="&#x389;" horiz-adv-x="1062" 
d="M952 1393v-1393h-215v449h-411v-449h-215v1393h215v-756h411v756h215zM-172 1393h223l-131 -291h-156z" />
    <glyph glyph-name="Iotatonos" unicode="&#x38a;" horiz-adv-x="448" 
d="M332 1393v-1393h-215v1393h215zM51 1393l-131 -291h-156l64 291h223z" />
    <glyph glyph-name="Omicrontonos" unicode="&#x38c;" horiz-adv-x="1126" 
d="M768 29q-92 -47 -205 -47q-228 0 -366 184.5t-138 511.5v37q0 326 138 510t366 184t366 -184t138 -510v-37q0 -244 -79.5 -412t-219.5 -237zM846 684v25q0 247 -75.5 377.5t-207.5 130.5t-208 -130.5t-76 -377.5v-25q0 -247 76 -377.5t208 -130.5t207.5 130.5t75.5 377.5
zM-90 1393h223l-131 -291h-156z" />
    <glyph glyph-name="Upsilontonos" unicode="&#x38e;" horiz-adv-x="968" 
d="M492 649q0 3 10 41.5t26.5 95.5t30.5 95l182 512h211l-358 -963v-430h-215v428l-363 965h220l186 -512q9 -24 19.5 -54.5t18.5 -60t15 -53.5t12 -43t5 -21zM-233 1393h223l-131 -291h-156z" />
    <glyph glyph-name="Omegatonos" unicode="&#x38f;" horiz-adv-x="1126" 
d="M774 1073q-75 144 -211 144q-137 0 -209.5 -139.5t-72.5 -368.5v-25q0 -385 208 -508v-176h-426v188h166q-89 91 -129.5 209.5t-40.5 280.5v37q0 206 59 362t173.5 244t271.5 88t271.5 -88t173.5 -244t59 -362v-37q0 -162 -40.5 -280.5t-129.5 -209.5h166v-188h-426v176
q209 123 209 508v25q0 226 -72 364zM-90 1393h223l-131 -291h-156z" />
    <glyph glyph-name="iotadieresistonos" unicode="&#x390;" horiz-adv-x="321" 
d="M260 0h-199v727h199v-727zM104 858l48 287h210l-114 -287h-144zM377 1038q36 31 76 31q44 0 77 -32.5t33 -78.5t-33 -78t-77 -32t-77.5 32t-33.5 78q0 45 35 80zM-145 958q0 46 33 78.5t77 32.5t77.5 -32.5t33.5 -78.5t-33.5 -78t-77.5 -32t-77 32t-33 78z" />
    <glyph glyph-name="Alpha" unicode="&#x391;" horiz-adv-x="1001" 
d="M487 1405h27l465 -1405h-225l-54 174h-411l-53 -174h-213zM498 866v6q-3 -3 -6 -24q-5 -19 -22 -83t-26 -95l-100 -318h301l-96 318q-31 106 -51 196z" />
    <glyph glyph-name="Beta" unicode="&#x392;" horiz-adv-x="962" 
d="M745 805q-26 -12 -77 -35q110 -32 177.5 -120.5t67.5 -219.5v-27q0 -187 -117.5 -295t-334.5 -108h-350v1393h331q179 0 284 -93.5t105 -248.5v-19q0 -97 -86 -227zM698 307v109v18q0 111 -62.5 174.5t-182.5 63.5h-134v-488h136q123 0 243 123zM319 1208v-364h123
q181 0 181 176v12q0 87 -48 131.5t-139 44.5h-117z" />
    <glyph glyph-name="Gamma" unicode="&#x393;" horiz-adv-x="770" 
d="M111 0v1393h618v-189h-403v-1204h-215z" />
    <glyph glyph-name="uni0394" unicode="&#x394;" horiz-adv-x="1001" 
d="M487 1405h27l465 -1405h-956zM508 821q-2 9 -4 23q-6 21 -6 28q-2 -4 -10.5 -37.5t-21 -83t-22.5 -81.5l-151 -482h403l-147 482q-31 107 -41 151z" />
    <glyph glyph-name="Epsilon" unicode="&#x395;" horiz-adv-x="860" 
d="M111 1393h665v-189h-452v-567h381v-188h-381v-261h469v-188h-682v1393z" />
    <glyph glyph-name="Zeta" unicode="&#x396;" horiz-adv-x="874" 
d="M326 188h489v-188h-795v16l510 1188h-428v189h734v-17z" />
    <glyph glyph-name="Eta" unicode="&#x397;" horiz-adv-x="1062" 
d="M737 637v756h215v-1393h-215v449h-411v-449h-215v1393h215v-756h411z" />
    <glyph glyph-name="Theta" unicode="&#x398;" horiz-adv-x="1126" 
d="M993 252q-22 -29 -65 -88q-135 -182 -365 -182q-228 0 -366 184.5t-138 511.5v37q0 326 138 510t366 184q227 0 365 -180q139 -191 139 -514v-37q0 -163 -74 -426zM692 176q27 43 78 129q76 125 76 379v25q0 253 -76 381q-77 127 -207 127q-132 0 -208 -130.5t-76 -377.5
v-25q0 -247 76 -377.5t208 -130.5h129zM416 449v188h297v-188h-297z" />
    <glyph glyph-name="Iota" unicode="&#x399;" horiz-adv-x="448" 
d="M332 1393v-1393h-215v1393h215z" />
    <glyph glyph-name="Kappa" unicode="&#x39a;" horiz-adv-x="972" 
d="M324 662l376 731h224l-357 -697l389 -696h-241l-287 508l-104 -166v-342h-213v1393h213v-731z" />
    <glyph glyph-name="Lambda" unicode="&#x39b;" horiz-adv-x="970" 
d="M508 727q-2 11 -6 31q-10 35 -13 55q-6 21 -6 29q-1 -4 -19.5 -85.5t-31.5 -125.5l-186 -631h-213l440 1405h27l438 -1405h-223l-183 631q-10 30 -24 96z" />
    <glyph glyph-name="Mu" unicode="&#x39c;" horiz-adv-x="1181" 
d="M868 823v17q0 -4 -8 -15q-10 -14 -39 -58.5t-43 -64.5l-180 -249h-18l-179 249q-17 22 -38 54.5t-35 55.5t-15 24l2 -17v-41q0 -16 1 -53t1 -53v-672h-206v1405h26l457 -653l450 653h27v-1405h-207v672q0 118 4 151z" />
    <glyph glyph-name="Nu" unicode="&#x39d;" horiz-adv-x="1030" 
d="M700 586q5 -7 11 -17q10 -20 12 -22q0 1 -0.5 15t-1.5 35.5t-2 47t-1.5 53.5t-0.5 50v645h203v-1405h-27l-485 690q-15 18 -33.5 45.5t-31.5 48.5t-25 40l-11 19l2 -20q0 -17 2 -82t2 -94v-635h-202v1405h26l486 -698q22 -37 77 -121z" />
    <glyph glyph-name="Xi" unicode="&#x39e;" horiz-adv-x="933" 
d="M858 1204h-285v-567h228v-188h-228v-261h293v-188h-798v188h292v261h-227v188h227v567h-284v189h782v-189z" />
    <glyph glyph-name="Omicron" unicode="&#x39f;" horiz-adv-x="1126" 
d="M676 1409q31 -14 92 -45q93 -47 160 -135q139 -191 139 -514v-37q0 -327 -138 -511.5t-366 -184.5t-366 184.5t-138 511.5v37q0 326 138 510t366 184h113zM846 684v25q0 247 -75.5 377.5t-207.5 130.5t-208 -130.5t-76 -377.5v-25q0 -247 76 -377.5t208 -130.5
t207.5 130.5t75.5 377.5z" />
    <glyph glyph-name="Pi" unicode="&#x3a0;" horiz-adv-x="1040" 
d="M111 0v1393h819v-1393h-215v1204h-389v-1204h-215z" />
    <glyph glyph-name="Rho" unicode="&#x3a1;" horiz-adv-x="933" 
d="M811 541q-23 -23 -66 -68q-67 -67 -159 -102q-93 -37 -209 -37h-51v-334h-215v1393h266q229 0 367.5 -137.5t138.5 -378.5v-21q0 -117 -72 -315zM668 856v16q0 160 -72 246t-221 86h-49v-682h49q147 0 220 89.5t73 244.5z" />
    <glyph glyph-name="Sigma" unicode="&#x3a3;" horiz-adv-x="872" 
d="M49 1393h739v-189h-417l231 -467v-16l-260 -533h463v-188h-768v16l342 701l-330 659v17z" />
    <glyph glyph-name="Tau" unicode="&#x3a4;" horiz-adv-x="866" 
d="M41 1204v189h784v-189h-284v-1204h-215v1204h-285z" />
    <glyph glyph-name="Upsilon" unicode="&#x3a5;" horiz-adv-x="968" 
d="M506 700q4 12 10 35q7 26 21 74q5 24 22 72l182 512h211l-358 -963v-430h-215v428l-363 965h220l186 -512q9 -24 19.5 -54.5t18.5 -60t15 -53.5t12 -43t5 -21q0 5 14 51z" />
    <glyph glyph-name="Phi" unicode="&#x3a6;" horiz-adv-x="1243" 
d="M854 1300q29 -16 88 -49q250 -145 250 -536v-37q0 -125 -26 -226.5t-80 -182t-144.5 -130t-212.5 -61.5v-135h-215v135q-122 12 -212.5 61.5t-144.5 130t-80 182t-26 226.5v37q0 123 26 224t80 181.5t144.5 130.5t212.5 62v139h215v-139zM270 709v-25q0 -86 11.5 -153.5
t38.5 -124.5t76 -92.5t118 -47.5v860q-69 -12 -118 -48.5t-75.5 -93.5t-38.5 -124t-12 -151zM729 1126v-860q74 13 119 49q125 93 125 369v25q0 84 -12 151t-38.5 124t-75.5 93.5t-118 48.5z" />
    <glyph glyph-name="Chi" unicode="&#x3a7;" horiz-adv-x="1003" 
d="M518 932q4 11 10 31q3 9 11 30.5t12 32.5q11 31 24 64l117 303h219l-278 -645l338 -748h-230l-166 383q-17 39 -35 87.5t-29 81t-13 36.5q0 -2 -11.5 -33.5t-30.5 -81t-36 -88.5l-168 -385h-219l338 745l-283 648h227l117 -303q14 -35 31 -83.5t28 -80t13 -35.5
q0 3 14 41z" />
    <glyph glyph-name="Psi" unicode="&#x3a8;" horiz-adv-x="1140" 
d="M678 1452v-987q82 18 119 74t37 180v674h215v-678q0 -113 -27 -196t-78 -134t-116 -78.5t-150 -36.5v-270h-215v270q-85 9 -150 36.5t-116 78.5t-78 134t-27 196v678h215v-674q0 -124 37 -180t119 -74v987h215z" />
    <glyph glyph-name="uni03A9" unicode="&#x3a9;" horiz-adv-x="1126" 
d="M809 1006q-12 22 -35 67q-33 65 -88 107q-52 37 -123 37q-137 0 -209.5 -139.5t-72.5 -368.5v-25q0 -385 208 -508v-176h-426v188h166q-89 91 -129.5 209.5t-40.5 280.5v37q0 206 59 362t173.5 244t271.5 88t271.5 -88t173.5 -244t59 -362v-37q0 -162 -40.5 -280.5
t-129.5 -209.5h166v-188h-426v176q209 123 209 508v25q0 112 -37 297z" />
    <glyph glyph-name="Iotadieresis" unicode="&#x3aa;" horiz-adv-x="448" 
d="M332 0h-215v1393h215v-1393zM4 1704q36 31 76 31q44 0 77 -32.5t33 -78.5t-33 -78.5t-77 -32.5t-77.5 32.5t-33.5 78.5q0 45 35 80zM260 1624q0 46 33.5 78.5t77.5 32.5t77 -32.5t33 -78.5t-33 -78.5t-77 -32.5t-77.5 32.5t-33.5 78.5z" />
    <glyph glyph-name="Upsilondieresis" unicode="&#x3ab;" horiz-adv-x="968" 
d="M741 1393h211l-358 -963v-430h-215v428l-363 965h220l186 -512q9 -24 19.5 -54.5t18.5 -60t15 -53.5t12 -43t5 -21q0 3 10 41.5t26.5 95.5t30.5 95zM559 1546q-35 30 -35 78q0 46 33.5 78.5t77.5 32.5t77 -32.5t33 -78.5t-33 -78.5t-77 -32.5q-43 0 -76 33zM233 1624
q0 46 33.5 78.5t77.5 32.5t77.5 -32.5t33.5 -78.5t-33.5 -78.5t-77.5 -32.5t-77.5 32.5t-33.5 78.5z" />
    <glyph glyph-name="alphatonos" unicode="&#x3ac;" horiz-adv-x="714" 
d="M455 727h198v-727h-198v74q-57 -92 -166 -92q-106 0 -179 93t-73 273v31q0 181 71.5 273.5t178.5 92.5q116 0 168 -88v70zM432 522q-26 51 -82 51q-108 0 -108 -196v-27q0 -196 108 -196q54 0 81.5 50.5t27.5 145.5v27q0 93 -27 145zM432 834h-156l64 290h223z" />
    <glyph glyph-name="epsilontonos" unicode="&#x3ad;" horiz-adv-x="571" 
d="M322 305q-36 0 -57 -19.5t-21 -54.5q0 -75 104 -75q81 0 133 34l70 -149q-91 -59 -238 -59q-119 0 -197.5 60.5t-78.5 160.5q0 142 133 188q-53 23 -82 63.5t-29 88.5q0 69 41 116t99 66.5t127 19.5q141 0 225 -61l-78 -137q-59 35 -123 35q-39 0 -64.5 -18.5
t-25.5 -57.5q0 -25 18 -41t50 -16h86v-144h-92zM401 834h-155l63 290h223z" />
    <glyph glyph-name="etatonos" unicode="&#x3ae;" horiz-adv-x="688" 
d="M356 561q-46 0 -72 -26t-26 -78v-457h-199v727h199v-82q57 100 178 100q90 0 145.5 -64t55.5 -187v-494h-199v471q0 43 -22.5 66.5t-59.5 23.5zM563 1124l-131 -290h-156l64 290h223z" />
    <glyph glyph-name="iotatonos" unicode="&#x3af;" horiz-adv-x="321" 
d="M260 727v-727h-199v727h199zM76 834l63 290h223l-131 -290h-155z" />
    <glyph glyph-name="upsilondieresistonos" unicode="&#x3b0;" horiz-adv-x="684" 
d="M557 57q-72 -75 -215 -75q-141 0 -215 75t-74 217v453h199v-444q0 -131 90 -131t90 131v444h199v-453q0 -143 -74 -217zM248 858l47 287h211l-115 -287h-143zM33 1038q36 31 76 31q44 0 77 -32.5t33 -78.5t-33 -78t-77 -32t-77.5 32t-33.5 78q0 45 35 80zM485 958
q0 46 33.5 78.5t77.5 32.5t77.5 -32.5t33.5 -78.5t-33.5 -78t-77.5 -32t-77.5 32t-33.5 78z" />
    </font>
</defs>
</svg>
